999
"DXF R12 Output" (www.mydxf.blogspot.com)
 0 
SECTION
 2 
HEADER
 9 
$ACADVER
 1 
AC1009
 9 
$EXTMIN
 10 
 0 
 20 
 0 
 9 
$EXTMAX
 10 
 8.5 
 20 
 11 
 0 
ENDSEC
 0 
SECTION
 2 
ENTITIES
0
LINE
8
Layer 1
10
42.344500
20
329.779000
11
42.188300
21
329.920000
0
LINE
8
Layer 1
10
42.188300
20
329.920000
11
42.102800
21
330.112000
0
LINE
8
Layer 1
10
42.102800
20
330.112000
11
42.102800
21
330.322000
0
LINE
8
Layer 1
10
42.102800
20
330.322000
11
42.188300
21
330.514000
0
LINE
8
Layer 1
10
42.188300
20
330.514000
11
42.344500
21
330.655000
0
LINE
8
Layer 1
10
42.344500
20
330.655000
11
42.544300
21
330.720000
0
LINE
8
Layer 1
10
42.544300
20
330.720000
11
42.753400
21
330.698000
0
LINE
8
Layer 1
10
42.753400
20
330.698000
11
42.935400
21
330.593000
0
LINE
8
Layer 1
10
42.935400
20
330.593000
11
43.058900
21
330.423000
0
LINE
8
Layer 1
10
43.058900
20
330.423000
11
43.102600
21
330.217000
0
LINE
8
Layer 1
10
43.102600
20
330.217000
11
43.058900
21
330.012000
0
LINE
8
Layer 1
10
43.058900
20
330.012000
11
42.935400
21
329.842000
0
LINE
8
Layer 1
10
42.935400
20
329.842000
11
42.753400
21
329.736000
0
LINE
8
Layer 1
10
42.753400
20
329.736000
11
42.544300
21
329.715000
0
LINE
8
Layer 1
10
42.544300
20
329.715000
11
42.344500
21
329.779000
0
LINE
8
Layer 1
10
44.742900
20
329.855000
11
44.586700
21
329.995000
0
LINE
8
Layer 1
10
44.586700
20
329.995000
11
44.501200
21
330.187000
0
LINE
8
Layer 1
10
44.501200
20
330.187000
11
44.501200
21
330.398000
0
LINE
8
Layer 1
10
44.501200
20
330.398000
11
44.586700
21
330.590000
0
LINE
8
Layer 1
10
44.586700
20
330.590000
11
44.742900
21
330.730000
0
LINE
8
Layer 1
10
44.742900
20
330.730000
11
44.942700
21
330.795000
0
LINE
8
Layer 1
10
44.942700
20
330.795000
11
45.151800
21
330.773000
0
LINE
8
Layer 1
10
45.151800
20
330.773000
11
45.333800
21
330.668000
0
LINE
8
Layer 1
10
45.333800
20
330.668000
11
45.457300
21
330.498000
0
LINE
8
Layer 1
10
45.457300
20
330.498000
11
45.501000
21
330.293000
0
LINE
8
Layer 1
10
45.501000
20
330.293000
11
45.457300
21
330.087000
0
LINE
8
Layer 1
10
45.457300
20
330.087000
11
45.333800
21
329.917000
0
LINE
8
Layer 1
10
45.333800
20
329.917000
11
45.151800
21
329.812000
0
LINE
8
Layer 1
10
45.151800
20
329.812000
11
44.942700
21
329.790000
0
LINE
8
Layer 1
10
44.942700
20
329.790000
11
44.742900
21
329.855000
0
LINE
8
Layer 1
10
39.946100
20
329.855000
11
39.789900
21
329.995000
0
LINE
8
Layer 1
10
39.789900
20
329.995000
11
39.704400
21
330.187000
0
LINE
8
Layer 1
10
39.704400
20
330.187000
11
39.704400
21
330.398000
0
LINE
8
Layer 1
10
39.704400
20
330.398000
11
39.789900
21
330.590000
0
LINE
8
Layer 1
10
39.789900
20
330.590000
11
39.946100
21
330.730000
0
LINE
8
Layer 1
10
39.946100
20
330.730000
11
40.145900
21
330.795000
0
LINE
8
Layer 1
10
40.145900
20
330.795000
11
40.355000
21
330.773000
0
LINE
8
Layer 1
10
40.355000
20
330.773000
11
40.537000
21
330.668000
0
LINE
8
Layer 1
10
40.537000
20
330.668000
11
40.660500
21
330.498000
0
LINE
8
Layer 1
10
40.660500
20
330.498000
11
40.704200
21
330.293000
0
LINE
8
Layer 1
10
40.704200
20
330.293000
11
40.660500
21
330.087000
0
LINE
8
Layer 1
10
40.660500
20
330.087000
11
40.537000
21
329.917000
0
LINE
8
Layer 1
10
40.537000
20
329.917000
11
40.355000
21
329.812000
0
LINE
8
Layer 1
10
40.355000
20
329.812000
11
40.145900
21
329.790000
0
LINE
8
Layer 1
10
40.145900
20
329.790000
11
39.946100
21
329.855000
0
LINE
8
Layer 1
10
47.131800
20
330.081000
11
46.975600
21
330.221000
0
LINE
8
Layer 1
10
46.975600
20
330.221000
11
46.890200
21
330.413000
0
LINE
8
Layer 1
10
46.890200
20
330.413000
11
46.890200
21
330.623000
0
LINE
8
Layer 1
10
46.890200
20
330.623000
11
46.975600
21
330.815000
0
LINE
8
Layer 1
10
46.975600
20
330.815000
11
47.131800
21
330.956000
0
LINE
8
Layer 1
10
47.131800
20
330.956000
11
47.331700
21
331.021000
0
LINE
8
Layer 1
10
47.331700
20
331.021000
11
47.540700
21
330.999000
0
LINE
8
Layer 1
10
47.540700
20
330.999000
11
47.722800
21
330.894000
0
LINE
8
Layer 1
10
47.722800
20
330.894000
11
47.846300
21
330.724000
0
LINE
8
Layer 1
10
47.846300
20
330.724000
11
47.890000
21
330.518000
0
LINE
8
Layer 1
10
47.890000
20
330.518000
11
47.846300
21
330.313000
0
LINE
8
Layer 1
10
47.846300
20
330.313000
11
47.722800
21
330.143000
0
LINE
8
Layer 1
10
47.722800
20
330.143000
11
47.540700
21
330.038000
0
LINE
8
Layer 1
10
47.540700
20
330.038000
11
47.331700
21
330.016000
0
LINE
8
Layer 1
10
47.331700
20
330.016000
11
47.131800
21
330.081000
0
LINE
8
Layer 1
10
37.557100
20
330.081000
11
37.400900
21
330.221000
0
LINE
8
Layer 1
10
37.400900
20
330.221000
11
37.315400
21
330.413000
0
LINE
8
Layer 1
10
37.315400
20
330.413000
11
37.315400
21
330.623000
0
LINE
8
Layer 1
10
37.315400
20
330.623000
11
37.400900
21
330.815000
0
LINE
8
Layer 1
10
37.400900
20
330.815000
11
37.557100
21
330.956000
0
LINE
8
Layer 1
10
37.557100
20
330.956000
11
37.757000
21
331.021000
0
LINE
8
Layer 1
10
37.757000
20
331.021000
11
37.966000
21
330.999000
0
LINE
8
Layer 1
10
37.966000
20
330.999000
11
38.148000
21
330.894000
0
LINE
8
Layer 1
10
38.148000
20
330.894000
11
38.271500
21
330.724000
0
LINE
8
Layer 1
10
38.271500
20
330.724000
11
38.315200
21
330.518000
0
LINE
8
Layer 1
10
38.315200
20
330.518000
11
38.271500
21
330.313000
0
LINE
8
Layer 1
10
38.271500
20
330.313000
11
38.148000
21
330.143000
0
LINE
8
Layer 1
10
38.148000
20
330.143000
11
37.966000
21
330.038000
0
LINE
8
Layer 1
10
37.966000
20
330.038000
11
37.757000
21
330.016000
0
LINE
8
Layer 1
10
37.757000
20
330.016000
11
37.557100
21
330.081000
0
LINE
8
Layer 1
10
49.501900
20
330.456000
11
49.345700
21
330.597000
0
LINE
8
Layer 1
10
49.345700
20
330.597000
11
49.260200
21
330.789000
0
LINE
8
Layer 1
10
49.260200
20
330.789000
11
49.260200
21
330.999000
0
LINE
8
Layer 1
10
49.260200
20
330.999000
11
49.345700
21
331.191000
0
LINE
8
Layer 1
10
49.345700
20
331.191000
11
49.501900
21
331.331000
0
LINE
8
Layer 1
10
49.501900
20
331.331000
11
49.701800
21
331.396000
0
LINE
8
Layer 1
10
49.701800
20
331.396000
11
49.910800
21
331.374000
0
LINE
8
Layer 1
10
49.910800
20
331.374000
11
50.092800
21
331.269000
0
LINE
8
Layer 1
10
50.092800
20
331.269000
11
50.216300
21
331.099000
0
LINE
8
Layer 1
10
50.216300
20
331.099000
11
50.260000
21
330.894000
0
LINE
8
Layer 1
10
50.260000
20
330.894000
11
50.216300
21
330.688000
0
LINE
8
Layer 1
10
50.216300
20
330.688000
11
50.092800
21
330.518000
0
LINE
8
Layer 1
10
50.092800
20
330.518000
11
49.910800
21
330.413000
0
LINE
8
Layer 1
10
49.910800
20
330.413000
11
49.701800
21
330.391000
0
LINE
8
Layer 1
10
49.701800
20
330.391000
11
49.501900
21
330.456000
0
LINE
8
Layer 1
10
35.187000
20
330.456000
11
35.030900
21
330.597000
0
LINE
8
Layer 1
10
35.030900
20
330.597000
11
34.945400
21
330.789000
0
LINE
8
Layer 1
10
34.945400
20
330.789000
11
34.945400
21
330.999000
0
LINE
8
Layer 1
10
34.945400
20
330.999000
11
35.030900
21
331.191000
0
LINE
8
Layer 1
10
35.030900
20
331.191000
11
35.187000
21
331.331000
0
LINE
8
Layer 1
10
35.187000
20
331.331000
11
35.386900
21
331.396000
0
LINE
8
Layer 1
10
35.386900
20
331.396000
11
35.595900
21
331.374000
0
LINE
8
Layer 1
10
35.595900
20
331.374000
11
35.778000
21
331.269000
0
LINE
8
Layer 1
10
35.778000
20
331.269000
11
35.901500
21
331.099000
0
LINE
8
Layer 1
10
35.901500
20
331.099000
11
35.945200
21
330.894000
0
LINE
8
Layer 1
10
35.945200
20
330.894000
11
35.901500
21
330.688000
0
LINE
8
Layer 1
10
35.901500
20
330.688000
11
35.778000
21
330.518000
0
LINE
8
Layer 1
10
35.778000
20
330.518000
11
35.595900
21
330.413000
0
LINE
8
Layer 1
10
35.595900
20
330.413000
11
35.386900
21
330.391000
0
LINE
8
Layer 1
10
35.386900
20
330.391000
11
35.187000
21
330.456000
0
LINE
8
Layer 1
10
51.843700
20
330.980000
11
51.687500
21
331.120000
0
LINE
8
Layer 1
10
51.687500
20
331.120000
11
51.602000
21
331.312000
0
LINE
8
Layer 1
10
51.602000
20
331.312000
11
51.602000
21
331.522000
0
LINE
8
Layer 1
10
51.602000
20
331.522000
11
51.687500
21
331.714000
0
LINE
8
Layer 1
10
51.687500
20
331.714000
11
51.843700
21
331.855000
0
LINE
8
Layer 1
10
51.843700
20
331.855000
11
52.043600
21
331.920000
0
LINE
8
Layer 1
10
52.043600
20
331.920000
11
52.252600
21
331.898000
0
LINE
8
Layer 1
10
52.252600
20
331.898000
11
52.434600
21
331.793000
0
LINE
8
Layer 1
10
52.434600
20
331.793000
11
52.558200
21
331.623000
0
LINE
8
Layer 1
10
52.558200
20
331.623000
11
52.601900
21
331.417000
0
LINE
8
Layer 1
10
52.601900
20
331.417000
11
52.558200
21
331.212000
0
LINE
8
Layer 1
10
52.558200
20
331.212000
11
52.434600
21
331.042000
0
LINE
8
Layer 1
10
52.434600
20
331.042000
11
52.252600
21
330.937000
0
LINE
8
Layer 1
10
52.252600
20
330.937000
11
52.043600
21
330.915000
0
LINE
8
Layer 1
10
52.043600
20
330.915000
11
51.843700
21
330.980000
0
LINE
8
Layer 1
10
32.845200
20
330.980000
11
32.689000
21
331.120000
0
LINE
8
Layer 1
10
32.689000
20
331.120000
11
32.603500
21
331.312000
0
LINE
8
Layer 1
10
32.603500
20
331.312000
11
32.603500
21
331.522000
0
LINE
8
Layer 1
10
32.603500
20
331.522000
11
32.689000
21
331.714000
0
LINE
8
Layer 1
10
32.689000
20
331.714000
11
32.845200
21
331.855000
0
LINE
8
Layer 1
10
32.845200
20
331.855000
11
33.045100
21
331.920000
0
LINE
8
Layer 1
10
33.045100
20
331.920000
11
33.254100
21
331.898000
0
LINE
8
Layer 1
10
33.254100
20
331.898000
11
33.436200
21
331.793000
0
LINE
8
Layer 1
10
33.436200
20
331.793000
11
33.559600
21
331.623000
0
LINE
8
Layer 1
10
33.559600
20
331.623000
11
33.603400
21
331.417000
0
LINE
8
Layer 1
10
33.603400
20
331.417000
11
33.559600
21
331.212000
0
LINE
8
Layer 1
10
33.559600
20
331.212000
11
33.436200
21
331.042000
0
LINE
8
Layer 1
10
33.436200
20
331.042000
11
33.254100
21
330.937000
0
LINE
8
Layer 1
10
33.254100
20
330.937000
11
33.045100
21
330.915000
0
LINE
8
Layer 1
10
33.045100
20
330.915000
11
32.845200
21
330.980000
0
LINE
8
Layer 1
10
54.148000
20
331.649000
11
53.991900
21
331.790000
0
LINE
8
Layer 1
10
53.991900
20
331.790000
11
53.906400
21
331.982000
0
LINE
8
Layer 1
10
53.906400
20
331.982000
11
53.906400
21
332.192000
0
LINE
8
Layer 1
10
53.906400
20
332.192000
11
53.991900
21
332.384000
0
LINE
8
Layer 1
10
53.991900
20
332.384000
11
54.148000
21
332.524000
0
LINE
8
Layer 1
10
54.148000
20
332.524000
11
54.347900
21
332.589000
0
LINE
8
Layer 1
10
54.347900
20
332.589000
11
54.556900
21
332.567000
0
LINE
8
Layer 1
10
54.556900
20
332.567000
11
54.739000
21
332.462000
0
LINE
8
Layer 1
10
54.739000
20
332.462000
11
54.862500
21
332.292000
0
LINE
8
Layer 1
10
54.862500
20
332.292000
11
54.906200
21
332.087000
0
LINE
8
Layer 1
10
54.906200
20
332.087000
11
54.862500
21
331.881000
0
LINE
8
Layer 1
10
54.862500
20
331.881000
11
54.739000
21
331.711000
0
LINE
8
Layer 1
10
54.739000
20
331.711000
11
54.556900
21
331.606000
0
LINE
8
Layer 1
10
54.556900
20
331.606000
11
54.347900
21
331.584000
0
LINE
8
Layer 1
10
54.347900
20
331.584000
11
54.148000
21
331.649000
0
LINE
8
Layer 1
10
30.540900
20
331.649000
11
30.384700
21
331.790000
0
LINE
8
Layer 1
10
30.384700
20
331.790000
11
30.299200
21
331.982000
0
LINE
8
Layer 1
10
30.299200
20
331.982000
11
30.299200
21
332.192000
0
LINE
8
Layer 1
10
30.299200
20
332.192000
11
30.384700
21
332.384000
0
LINE
8
Layer 1
10
30.384700
20
332.384000
11
30.540900
21
332.524000
0
LINE
8
Layer 1
10
30.540900
20
332.524000
11
30.740800
21
332.589000
0
LINE
8
Layer 1
10
30.740800
20
332.589000
11
30.949800
21
332.567000
0
LINE
8
Layer 1
10
30.949800
20
332.567000
11
31.131800
21
332.462000
0
LINE
8
Layer 1
10
31.131800
20
332.462000
11
31.255300
21
332.292000
0
LINE
8
Layer 1
10
31.255300
20
332.292000
11
31.299000
21
332.087000
0
LINE
8
Layer 1
10
31.299000
20
332.087000
11
31.255300
21
331.881000
0
LINE
8
Layer 1
10
31.255300
20
331.881000
11
31.131800
21
331.711000
0
LINE
8
Layer 1
10
31.131800
20
331.711000
11
30.949800
21
331.606000
0
LINE
8
Layer 1
10
30.949800
20
331.606000
11
30.740800
21
331.584000
0
LINE
8
Layer 1
10
30.740800
20
331.584000
11
30.540900
21
331.649000
0
LINE
8
Layer 1
10
56.405800
20
332.462000
11
56.249600
21
332.602000
0
LINE
8
Layer 1
10
56.249600
20
332.602000
11
56.164100
21
332.794000
0
LINE
8
Layer 1
10
56.164100
20
332.794000
11
56.164100
21
333.005000
0
LINE
8
Layer 1
10
56.164100
20
333.005000
11
56.249600
21
333.197000
0
LINE
8
Layer 1
10
56.249600
20
333.197000
11
56.405800
21
333.337000
0
LINE
8
Layer 1
10
56.405800
20
333.337000
11
56.605600
21
333.402000
0
LINE
8
Layer 1
10
56.605600
20
333.402000
11
56.814700
21
333.380000
0
LINE
8
Layer 1
10
56.814700
20
333.380000
11
56.996700
21
333.275000
0
LINE
8
Layer 1
10
56.996700
20
333.275000
11
57.120200
21
333.105000
0
LINE
8
Layer 1
10
57.120200
20
333.105000
11
57.163900
21
332.900000
0
LINE
8
Layer 1
10
57.163900
20
332.900000
11
57.120200
21
332.694000
0
LINE
8
Layer 1
10
57.120200
20
332.694000
11
56.996700
21
332.524000
0
LINE
8
Layer 1
10
56.996700
20
332.524000
11
56.814700
21
332.419000
0
LINE
8
Layer 1
10
56.814700
20
332.419000
11
56.605600
21
332.397000
0
LINE
8
Layer 1
10
56.605600
20
332.397000
11
56.405800
21
332.462000
0
LINE
8
Layer 1
10
28.283200
20
332.462000
11
28.127000
21
332.602000
0
LINE
8
Layer 1
10
28.127000
20
332.602000
11
28.041500
21
332.794000
0
LINE
8
Layer 1
10
28.041500
20
332.794000
11
28.041500
21
333.005000
0
LINE
8
Layer 1
10
28.041500
20
333.005000
11
28.127000
21
333.197000
0
LINE
8
Layer 1
10
28.127000
20
333.197000
11
28.283200
21
333.337000
0
LINE
8
Layer 1
10
28.283200
20
333.337000
11
28.483000
21
333.402000
0
LINE
8
Layer 1
10
28.483000
20
333.402000
11
28.692100
21
333.380000
0
LINE
8
Layer 1
10
28.692100
20
333.380000
11
28.874100
21
333.275000
0
LINE
8
Layer 1
10
28.874100
20
333.275000
11
28.997600
21
333.105000
0
LINE
8
Layer 1
10
28.997600
20
333.105000
11
29.041300
21
332.900000
0
LINE
8
Layer 1
10
29.041300
20
332.900000
11
28.997600
21
332.694000
0
LINE
8
Layer 1
10
28.997600
20
332.694000
11
28.874100
21
332.524000
0
LINE
8
Layer 1
10
28.874100
20
332.524000
11
28.692100
21
332.419000
0
LINE
8
Layer 1
10
28.692100
20
332.419000
11
28.483000
21
332.397000
0
LINE
8
Layer 1
10
28.483000
20
332.397000
11
28.283200
21
332.462000
0
LINE
8
Layer 1
10
58.608000
20
333.415000
11
58.451800
21
333.555000
0
LINE
8
Layer 1
10
58.451800
20
333.555000
11
58.366400
21
333.747000
0
LINE
8
Layer 1
10
58.366400
20
333.747000
11
58.366400
21
333.958000
0
LINE
8
Layer 1
10
58.366400
20
333.958000
11
58.451800
21
334.150000
0
LINE
8
Layer 1
10
58.451800
20
334.150000
11
58.608000
21
334.290000
0
LINE
8
Layer 1
10
58.608000
20
334.290000
11
58.807900
21
334.355000
0
LINE
8
Layer 1
10
58.807900
20
334.355000
11
59.016900
21
334.333000
0
LINE
8
Layer 1
10
59.016900
20
334.333000
11
59.199000
21
334.228000
0
LINE
8
Layer 1
10
59.199000
20
334.228000
11
59.322500
21
334.058000
0
LINE
8
Layer 1
10
59.322500
20
334.058000
11
59.366200
21
333.853000
0
LINE
8
Layer 1
10
59.366200
20
333.853000
11
59.322500
21
333.647000
0
LINE
8
Layer 1
10
59.322500
20
333.647000
11
59.199000
21
333.477000
0
LINE
8
Layer 1
10
59.199000
20
333.477000
11
59.016900
21
333.372000
0
LINE
8
Layer 1
10
59.016900
20
333.372000
11
58.807900
21
333.350000
0
LINE
8
Layer 1
10
58.807900
20
333.350000
11
58.608000
21
333.415000
0
LINE
8
Layer 1
10
26.080900
20
333.415000
11
25.924700
21
333.555000
0
LINE
8
Layer 1
10
25.924700
20
333.555000
11
25.839200
21
333.747000
0
LINE
8
Layer 1
10
25.839200
20
333.747000
11
25.839200
21
333.958000
0
LINE
8
Layer 1
10
25.839200
20
333.958000
11
25.924700
21
334.150000
0
LINE
8
Layer 1
10
25.924700
20
334.150000
11
26.080900
21
334.290000
0
LINE
8
Layer 1
10
26.080900
20
334.290000
11
26.280800
21
334.355000
0
LINE
8
Layer 1
10
26.280800
20
334.355000
11
26.489800
21
334.333000
0
LINE
8
Layer 1
10
26.489800
20
334.333000
11
26.671800
21
334.228000
0
LINE
8
Layer 1
10
26.671800
20
334.228000
11
26.795300
21
334.058000
0
LINE
8
Layer 1
10
26.795300
20
334.058000
11
26.839100
21
333.853000
0
LINE
8
Layer 1
10
26.839100
20
333.853000
11
26.795300
21
333.647000
0
LINE
8
Layer 1
10
26.795300
20
333.647000
11
26.671800
21
333.477000
0
LINE
8
Layer 1
10
26.671800
20
333.477000
11
26.489800
21
333.372000
0
LINE
8
Layer 1
10
26.489800
20
333.372000
11
26.280800
21
333.350000
0
LINE
8
Layer 1
10
26.280800
20
333.350000
11
26.080900
21
333.415000
0
LINE
8
Layer 1
10
60.746100
20
334.504000
11
60.589900
21
334.645000
0
LINE
8
Layer 1
10
60.589900
20
334.645000
11
60.504400
21
334.837000
0
LINE
8
Layer 1
10
60.504400
20
334.837000
11
60.504400
21
335.047000
0
LINE
8
Layer 1
10
60.504400
20
335.047000
11
60.589900
21
335.239000
0
LINE
8
Layer 1
10
60.589900
20
335.239000
11
60.746100
21
335.380000
0
LINE
8
Layer 1
10
60.746100
20
335.380000
11
60.946000
21
335.445000
0
LINE
8
Layer 1
10
60.946000
20
335.445000
11
61.155000
21
335.423000
0
LINE
8
Layer 1
10
61.155000
20
335.423000
11
61.337000
21
335.318000
0
LINE
8
Layer 1
10
61.337000
20
335.318000
11
61.460500
21
335.148000
0
LINE
8
Layer 1
10
61.460500
20
335.148000
11
61.504200
21
334.942000
0
LINE
8
Layer 1
10
61.504200
20
334.942000
11
61.460500
21
334.736000
0
LINE
8
Layer 1
10
61.460500
20
334.736000
11
61.337000
21
334.566000
0
LINE
8
Layer 1
10
61.337000
20
334.566000
11
61.155000
21
334.461000
0
LINE
8
Layer 1
10
61.155000
20
334.461000
11
60.946000
21
334.439000
0
LINE
8
Layer 1
10
60.946000
20
334.439000
11
60.746100
21
334.504000
0
LINE
8
Layer 1
10
23.942800
20
334.504000
11
23.786700
21
334.645000
0
LINE
8
Layer 1
10
23.786700
20
334.645000
11
23.701200
21
334.837000
0
LINE
8
Layer 1
10
23.701200
20
334.837000
11
23.701200
21
335.047000
0
LINE
8
Layer 1
10
23.701200
20
335.047000
11
23.786700
21
335.239000
0
LINE
8
Layer 1
10
23.786700
20
335.239000
11
23.942800
21
335.380000
0
LINE
8
Layer 1
10
23.942800
20
335.380000
11
24.142700
21
335.445000
0
LINE
8
Layer 1
10
24.142700
20
335.445000
11
24.351700
21
335.423000
0
LINE
8
Layer 1
10
24.351700
20
335.423000
11
24.533800
21
335.318000
0
LINE
8
Layer 1
10
24.533800
20
335.318000
11
24.657300
21
335.148000
0
LINE
8
Layer 1
10
24.657300
20
335.148000
11
24.701000
21
334.942000
0
LINE
8
Layer 1
10
24.701000
20
334.942000
11
24.657300
21
334.736000
0
LINE
8
Layer 1
10
24.657300
20
334.736000
11
24.533800
21
334.566000
0
LINE
8
Layer 1
10
24.533800
20
334.566000
11
24.351700
21
334.461000
0
LINE
8
Layer 1
10
24.351700
20
334.461000
11
24.142700
21
334.439000
0
LINE
8
Layer 1
10
24.142700
20
334.439000
11
23.942800
21
334.504000
0
LINE
8
Layer 1
10
62.811500
20
335.726000
11
62.655300
21
335.866000
0
LINE
8
Layer 1
10
62.655300
20
335.866000
11
62.569900
21
336.058000
0
LINE
8
Layer 1
10
62.569900
20
336.058000
11
62.569900
21
336.269000
0
LINE
8
Layer 1
10
62.569900
20
336.269000
11
62.655300
21
336.461000
0
LINE
8
Layer 1
10
62.655300
20
336.461000
11
62.811500
21
336.601000
0
LINE
8
Layer 1
10
62.811500
20
336.601000
11
63.011400
21
336.666000
0
LINE
8
Layer 1
10
63.011400
20
336.666000
11
63.220400
21
336.644000
0
LINE
8
Layer 1
10
63.220400
20
336.644000
11
63.402500
21
336.539000
0
LINE
8
Layer 1
10
63.402500
20
336.539000
11
63.526000
21
336.369000
0
LINE
8
Layer 1
10
63.526000
20
336.369000
11
63.569700
21
336.163000
0
LINE
8
Layer 1
10
63.569700
20
336.163000
11
63.526000
21
335.958000
0
LINE
8
Layer 1
10
63.526000
20
335.958000
11
63.402500
21
335.788000
0
LINE
8
Layer 1
10
63.402500
20
335.788000
11
63.220400
21
335.683000
0
LINE
8
Layer 1
10
63.220400
20
335.683000
11
63.011400
21
335.661000
0
LINE
8
Layer 1
10
63.011400
20
335.661000
11
62.811500
21
335.726000
0
LINE
8
Layer 1
10
21.877400
20
335.726000
11
21.721200
21
335.866000
0
LINE
8
Layer 1
10
21.721200
20
335.866000
11
21.635700
21
336.058000
0
LINE
8
Layer 1
10
21.635700
20
336.058000
11
21.635700
21
336.269000
0
LINE
8
Layer 1
10
21.635700
20
336.269000
11
21.721200
21
336.461000
0
LINE
8
Layer 1
10
21.721200
20
336.461000
11
21.877400
21
336.601000
0
LINE
8
Layer 1
10
21.877400
20
336.601000
11
22.077300
21
336.666000
0
LINE
8
Layer 1
10
22.077300
20
336.666000
11
22.286300
21
336.644000
0
LINE
8
Layer 1
10
22.286300
20
336.644000
11
22.468300
21
336.539000
0
LINE
8
Layer 1
10
22.468300
20
336.539000
11
22.591800
21
336.369000
0
LINE
8
Layer 1
10
22.591800
20
336.369000
11
22.635500
21
336.163000
0
LINE
8
Layer 1
10
22.635500
20
336.163000
11
22.591800
21
335.958000
0
LINE
8
Layer 1
10
22.591800
20
335.958000
11
22.468300
21
335.788000
0
LINE
8
Layer 1
10
22.468300
20
335.788000
11
22.286300
21
335.683000
0
LINE
8
Layer 1
10
22.286300
20
335.683000
11
22.077300
21
335.661000
0
LINE
8
Layer 1
10
22.077300
20
335.661000
11
21.877400
21
335.726000
0
LINE
8
Layer 1
10
64.796200
20
337.074000
11
64.640000
21
337.215000
0
LINE
8
Layer 1
10
64.640000
20
337.215000
11
64.554500
21
337.407000
0
LINE
8
Layer 1
10
64.554500
20
337.407000
11
64.554500
21
337.617000
0
LINE
8
Layer 1
10
64.554500
20
337.617000
11
64.640000
21
337.809000
0
LINE
8
Layer 1
10
64.640000
20
337.809000
11
64.796200
21
337.950000
0
LINE
8
Layer 1
10
64.796200
20
337.950000
11
64.996100
21
338.015000
0
LINE
8
Layer 1
10
64.996100
20
338.015000
11
65.205100
21
337.993000
0
LINE
8
Layer 1
10
65.205100
20
337.993000
11
65.387100
21
337.888000
0
LINE
8
Layer 1
10
65.387100
20
337.888000
11
65.510600
21
337.718000
0
LINE
8
Layer 1
10
65.510600
20
337.718000
11
65.554400
21
337.512000
0
LINE
8
Layer 1
10
65.554400
20
337.512000
11
65.510600
21
337.307000
0
LINE
8
Layer 1
10
65.510600
20
337.307000
11
65.387100
21
337.137000
0
LINE
8
Layer 1
10
65.387100
20
337.137000
11
65.205100
21
337.032000
0
LINE
8
Layer 1
10
65.205100
20
337.032000
11
64.996100
21
337.010000
0
LINE
8
Layer 1
10
64.996100
20
337.010000
11
64.796200
21
337.074000
0
LINE
8
Layer 1
10
19.892700
20
337.074000
11
19.736500
21
337.215000
0
LINE
8
Layer 1
10
19.736500
20
337.215000
11
19.651100
21
337.407000
0
LINE
8
Layer 1
10
19.651100
20
337.407000
11
19.651100
21
337.617000
0
LINE
8
Layer 1
10
19.651100
20
337.617000
11
19.736500
21
337.809000
0
LINE
8
Layer 1
10
19.736500
20
337.809000
11
19.892700
21
337.950000
0
LINE
8
Layer 1
10
19.892700
20
337.950000
11
20.092600
21
338.015000
0
LINE
8
Layer 1
10
20.092600
20
338.015000
11
20.301600
21
337.993000
0
LINE
8
Layer 1
10
20.301600
20
337.993000
11
20.483700
21
337.888000
0
LINE
8
Layer 1
10
20.483700
20
337.888000
11
20.607200
21
337.718000
0
LINE
8
Layer 1
10
20.607200
20
337.718000
11
20.650900
21
337.512000
0
LINE
8
Layer 1
10
20.650900
20
337.512000
11
20.607200
21
337.307000
0
LINE
8
Layer 1
10
20.607200
20
337.307000
11
20.483700
21
337.137000
0
LINE
8
Layer 1
10
20.483700
20
337.137000
11
20.301600
21
337.032000
0
LINE
8
Layer 1
10
20.301600
20
337.032000
11
20.092600
21
337.010000
0
LINE
8
Layer 1
10
20.092600
20
337.010000
11
19.892700
21
337.074000
0
LINE
8
Layer 1
10
66.692300
20
338.545000
11
66.536100
21
338.686000
0
LINE
8
Layer 1
10
66.536100
20
338.686000
11
66.450600
21
338.878000
0
LINE
8
Layer 1
10
66.450600
20
338.878000
11
66.450600
21
339.088000
0
LINE
8
Layer 1
10
66.450600
20
339.088000
11
66.536100
21
339.280000
0
LINE
8
Layer 1
10
66.536100
20
339.280000
11
66.692300
21
339.421000
0
LINE
8
Layer 1
10
66.692300
20
339.421000
11
66.892100
21
339.486000
0
LINE
8
Layer 1
10
66.892100
20
339.486000
11
67.101200
21
339.464000
0
LINE
8
Layer 1
10
67.101200
20
339.464000
11
67.283200
21
339.359000
0
LINE
8
Layer 1
10
67.283200
20
339.359000
11
67.406700
21
339.189000
0
LINE
8
Layer 1
10
67.406700
20
339.189000
11
67.450400
21
338.983000
0
LINE
8
Layer 1
10
67.450400
20
338.983000
11
67.406700
21
338.777000
0
LINE
8
Layer 1
10
67.406700
20
338.777000
11
67.283200
21
338.607000
0
LINE
8
Layer 1
10
67.283200
20
338.607000
11
67.101200
21
338.502000
0
LINE
8
Layer 1
10
67.101200
20
338.502000
11
66.892100
21
338.480000
0
LINE
8
Layer 1
10
66.892100
20
338.480000
11
66.692300
21
338.545000
0
LINE
8
Layer 1
10
17.996700
20
338.545000
11
17.840500
21
338.686000
0
LINE
8
Layer 1
10
17.840500
20
338.686000
11
17.755000
21
338.878000
0
LINE
8
Layer 1
10
17.755000
20
338.878000
11
17.755000
21
339.088000
0
LINE
8
Layer 1
10
17.755000
20
339.088000
11
17.840500
21
339.280000
0
LINE
8
Layer 1
10
17.840500
20
339.280000
11
17.996700
21
339.421000
0
LINE
8
Layer 1
10
17.996700
20
339.421000
11
18.196500
21
339.486000
0
LINE
8
Layer 1
10
18.196500
20
339.486000
11
18.405600
21
339.464000
0
LINE
8
Layer 1
10
18.405600
20
339.464000
11
18.587600
21
339.359000
0
LINE
8
Layer 1
10
18.587600
20
339.359000
11
18.711100
21
339.189000
0
LINE
8
Layer 1
10
18.711100
20
339.189000
11
18.754800
21
338.983000
0
LINE
8
Layer 1
10
18.754800
20
338.983000
11
18.711100
21
338.777000
0
LINE
8
Layer 1
10
18.711100
20
338.777000
11
18.587600
21
338.607000
0
LINE
8
Layer 1
10
18.587600
20
338.607000
11
18.405600
21
338.502000
0
LINE
8
Layer 1
10
18.405600
20
338.502000
11
18.196500
21
338.480000
0
LINE
8
Layer 1
10
18.196500
20
338.480000
11
17.996700
21
338.545000
0
LINE
8
Layer 1
10
68.492200
20
340.132000
11
68.336000
21
340.273000
0
LINE
8
Layer 1
10
68.336000
20
340.273000
11
68.250600
21
340.465000
0
LINE
8
Layer 1
10
68.250600
20
340.465000
11
68.250600
21
340.675000
0
LINE
8
Layer 1
10
68.250600
20
340.675000
11
68.336000
21
340.867000
0
LINE
8
Layer 1
10
68.336000
20
340.867000
11
68.492200
21
341.008000
0
LINE
8
Layer 1
10
68.492200
20
341.008000
11
68.692100
21
341.072000
0
LINE
8
Layer 1
10
68.692100
20
341.072000
11
68.901100
21
341.051000
0
LINE
8
Layer 1
10
68.901100
20
341.051000
11
69.083200
21
340.945000
0
LINE
8
Layer 1
10
69.083200
20
340.945000
11
69.206700
21
340.775000
0
LINE
8
Layer 1
10
69.206700
20
340.775000
11
69.250400
21
340.570000
0
LINE
8
Layer 1
10
69.250400
20
340.570000
11
69.206700
21
340.364000
0
LINE
8
Layer 1
10
69.206700
20
340.364000
11
69.083200
21
340.194000
0
LINE
8
Layer 1
10
69.083200
20
340.194000
11
68.901100
21
340.089000
0
LINE
8
Layer 1
10
68.901100
20
340.089000
11
68.692100
21
340.067000
0
LINE
8
Layer 1
10
68.692100
20
340.067000
11
68.492200
21
340.132000
0
LINE
8
Layer 1
10
16.196700
20
340.132000
11
16.040500
21
340.273000
0
LINE
8
Layer 1
10
16.040500
20
340.273000
11
15.955000
21
340.465000
0
LINE
8
Layer 1
10
15.955000
20
340.465000
11
15.955000
21
340.675000
0
LINE
8
Layer 1
10
15.955000
20
340.675000
11
16.040500
21
340.867000
0
LINE
8
Layer 1
10
16.040500
20
340.867000
11
16.196700
21
341.008000
0
LINE
8
Layer 1
10
16.196700
20
341.008000
11
16.396600
21
341.072000
0
LINE
8
Layer 1
10
16.396600
20
341.072000
11
16.605600
21
341.051000
0
LINE
8
Layer 1
10
16.605600
20
341.051000
11
16.787600
21
340.945000
0
LINE
8
Layer 1
10
16.787600
20
340.945000
11
16.911100
21
340.775000
0
LINE
8
Layer 1
10
16.911100
20
340.775000
11
16.954800
21
340.570000
0
LINE
8
Layer 1
10
16.954800
20
340.570000
11
16.911100
21
340.364000
0
LINE
8
Layer 1
10
16.911100
20
340.364000
11
16.787600
21
340.194000
0
LINE
8
Layer 1
10
16.787600
20
340.194000
11
16.605600
21
340.089000
0
LINE
8
Layer 1
10
16.605600
20
340.089000
11
16.396600
21
340.067000
0
LINE
8
Layer 1
10
16.396600
20
340.067000
11
16.196700
21
340.132000
0
LINE
8
Layer 1
10
70.189000
20
341.829000
11
70.032800
21
341.970000
0
LINE
8
Layer 1
10
70.032800
20
341.970000
11
69.947300
21
342.162000
0
LINE
8
Layer 1
10
69.947300
20
342.162000
11
69.947300
21
342.372000
0
LINE
8
Layer 1
10
69.947300
20
342.372000
11
70.032800
21
342.564000
0
LINE
8
Layer 1
10
70.032800
20
342.564000
11
70.189000
21
342.704000
0
LINE
8
Layer 1
10
70.189000
20
342.704000
11
70.388900
21
342.769000
0
LINE
8
Layer 1
10
70.388900
20
342.769000
11
70.597900
21
342.747000
0
LINE
8
Layer 1
10
70.597900
20
342.747000
11
70.779900
21
342.642000
0
LINE
8
Layer 1
10
70.779900
20
342.642000
11
70.903400
21
342.472000
0
LINE
8
Layer 1
10
70.903400
20
342.472000
11
70.947200
21
342.267000
0
LINE
8
Layer 1
10
70.947200
20
342.267000
11
70.903400
21
342.061000
0
LINE
8
Layer 1
10
70.903400
20
342.061000
11
70.779900
21
341.891000
0
LINE
8
Layer 1
10
70.779900
20
341.891000
11
70.597900
21
341.786000
0
LINE
8
Layer 1
10
70.597900
20
341.786000
11
70.388900
21
341.764000
0
LINE
8
Layer 1
10
70.388900
20
341.764000
11
70.189000
21
341.829000
0
LINE
8
Layer 1
10
14.499900
20
341.829000
11
14.343700
21
341.970000
0
LINE
8
Layer 1
10
14.343700
20
341.970000
11
14.258300
21
342.162000
0
LINE
8
Layer 1
10
14.258300
20
342.162000
11
14.258300
21
342.372000
0
LINE
8
Layer 1
10
14.258300
20
342.372000
11
14.343700
21
342.564000
0
LINE
8
Layer 1
10
14.343700
20
342.564000
11
14.499900
21
342.704000
0
LINE
8
Layer 1
10
14.499900
20
342.704000
11
14.699800
21
342.769000
0
LINE
8
Layer 1
10
14.699800
20
342.769000
11
14.908800
21
342.747000
0
LINE
8
Layer 1
10
14.908800
20
342.747000
11
15.090900
21
342.642000
0
LINE
8
Layer 1
10
15.090900
20
342.642000
11
15.214400
21
342.472000
0
LINE
8
Layer 1
10
15.214400
20
342.472000
11
15.258100
21
342.267000
0
LINE
8
Layer 1
10
15.258100
20
342.267000
11
15.214400
21
342.061000
0
LINE
8
Layer 1
10
15.214400
20
342.061000
11
15.090900
21
341.891000
0
LINE
8
Layer 1
10
15.090900
20
341.891000
11
14.908800
21
341.786000
0
LINE
8
Layer 1
10
14.908800
20
341.786000
11
14.699800
21
341.764000
0
LINE
8
Layer 1
10
14.699800
20
341.764000
11
14.499900
21
341.829000
0
LINE
8
Layer 1
10
71.775900
20
343.629000
11
71.619700
21
343.769000
0
LINE
8
Layer 1
10
71.619700
20
343.769000
11
71.534200
21
343.961000
0
LINE
8
Layer 1
10
71.534200
20
343.961000
11
71.534200
21
344.172000
0
LINE
8
Layer 1
10
71.534200
20
344.172000
11
71.619700
21
344.364000
0
LINE
8
Layer 1
10
71.619700
20
344.364000
11
71.775900
21
344.504000
0
LINE
8
Layer 1
10
71.775900
20
344.504000
11
71.975800
21
344.569000
0
LINE
8
Layer 1
10
71.975800
20
344.569000
11
72.184800
21
344.547000
0
LINE
8
Layer 1
10
72.184800
20
344.547000
11
72.366800
21
344.442000
0
LINE
8
Layer 1
10
72.366800
20
344.442000
11
72.490300
21
344.272000
0
LINE
8
Layer 1
10
72.490300
20
344.272000
11
72.534000
21
344.067000
0
LINE
8
Layer 1
10
72.534000
20
344.067000
11
72.490300
21
343.861000
0
LINE
8
Layer 1
10
72.490300
20
343.861000
11
72.366800
21
343.691000
0
LINE
8
Layer 1
10
72.366800
20
343.691000
11
72.184800
21
343.586000
0
LINE
8
Layer 1
10
72.184800
20
343.586000
11
71.975800
21
343.564000
0
LINE
8
Layer 1
10
71.975800
20
343.564000
11
71.775900
21
343.629000
0
LINE
8
Layer 1
10
12.913000
20
343.629000
11
12.756900
21
343.769000
0
LINE
8
Layer 1
10
12.756900
20
343.769000
11
12.671400
21
343.961000
0
LINE
8
Layer 1
10
12.671400
20
343.961000
11
12.671400
21
344.172000
0
LINE
8
Layer 1
10
12.671400
20
344.172000
11
12.756900
21
344.364000
0
LINE
8
Layer 1
10
12.756900
20
344.364000
11
12.913000
21
344.504000
0
LINE
8
Layer 1
10
12.913000
20
344.504000
11
13.112900
21
344.569000
0
LINE
8
Layer 1
10
13.112900
20
344.569000
11
13.321900
21
344.547000
0
LINE
8
Layer 1
10
13.321900
20
344.547000
11
13.504000
21
344.442000
0
LINE
8
Layer 1
10
13.504000
20
344.442000
11
13.627500
21
344.272000
0
LINE
8
Layer 1
10
13.627500
20
344.272000
11
13.671200
21
344.067000
0
LINE
8
Layer 1
10
13.671200
20
344.067000
11
13.627500
21
343.861000
0
LINE
8
Layer 1
10
13.627500
20
343.861000
11
13.504000
21
343.691000
0
LINE
8
Layer 1
10
13.504000
20
343.691000
11
13.321900
21
343.586000
0
LINE
8
Layer 1
10
13.321900
20
343.586000
11
13.112900
21
343.564000
0
LINE
8
Layer 1
10
13.112900
20
343.564000
11
12.913000
21
343.629000
0
LINE
8
Layer 1
10
73.246600
20
345.525000
11
73.090400
21
345.666000
0
LINE
8
Layer 1
10
73.090400
20
345.666000
11
73.005000
21
345.858000
0
LINE
8
Layer 1
10
73.005000
20
345.858000
11
73.005000
21
346.068000
0
LINE
8
Layer 1
10
73.005000
20
346.068000
11
73.090400
21
346.260000
0
LINE
8
Layer 1
10
73.090400
20
346.260000
11
73.246600
21
346.400000
0
LINE
8
Layer 1
10
73.246600
20
346.400000
11
73.446500
21
346.465000
0
LINE
8
Layer 1
10
73.446500
20
346.465000
11
73.655500
21
346.443000
0
LINE
8
Layer 1
10
73.655500
20
346.443000
11
73.837600
21
346.338000
0
LINE
8
Layer 1
10
73.837600
20
346.338000
11
73.961100
21
346.168000
0
LINE
8
Layer 1
10
73.961100
20
346.168000
11
74.004800
21
345.963000
0
LINE
8
Layer 1
10
74.004800
20
345.963000
11
73.961100
21
345.757000
0
LINE
8
Layer 1
10
73.961100
20
345.757000
11
73.837500
21
345.587000
0
LINE
8
Layer 1
10
73.837500
20
345.587000
11
73.655500
21
345.482000
0
LINE
8
Layer 1
10
73.655500
20
345.482000
11
73.446500
21
345.460000
0
LINE
8
Layer 1
10
73.446500
20
345.460000
11
73.246600
21
345.525000
0
LINE
8
Layer 1
10
11.442300
20
345.525000
11
11.286100
21
345.666000
0
LINE
8
Layer 1
10
11.286100
20
345.666000
11
11.200600
21
345.858000
0
LINE
8
Layer 1
10
11.200600
20
345.858000
11
11.200600
21
346.068000
0
LINE
8
Layer 1
10
11.200600
20
346.068000
11
11.286100
21
346.260000
0
LINE
8
Layer 1
10
11.286100
20
346.260000
11
11.442300
21
346.400000
0
LINE
8
Layer 1
10
11.442300
20
346.400000
11
11.642200
21
346.465000
0
LINE
8
Layer 1
10
11.642200
20
346.465000
11
11.851200
21
346.443000
0
LINE
8
Layer 1
10
11.851200
20
346.443000
11
12.033200
21
346.338000
0
LINE
8
Layer 1
10
12.033200
20
346.338000
11
12.156800
21
346.168000
0
LINE
8
Layer 1
10
12.156800
20
346.168000
11
12.200400
21
345.963000
0
LINE
8
Layer 1
10
12.200400
20
345.963000
11
12.156800
21
345.757000
0
LINE
8
Layer 1
10
12.156800
20
345.757000
11
12.033200
21
345.587000
0
LINE
8
Layer 1
10
12.033200
20
345.587000
11
11.851200
21
345.482000
0
LINE
8
Layer 1
10
11.851200
20
345.482000
11
11.642200
21
345.460000
0
LINE
8
Layer 1
10
11.642200
20
345.460000
11
11.442300
21
345.525000
0
LINE
8
Layer 1
10
74.595400
20
347.510000
11
74.439200
21
347.650000
0
LINE
8
Layer 1
10
74.439200
20
347.650000
11
74.353700
21
347.842000
0
LINE
8
Layer 1
10
74.353700
20
347.842000
11
74.353700
21
348.052000
0
LINE
8
Layer 1
10
74.353700
20
348.052000
11
74.439200
21
348.244000
0
LINE
8
Layer 1
10
74.439200
20
348.244000
11
74.595400
21
348.385000
0
LINE
8
Layer 1
10
74.595400
20
348.385000
11
74.795300
21
348.450000
0
LINE
8
Layer 1
10
74.795300
20
348.450000
11
75.004300
21
348.428000
0
LINE
8
Layer 1
10
75.004300
20
348.428000
11
75.186300
21
348.323000
0
LINE
8
Layer 1
10
75.186300
20
348.323000
11
75.309900
21
348.153000
0
LINE
8
Layer 1
10
75.309900
20
348.153000
11
75.353500
21
347.947000
0
LINE
8
Layer 1
10
75.353500
20
347.947000
11
75.309900
21
347.742000
0
LINE
8
Layer 1
10
75.309900
20
347.742000
11
75.186300
21
347.572000
0
LINE
8
Layer 1
10
75.186300
20
347.572000
11
75.004300
21
347.467000
0
LINE
8
Layer 1
10
75.004300
20
347.467000
11
74.795300
21
347.445000
0
LINE
8
Layer 1
10
74.795300
20
347.445000
11
74.595400
21
347.510000
0
LINE
8
Layer 1
10
10.093500
20
347.510000
11
9.937330
21
347.650000
0
LINE
8
Layer 1
10
9.937330
20
347.650000
11
9.851850
21
347.842000
0
LINE
8
Layer 1
10
9.851850
20
347.842000
11
9.851850
21
348.052000
0
LINE
8
Layer 1
10
9.851850
20
348.052000
11
9.937330
21
348.244000
0
LINE
8
Layer 1
10
9.937330
20
348.244000
11
10.093500
21
348.385000
0
LINE
8
Layer 1
10
10.093500
20
348.385000
11
10.293400
21
348.450000
0
LINE
8
Layer 1
10
10.293400
20
348.450000
11
10.502400
21
348.428000
0
LINE
8
Layer 1
10
10.502400
20
348.428000
11
10.684400
21
348.323000
0
LINE
8
Layer 1
10
10.684400
20
348.323000
11
10.808000
21
348.153000
0
LINE
8
Layer 1
10
10.808000
20
348.153000
11
10.851700
21
347.947000
0
LINE
8
Layer 1
10
10.851700
20
347.947000
11
10.808000
21
347.742000
0
LINE
8
Layer 1
10
10.808000
20
347.742000
11
10.684400
21
347.572000
0
LINE
8
Layer 1
10
10.684400
20
347.572000
11
10.502400
21
347.467000
0
LINE
8
Layer 1
10
10.502400
20
347.467000
11
10.293400
21
347.445000
0
LINE
8
Layer 1
10
10.293400
20
347.445000
11
10.093500
21
347.510000
0
LINE
8
Layer 1
10
75.816900
20
349.575000
11
75.660700
21
349.716000
0
LINE
8
Layer 1
10
75.660700
20
349.716000
11
75.575200
21
349.908000
0
LINE
8
Layer 1
10
75.575200
20
349.908000
11
75.575200
21
350.118000
0
LINE
8
Layer 1
10
75.575200
20
350.118000
11
75.660700
21
350.310000
0
LINE
8
Layer 1
10
75.660700
20
350.310000
11
75.816900
21
350.450000
0
LINE
8
Layer 1
10
75.816900
20
350.450000
11
76.016800
21
350.515000
0
LINE
8
Layer 1
10
76.016800
20
350.515000
11
76.225800
21
350.493000
0
LINE
8
Layer 1
10
76.225800
20
350.493000
11
76.407800
21
350.388000
0
LINE
8
Layer 1
10
76.407800
20
350.388000
11
76.531300
21
350.218000
0
LINE
8
Layer 1
10
76.531300
20
350.218000
11
76.575100
21
350.013000
0
LINE
8
Layer 1
10
76.575100
20
350.013000
11
76.531300
21
349.807000
0
LINE
8
Layer 1
10
76.531300
20
349.807000
11
76.407800
21
349.637000
0
LINE
8
Layer 1
10
76.407800
20
349.637000
11
76.225800
21
349.532000
0
LINE
8
Layer 1
10
76.225800
20
349.532000
11
76.016800
21
349.510000
0
LINE
8
Layer 1
10
76.016800
20
349.510000
11
75.816900
21
349.575000
0
LINE
8
Layer 1
10
8.872020
20
349.575000
11
8.715840
21
349.716000
0
LINE
8
Layer 1
10
8.715840
20
349.716000
11
8.630360
21
349.908000
0
LINE
8
Layer 1
10
8.630360
20
349.908000
11
8.630360
21
350.118000
0
LINE
8
Layer 1
10
8.630360
20
350.118000
11
8.715840
21
350.310000
0
LINE
8
Layer 1
10
8.715840
20
350.310000
11
8.872020
21
350.450000
0
LINE
8
Layer 1
10
8.872020
20
350.450000
11
9.071880
21
350.515000
0
LINE
8
Layer 1
10
9.071880
20
350.515000
11
9.280930
21
350.493000
0
LINE
8
Layer 1
10
9.280930
20
350.493000
11
9.462950
21
350.388000
0
LINE
8
Layer 1
10
9.462950
20
350.388000
11
9.586460
21
350.218000
0
LINE
8
Layer 1
10
9.586460
20
350.218000
11
9.630170
21
350.013000
0
LINE
8
Layer 1
10
9.630170
20
350.013000
11
9.586460
21
349.807000
0
LINE
8
Layer 1
10
9.586460
20
349.807000
11
9.462950
21
349.637000
0
LINE
8
Layer 1
10
9.462950
20
349.637000
11
9.280930
21
349.532000
0
LINE
8
Layer 1
10
9.280930
20
349.532000
11
9.071880
21
349.510000
0
LINE
8
Layer 1
10
9.071880
20
349.510000
11
8.872020
21
349.575000
0
LINE
8
Layer 1
10
76.906300
20
351.713000
11
76.750100
21
351.854000
0
LINE
8
Layer 1
10
76.750100
20
351.854000
11
76.664600
21
352.046000
0
LINE
8
Layer 1
10
76.664600
20
352.046000
11
76.664600
21
352.256000
0
LINE
8
Layer 1
10
76.664600
20
352.256000
11
76.750100
21
352.448000
0
LINE
8
Layer 1
10
76.750100
20
352.448000
11
76.906300
21
352.589000
0
LINE
8
Layer 1
10
76.906300
20
352.589000
11
77.106200
21
352.653000
0
LINE
8
Layer 1
10
77.106200
20
352.653000
11
77.315200
21
352.632000
0
LINE
8
Layer 1
10
77.315200
20
352.632000
11
77.497200
21
352.526000
0
LINE
8
Layer 1
10
77.497200
20
352.526000
11
77.620800
21
352.356000
0
LINE
8
Layer 1
10
77.620800
20
352.356000
11
77.664400
21
352.151000
0
LINE
8
Layer 1
10
77.664400
20
352.151000
11
77.620800
21
351.945000
0
LINE
8
Layer 1
10
77.620800
20
351.945000
11
77.497200
21
351.775000
0
LINE
8
Layer 1
10
77.497200
20
351.775000
11
77.315200
21
351.670000
0
LINE
8
Layer 1
10
77.315200
20
351.670000
11
77.106200
21
351.648000
0
LINE
8
Layer 1
10
77.106200
20
351.648000
11
76.906300
21
351.713000
0
LINE
8
Layer 1
10
7.782620
20
351.713000
11
7.626430
21
351.854000
0
LINE
8
Layer 1
10
7.626430
20
351.854000
11
7.540950
21
352.046000
0
LINE
8
Layer 1
10
7.540950
20
352.046000
11
7.540950
21
352.256000
0
LINE
8
Layer 1
10
7.540950
20
352.256000
11
7.626430
21
352.448000
0
LINE
8
Layer 1
10
7.626430
20
352.448000
11
7.782620
21
352.589000
0
LINE
8
Layer 1
10
7.782620
20
352.589000
11
7.982480
21
352.653000
0
LINE
8
Layer 1
10
7.982480
20
352.653000
11
8.191530
21
352.632000
0
LINE
8
Layer 1
10
8.191530
20
352.632000
11
8.373570
21
352.526000
0
LINE
8
Layer 1
10
8.373570
20
352.526000
11
8.497060
21
352.356000
0
LINE
8
Layer 1
10
8.497060
20
352.356000
11
8.540770
21
352.151000
0
LINE
8
Layer 1
10
8.540770
20
352.151000
11
8.497070
21
351.945000
0
LINE
8
Layer 1
10
8.497070
20
351.945000
11
8.373540
21
351.775000
0
LINE
8
Layer 1
10
8.373540
20
351.775000
11
8.191530
21
351.670000
0
LINE
8
Layer 1
10
8.191530
20
351.670000
11
7.982480
21
351.648000
0
LINE
8
Layer 1
10
7.982480
20
351.648000
11
7.782620
21
351.713000
0
LINE
8
Layer 1
10
77.859300
20
353.915000
11
77.703100
21
354.056000
0
LINE
8
Layer 1
10
77.703100
20
354.056000
11
77.617600
21
354.248000
0
LINE
8
Layer 1
10
77.617600
20
354.248000
11
77.617600
21
354.458000
0
LINE
8
Layer 1
10
77.617600
20
354.458000
11
77.703100
21
354.650000
0
LINE
8
Layer 1
10
77.703100
20
354.650000
11
77.859300
21
354.791000
0
LINE
8
Layer 1
10
77.859300
20
354.791000
11
78.059200
21
354.856000
0
LINE
8
Layer 1
10
78.059200
20
354.856000
11
78.268200
21
354.834000
0
LINE
8
Layer 1
10
78.268200
20
354.834000
11
78.450200
21
354.729000
0
LINE
8
Layer 1
10
78.450200
20
354.729000
11
78.573700
21
354.559000
0
LINE
8
Layer 1
10
78.573700
20
354.559000
11
78.617400
21
354.353000
0
LINE
8
Layer 1
10
78.617400
20
354.353000
11
78.573700
21
354.147000
0
LINE
8
Layer 1
10
78.573700
20
354.147000
11
78.450200
21
353.977000
0
LINE
8
Layer 1
10
78.450200
20
353.977000
11
78.268200
21
353.872000
0
LINE
8
Layer 1
10
78.268200
20
353.872000
11
78.059200
21
353.850000
0
LINE
8
Layer 1
10
78.059200
20
353.850000
11
77.859300
21
353.915000
0
LINE
8
Layer 1
10
6.829640
20
353.915000
11
6.673450
21
354.056000
0
LINE
8
Layer 1
10
6.673450
20
354.056000
11
6.587950
21
354.248000
0
LINE
8
Layer 1
10
6.587950
20
354.248000
11
6.587950
21
354.458000
0
LINE
8
Layer 1
10
6.587950
20
354.458000
11
6.673450
21
354.650000
0
LINE
8
Layer 1
10
6.673450
20
354.650000
11
6.829640
21
354.791000
0
LINE
8
Layer 1
10
6.829640
20
354.791000
11
7.029480
21
354.856000
0
LINE
8
Layer 1
10
7.029480
20
354.856000
11
7.238540
21
354.834000
0
LINE
8
Layer 1
10
7.238540
20
354.834000
11
7.420560
21
354.729000
0
LINE
8
Layer 1
10
7.420560
20
354.729000
11
7.544080
21
354.559000
0
LINE
8
Layer 1
10
7.544080
20
354.559000
11
7.587770
21
354.353000
0
LINE
8
Layer 1
10
7.587770
20
354.353000
11
7.544080
21
354.147000
0
LINE
8
Layer 1
10
7.544080
20
354.147000
11
7.420560
21
353.977000
0
LINE
8
Layer 1
10
7.420560
20
353.977000
11
7.238540
21
353.872000
0
LINE
8
Layer 1
10
7.238540
20
353.872000
11
7.029480
21
353.850000
0
LINE
8
Layer 1
10
7.029480
20
353.850000
11
6.829640
21
353.915000
0
LINE
8
Layer 1
10
78.672100
20
356.173000
11
78.516000
21
356.314000
0
LINE
8
Layer 1
10
78.516000
20
356.314000
11
78.430500
21
356.506000
0
LINE
8
Layer 1
10
78.430500
20
356.506000
11
78.430500
21
356.716000
0
LINE
8
Layer 1
10
78.430500
20
356.716000
11
78.516000
21
356.908000
0
LINE
8
Layer 1
10
78.516000
20
356.908000
11
78.672100
21
357.049000
0
LINE
8
Layer 1
10
78.672100
20
357.049000
11
78.872000
21
357.113000
0
LINE
8
Layer 1
10
78.872000
20
357.113000
11
79.081100
21
357.091000
0
LINE
8
Layer 1
10
79.081100
20
357.091000
11
79.263100
21
356.986000
0
LINE
8
Layer 1
10
79.263100
20
356.986000
11
79.386600
21
356.816000
0
LINE
8
Layer 1
10
79.386600
20
356.816000
11
79.430300
21
356.611000
0
LINE
8
Layer 1
10
79.430300
20
356.611000
11
79.386600
21
356.405000
0
LINE
8
Layer 1
10
79.386600
20
356.405000
11
79.263100
21
356.235000
0
LINE
8
Layer 1
10
79.263100
20
356.235000
11
79.081100
21
356.130000
0
LINE
8
Layer 1
10
79.081100
20
356.130000
11
78.872000
21
356.108000
0
LINE
8
Layer 1
10
78.872000
20
356.108000
11
78.672100
21
356.173000
0
LINE
8
Layer 1
10
6.016800
20
356.173000
11
5.860610
21
356.314000
0
LINE
8
Layer 1
10
5.860610
20
356.314000
11
5.775120
21
356.506000
0
LINE
8
Layer 1
10
5.775120
20
356.506000
11
5.775120
21
356.716000
0
LINE
8
Layer 1
10
5.775120
20
356.716000
11
5.860610
21
356.908000
0
LINE
8
Layer 1
10
5.860610
20
356.908000
11
6.016800
21
357.049000
0
LINE
8
Layer 1
10
6.016800
20
357.049000
11
6.216640
21
357.113000
0
LINE
8
Layer 1
10
6.216640
20
357.113000
11
6.425700
21
357.091000
0
LINE
8
Layer 1
10
6.425700
20
357.091000
11
6.607730
21
356.986000
0
LINE
8
Layer 1
10
6.607730
20
356.986000
11
6.731250
21
356.816000
0
LINE
8
Layer 1
10
6.731250
20
356.816000
11
6.774930
21
356.611000
0
LINE
8
Layer 1
10
6.774930
20
356.611000
11
6.731250
21
356.405000
0
LINE
8
Layer 1
10
6.731250
20
356.405000
11
6.607730
21
356.235000
0
LINE
8
Layer 1
10
6.607730
20
356.235000
11
6.425700
21
356.130000
0
LINE
8
Layer 1
10
6.425700
20
356.130000
11
6.216640
21
356.108000
0
LINE
8
Layer 1
10
6.216640
20
356.108000
11
6.016800
21
356.173000
0
LINE
8
Layer 1
10
79.341600
20
358.477000
11
79.185400
21
358.618000
0
LINE
8
Layer 1
10
79.185400
20
358.618000
11
79.099900
21
358.810000
0
LINE
8
Layer 1
10
79.099900
20
358.810000
11
79.099900
21
359.020000
0
LINE
8
Layer 1
10
79.099900
20
359.020000
11
79.185400
21
359.212000
0
LINE
8
Layer 1
10
79.185400
20
359.212000
11
79.341600
21
359.353000
0
LINE
8
Layer 1
10
79.341600
20
359.353000
11
79.541500
21
359.418000
0
LINE
8
Layer 1
10
79.541500
20
359.418000
11
79.750500
21
359.396000
0
LINE
8
Layer 1
10
79.750500
20
359.396000
11
79.932500
21
359.291000
0
LINE
8
Layer 1
10
79.932500
20
359.291000
11
80.056100
21
359.121000
0
LINE
8
Layer 1
10
80.056100
20
359.121000
11
80.099700
21
358.915000
0
LINE
8
Layer 1
10
80.099700
20
358.915000
11
80.056100
21
358.710000
0
LINE
8
Layer 1
10
80.056100
20
358.710000
11
79.932500
21
358.540000
0
LINE
8
Layer 1
10
79.932500
20
358.540000
11
79.750500
21
358.434000
0
LINE
8
Layer 1
10
79.750500
20
358.434000
11
79.541500
21
358.412000
0
LINE
8
Layer 1
10
79.541500
20
358.412000
11
79.341600
21
358.477000
0
LINE
8
Layer 1
10
5.347320
20
358.477000
11
5.191130
21
358.618000
0
LINE
8
Layer 1
10
5.191130
20
358.618000
11
5.105650
21
358.810000
0
LINE
8
Layer 1
10
5.105650
20
358.810000
11
5.105650
21
359.020000
0
LINE
8
Layer 1
10
5.105650
20
359.020000
11
5.191130
21
359.212000
0
LINE
8
Layer 1
10
5.191130
20
359.212000
11
5.347320
21
359.353000
0
LINE
8
Layer 1
10
5.347320
20
359.353000
11
5.547180
21
359.418000
0
LINE
8
Layer 1
10
5.547180
20
359.418000
11
5.756230
21
359.396000
0
LINE
8
Layer 1
10
5.756230
20
359.396000
11
5.938250
21
359.291000
0
LINE
8
Layer 1
10
5.938250
20
359.291000
11
6.061750
21
359.121000
0
LINE
8
Layer 1
10
6.061750
20
359.121000
11
6.105470
21
358.915000
0
LINE
8
Layer 1
10
6.105470
20
358.915000
11
6.061750
21
358.710000
0
LINE
8
Layer 1
10
6.061750
20
358.710000
11
5.938250
21
358.540000
0
LINE
8
Layer 1
10
5.938250
20
358.540000
11
5.756230
21
358.434000
0
LINE
8
Layer 1
10
5.756230
20
358.434000
11
5.547180
21
358.412000
0
LINE
8
Layer 1
10
5.547180
20
358.412000
11
5.347320
21
358.477000
0
LINE
8
Layer 1
10
79.865100
20
360.819000
11
79.708900
21
360.960000
0
LINE
8
Layer 1
10
79.708900
20
360.960000
11
79.623400
21
361.152000
0
LINE
8
Layer 1
10
79.623400
20
361.152000
11
79.623400
21
361.362000
0
LINE
8
Layer 1
10
79.623400
20
361.362000
11
79.708900
21
361.554000
0
LINE
8
Layer 1
10
79.708900
20
361.554000
11
79.865100
21
361.695000
0
LINE
8
Layer 1
10
79.865100
20
361.695000
11
80.064900
21
361.760000
0
LINE
8
Layer 1
10
80.064900
20
361.760000
11
80.274000
21
361.738000
0
LINE
8
Layer 1
10
80.274000
20
361.738000
11
80.456000
21
361.633000
0
LINE
8
Layer 1
10
80.456000
20
361.633000
11
80.579500
21
361.463000
0
LINE
8
Layer 1
10
80.579500
20
361.463000
11
80.623200
21
361.257000
0
LINE
8
Layer 1
10
80.623200
20
361.257000
11
80.579500
21
361.051000
0
LINE
8
Layer 1
10
80.579500
20
361.051000
11
80.456000
21
360.881000
0
LINE
8
Layer 1
10
80.456000
20
360.881000
11
80.274000
21
360.776000
0
LINE
8
Layer 1
10
80.274000
20
360.776000
11
80.064900
21
360.754000
0
LINE
8
Layer 1
10
80.064900
20
360.754000
11
79.865100
21
360.819000
0
LINE
8
Layer 1
10
4.823870
20
360.819000
11
4.667680
21
360.960000
0
LINE
8
Layer 1
10
4.667680
20
360.960000
11
4.582200
21
361.152000
0
LINE
8
Layer 1
10
4.582200
20
361.152000
11
4.582200
21
361.362000
0
LINE
8
Layer 1
10
4.582200
20
361.362000
11
4.667680
21
361.554000
0
LINE
8
Layer 1
10
4.667680
20
361.554000
11
4.823870
21
361.695000
0
LINE
8
Layer 1
10
4.823870
20
361.695000
11
5.023730
21
361.760000
0
LINE
8
Layer 1
10
5.023730
20
361.760000
11
5.232770
21
361.738000
0
LINE
8
Layer 1
10
5.232770
20
361.738000
11
5.414790
21
361.633000
0
LINE
8
Layer 1
10
5.414790
20
361.633000
11
5.538310
21
361.463000
0
LINE
8
Layer 1
10
5.538310
20
361.463000
11
5.582000
21
361.257000
0
LINE
8
Layer 1
10
5.582000
20
361.257000
11
5.538310
21
361.051000
0
LINE
8
Layer 1
10
5.538310
20
361.051000
11
5.414790
21
360.881000
0
LINE
8
Layer 1
10
5.414790
20
360.881000
11
5.232770
21
360.776000
0
LINE
8
Layer 1
10
5.232770
20
360.776000
11
5.023730
21
360.754000
0
LINE
8
Layer 1
10
5.023730
20
360.754000
11
4.823870
21
360.819000
0
LINE
8
Layer 1
10
38.689700
20
359.007000
11
38.689700
21
361.822000
0
LINE
8
Layer 1
10
38.689700
20
361.822000
11
46.504700
21
361.822000
0
LINE
8
Layer 1
10
46.504700
20
361.822000
11
46.504700
21
359.007000
0
LINE
8
Layer 1
10
46.504700
20
359.007000
11
38.689700
21
359.007000
0
LINE
8
Layer 1
10
80.240400
20
363.189000
11
80.084300
21
363.330000
0
LINE
8
Layer 1
10
80.084300
20
363.330000
11
79.998800
21
363.522000
0
LINE
8
Layer 1
10
79.998800
20
363.522000
11
79.998800
21
363.732000
0
LINE
8
Layer 1
10
79.998800
20
363.732000
11
80.084300
21
363.924000
0
LINE
8
Layer 1
10
80.084300
20
363.924000
11
80.240400
21
364.065000
0
LINE
8
Layer 1
10
80.240400
20
364.065000
11
80.440300
21
364.130000
0
LINE
8
Layer 1
10
80.440300
20
364.130000
11
80.649400
21
364.108000
0
LINE
8
Layer 1
10
80.649400
20
364.108000
11
80.831400
21
364.003000
0
LINE
8
Layer 1
10
80.831400
20
364.003000
11
80.954900
21
363.833000
0
LINE
8
Layer 1
10
80.954900
20
363.833000
11
80.998600
21
363.627000
0
LINE
8
Layer 1
10
80.998600
20
363.627000
11
80.954900
21
363.421000
0
LINE
8
Layer 1
10
80.954900
20
363.421000
11
80.831400
21
363.251000
0
LINE
8
Layer 1
10
80.831400
20
363.251000
11
80.649400
21
363.146000
0
LINE
8
Layer 1
10
80.649400
20
363.146000
11
80.440300
21
363.124000
0
LINE
8
Layer 1
10
80.440300
20
363.124000
11
80.240400
21
363.189000
0
LINE
8
Layer 1
10
4.448490
20
363.189000
11
4.292300
21
363.330000
0
LINE
8
Layer 1
10
4.292300
20
363.330000
11
4.206820
21
363.522000
0
LINE
8
Layer 1
10
4.206820
20
363.522000
11
4.206820
21
363.732000
0
LINE
8
Layer 1
10
4.206820
20
363.732000
11
4.292300
21
363.924000
0
LINE
8
Layer 1
10
4.292300
20
363.924000
11
4.448490
21
364.065000
0
LINE
8
Layer 1
10
4.448490
20
364.065000
11
4.648350
21
364.130000
0
LINE
8
Layer 1
10
4.648350
20
364.130000
11
4.857390
21
364.108000
0
LINE
8
Layer 1
10
4.857390
20
364.108000
11
5.039410
21
364.003000
0
LINE
8
Layer 1
10
5.039410
20
364.003000
11
5.162930
21
363.833000
0
LINE
8
Layer 1
10
5.162930
20
363.833000
11
5.206620
21
363.627000
0
LINE
8
Layer 1
10
5.206620
20
363.627000
11
5.162930
21
363.421000
0
LINE
8
Layer 1
10
5.162930
20
363.421000
11
5.039410
21
363.251000
0
LINE
8
Layer 1
10
5.039410
20
363.251000
11
4.857390
21
363.146000
0
LINE
8
Layer 1
10
4.857390
20
363.146000
11
4.648350
21
363.124000
0
LINE
8
Layer 1
10
4.648350
20
363.124000
11
4.448490
21
363.189000
0
LINE
8
Layer 1
10
80.466300
20
365.578000
11
80.310100
21
365.719000
0
LINE
8
Layer 1
10
80.310100
20
365.719000
11
80.224600
21
365.911000
0
LINE
8
Layer 1
10
80.224600
20
365.911000
11
80.224600
21
366.121000
0
LINE
8
Layer 1
10
80.224600
20
366.121000
11
80.310100
21
366.313000
0
LINE
8
Layer 1
10
80.310100
20
366.313000
11
80.466300
21
366.454000
0
LINE
8
Layer 1
10
80.466300
20
366.454000
11
80.666100
21
366.519000
0
LINE
8
Layer 1
10
80.666100
20
366.519000
11
80.875200
21
366.497000
0
LINE
8
Layer 1
10
80.875200
20
366.497000
11
81.057200
21
366.392000
0
LINE
8
Layer 1
10
81.057200
20
366.392000
11
81.180700
21
366.222000
0
LINE
8
Layer 1
10
81.180700
20
366.222000
11
81.224400
21
366.016000
0
LINE
8
Layer 1
10
81.224400
20
366.016000
11
81.180700
21
365.810000
0
LINE
8
Layer 1
10
81.180700
20
365.810000
11
81.057200
21
365.640000
0
LINE
8
Layer 1
10
81.057200
20
365.640000
11
80.875200
21
365.535000
0
LINE
8
Layer 1
10
80.875200
20
365.535000
11
80.666100
21
365.513000
0
LINE
8
Layer 1
10
80.666100
20
365.513000
11
80.466300
21
365.578000
0
LINE
8
Layer 1
10
4.222670
20
365.578000
11
4.066480
21
365.719000
0
LINE
8
Layer 1
10
4.066480
20
365.719000
11
3.980990
21
365.911000
0
LINE
8
Layer 1
10
3.980990
20
365.911000
11
3.980990
21
366.121000
0
LINE
8
Layer 1
10
3.980990
20
366.121000
11
4.066480
21
366.313000
0
LINE
8
Layer 1
10
4.066480
20
366.313000
11
4.222670
21
366.454000
0
LINE
8
Layer 1
10
4.222670
20
366.454000
11
4.422520
21
366.519000
0
LINE
8
Layer 1
10
4.422520
20
366.519000
11
4.631560
21
366.497000
0
LINE
8
Layer 1
10
4.631560
20
366.497000
11
4.813600
21
366.392000
0
LINE
8
Layer 1
10
4.813600
20
366.392000
11
4.937090
21
366.222000
0
LINE
8
Layer 1
10
4.937090
20
366.222000
11
4.980800
21
366.016000
0
LINE
8
Layer 1
10
4.980800
20
366.016000
11
4.937090
21
365.810000
0
LINE
8
Layer 1
10
4.937090
20
365.810000
11
4.813600
21
365.640000
0
LINE
8
Layer 1
10
4.813600
20
365.640000
11
4.631560
21
365.535000
0
LINE
8
Layer 1
10
4.631560
20
365.535000
11
4.422520
21
365.513000
0
LINE
8
Layer 1
10
4.422520
20
365.513000
11
4.222670
21
365.578000
0
LINE
8
Layer 1
10
80.541700
20
367.977000
11
80.385500
21
368.117000
0
LINE
8
Layer 1
10
80.385500
20
368.117000
11
80.300000
21
368.309000
0
LINE
8
Layer 1
10
80.300000
20
368.309000
11
80.300000
21
368.519000
0
LINE
8
Layer 1
10
80.300000
20
368.519000
11
80.385500
21
368.711000
0
LINE
8
Layer 1
10
80.385500
20
368.711000
11
80.541700
21
368.852000
0
LINE
8
Layer 1
10
80.541700
20
368.852000
11
80.741500
21
368.917000
0
LINE
8
Layer 1
10
80.741500
20
368.917000
11
80.950500
21
368.895000
0
LINE
8
Layer 1
10
80.950500
20
368.895000
11
81.132600
21
368.790000
0
LINE
8
Layer 1
10
81.132600
20
368.790000
11
81.256100
21
368.620000
0
LINE
8
Layer 1
10
81.256100
20
368.620000
11
81.299800
21
368.414000
0
LINE
8
Layer 1
10
81.299800
20
368.414000
11
81.256100
21
368.209000
0
LINE
8
Layer 1
10
81.256100
20
368.209000
11
81.132600
21
368.039000
0
LINE
8
Layer 1
10
81.132600
20
368.039000
11
80.950500
21
367.934000
0
LINE
8
Layer 1
10
80.950500
20
367.934000
11
80.741500
21
367.912000
0
LINE
8
Layer 1
10
80.741500
20
367.912000
11
80.541700
21
367.977000
0
LINE
8
Layer 1
10
4.147290
20
367.977000
11
3.991100
21
368.117000
0
LINE
8
Layer 1
10
3.991100
20
368.117000
11
3.905610
21
368.309000
0
LINE
8
Layer 1
10
3.905610
20
368.309000
11
3.905610
21
368.519000
0
LINE
8
Layer 1
10
3.905610
20
368.519000
11
3.991100
21
368.711000
0
LINE
8
Layer 1
10
3.991100
20
368.711000
11
4.147290
21
368.852000
0
LINE
8
Layer 1
10
4.147290
20
368.852000
11
4.347140
21
368.917000
0
LINE
8
Layer 1
10
4.347140
20
368.917000
11
4.556200
21
368.895000
0
LINE
8
Layer 1
10
4.556200
20
368.895000
11
4.738220
21
368.790000
0
LINE
8
Layer 1
10
4.738220
20
368.790000
11
4.861740
21
368.620000
0
LINE
8
Layer 1
10
4.861740
20
368.620000
11
4.905430
21
368.414000
0
LINE
8
Layer 1
10
4.905430
20
368.414000
11
4.861740
21
368.209000
0
LINE
8
Layer 1
10
4.861740
20
368.209000
11
4.738220
21
368.039000
0
LINE
8
Layer 1
10
4.738220
20
368.039000
11
4.556200
21
367.934000
0
LINE
8
Layer 1
10
4.556200
20
367.934000
11
4.347140
21
367.912000
0
LINE
8
Layer 1
10
4.347140
20
367.912000
11
4.147290
21
367.977000
0
LINE
8
Layer 1
10
42.305600
20
366.105000
11
42.018300
21
366.160000
0
LINE
8
Layer 1
10
42.018300
20
366.160000
11
41.740500
21
366.250000
0
LINE
8
Layer 1
10
41.740500
20
366.250000
11
41.476000
21
366.375000
0
LINE
8
Layer 1
10
41.476000
20
366.375000
11
41.229300
21
366.532000
0
LINE
8
Layer 1
10
41.229300
20
366.532000
11
41.189700
21
366.564000
0
LINE
8
Layer 1
10
41.189700
20
366.564000
11
41.189700
21
368.090000
0
LINE
8
Layer 1
10
41.189700
20
368.090000
11
37.689700
21
368.090000
0
LINE
8
Layer 1
10
37.689700
20
368.090000
11
37.689700
21
368.739000
0
LINE
8
Layer 1
10
37.689700
20
368.739000
11
41.189700
21
368.739000
0
LINE
8
Layer 1
10
41.189700
20
368.739000
11
41.189700
21
370.264000
0
LINE
8
Layer 1
10
41.189700
20
370.264000
11
41.229300
21
370.297000
0
LINE
8
Layer 1
10
41.229300
20
370.297000
11
41.476000
21
370.454000
0
LINE
8
Layer 1
10
41.476000
20
370.454000
11
41.740500
21
370.578000
0
LINE
8
Layer 1
10
41.740500
20
370.578000
11
42.018300
21
370.669000
0
LINE
8
Layer 1
10
42.018300
20
370.669000
11
42.305600
21
370.723000
0
LINE
8
Layer 1
10
42.305600
20
370.723000
11
42.597200
21
370.742000
0
LINE
8
Layer 1
10
42.597200
20
370.742000
11
42.888800
21
370.723000
0
LINE
8
Layer 1
10
42.888800
20
370.723000
11
43.176000
21
370.669000
0
LINE
8
Layer 1
10
43.176000
20
370.669000
11
43.453900
21
370.578000
0
LINE
8
Layer 1
10
43.453900
20
370.578000
11
43.718400
21
370.454000
0
LINE
8
Layer 1
10
43.718400
20
370.454000
11
43.965100
21
370.297000
0
LINE
8
Layer 1
10
43.965100
20
370.297000
11
44.004700
21
370.264000
0
LINE
8
Layer 1
10
44.004700
20
370.264000
11
44.004700
21
368.739000
0
LINE
8
Layer 1
10
44.004700
20
368.739000
11
47.504700
21
368.739000
0
LINE
8
Layer 1
10
47.504700
20
368.739000
11
47.504700
21
368.090000
0
LINE
8
Layer 1
10
47.504700
20
368.090000
11
44.004700
21
368.090000
0
LINE
8
Layer 1
10
44.004700
20
368.090000
11
44.004700
21
366.564000
0
LINE
8
Layer 1
10
44.004700
20
366.564000
11
43.965100
21
366.532000
0
LINE
8
Layer 1
10
43.965100
20
366.532000
11
43.718400
21
366.375000
0
LINE
8
Layer 1
10
43.718400
20
366.375000
11
43.453900
21
366.250000
0
LINE
8
Layer 1
10
43.453900
20
366.250000
11
43.176000
21
366.160000
0
LINE
8
Layer 1
10
43.176000
20
366.160000
11
42.888800
21
366.105000
0
LINE
8
Layer 1
10
42.888800
20
366.105000
11
42.597200
21
366.087000
0
LINE
8
Layer 1
10
42.597200
20
366.087000
11
42.305600
21
366.105000
0
LINE
8
Layer 1
10
80.466300
20
370.375000
11
80.310100
21
370.516000
0
LINE
8
Layer 1
10
80.310100
20
370.516000
11
80.224600
21
370.708000
0
LINE
8
Layer 1
10
80.224600
20
370.708000
11
80.224600
21
370.918000
0
LINE
8
Layer 1
10
80.224600
20
370.918000
11
80.310100
21
371.110000
0
LINE
8
Layer 1
10
80.310100
20
371.110000
11
80.466300
21
371.251000
0
LINE
8
Layer 1
10
80.466300
20
371.251000
11
80.666100
21
371.315000
0
LINE
8
Layer 1
10
80.666100
20
371.315000
11
80.875200
21
371.293000
0
LINE
8
Layer 1
10
80.875200
20
371.293000
11
81.057200
21
371.188000
0
LINE
8
Layer 1
10
81.057200
20
371.188000
11
81.180700
21
371.018000
0
LINE
8
Layer 1
10
81.180700
20
371.018000
11
81.224400
21
370.813000
0
LINE
8
Layer 1
10
81.224400
20
370.813000
11
81.180700
21
370.607000
0
LINE
8
Layer 1
10
81.180700
20
370.607000
11
81.057200
21
370.437000
0
LINE
8
Layer 1
10
81.057200
20
370.437000
11
80.875200
21
370.332000
0
LINE
8
Layer 1
10
80.875200
20
370.332000
11
80.666100
21
370.310000
0
LINE
8
Layer 1
10
80.666100
20
370.310000
11
80.466300
21
370.375000
0
LINE
8
Layer 1
10
4.222670
20
370.375000
11
4.066480
21
370.516000
0
LINE
8
Layer 1
10
4.066480
20
370.516000
11
3.980990
21
370.708000
0
LINE
8
Layer 1
10
3.980990
20
370.708000
11
3.980990
21
370.918000
0
LINE
8
Layer 1
10
3.980990
20
370.918000
11
4.066480
21
371.110000
0
LINE
8
Layer 1
10
4.066480
20
371.110000
11
4.222670
21
371.251000
0
LINE
8
Layer 1
10
4.222670
20
371.251000
11
4.422520
21
371.315000
0
LINE
8
Layer 1
10
4.422520
20
371.315000
11
4.631560
21
371.293000
0
LINE
8
Layer 1
10
4.631560
20
371.293000
11
4.813600
21
371.188000
0
LINE
8
Layer 1
10
4.813600
20
371.188000
11
4.937090
21
371.018000
0
LINE
8
Layer 1
10
4.937090
20
371.018000
11
4.980800
21
370.813000
0
LINE
8
Layer 1
10
4.980800
20
370.813000
11
4.937090
21
370.607000
0
LINE
8
Layer 1
10
4.937090
20
370.607000
11
4.813600
21
370.437000
0
LINE
8
Layer 1
10
4.813600
20
370.437000
11
4.631560
21
370.332000
0
LINE
8
Layer 1
10
4.631560
20
370.332000
11
4.422520
21
370.310000
0
LINE
8
Layer 1
10
4.422520
20
370.310000
11
4.222670
21
370.375000
0
LINE
8
Layer 1
10
33.189700
20
364.507000
11
33.189700
21
372.322000
0
LINE
8
Layer 1
10
33.189700
20
372.322000
11
36.004700
21
372.322000
0
LINE
8
Layer 1
10
36.004700
20
372.322000
11
36.004700
21
364.507000
0
LINE
8
Layer 1
10
36.004700
20
364.507000
11
33.189700
21
364.507000
0
LINE
8
Layer 1
10
49.189700
20
364.507000
11
49.189700
21
372.322000
0
LINE
8
Layer 1
10
49.189700
20
372.322000
11
52.004700
21
372.322000
0
LINE
8
Layer 1
10
52.004700
20
372.322000
11
52.004700
21
364.507000
0
LINE
8
Layer 1
10
52.004700
20
364.507000
11
49.189700
21
364.507000
0
LINE
8
Layer 1
10
80.240400
20
372.764000
11
80.084300
21
372.905000
0
LINE
8
Layer 1
10
80.084300
20
372.905000
11
79.998800
21
373.097000
0
LINE
8
Layer 1
10
79.998800
20
373.097000
11
79.998800
21
373.307000
0
LINE
8
Layer 1
10
79.998800
20
373.307000
11
80.084300
21
373.499000
0
LINE
8
Layer 1
10
80.084300
20
373.499000
11
80.240400
21
373.639000
0
LINE
8
Layer 1
10
80.240400
20
373.639000
11
80.440300
21
373.704000
0
LINE
8
Layer 1
10
80.440300
20
373.704000
11
80.649400
21
373.682000
0
LINE
8
Layer 1
10
80.649400
20
373.682000
11
80.831400
21
373.577000
0
LINE
8
Layer 1
10
80.831400
20
373.577000
11
80.954900
21
373.407000
0
LINE
8
Layer 1
10
80.954900
20
373.407000
11
80.998600
21
373.202000
0
LINE
8
Layer 1
10
80.998600
20
373.202000
11
80.954900
21
372.996000
0
LINE
8
Layer 1
10
80.954900
20
372.996000
11
80.831400
21
372.826000
0
LINE
8
Layer 1
10
80.831400
20
372.826000
11
80.649400
21
372.721000
0
LINE
8
Layer 1
10
80.649400
20
372.721000
11
80.440300
21
372.699000
0
LINE
8
Layer 1
10
80.440300
20
372.699000
11
80.240400
21
372.764000
0
LINE
8
Layer 1
10
4.448490
20
372.764000
11
4.292300
21
372.905000
0
LINE
8
Layer 1
10
4.292300
20
372.905000
11
4.206820
21
373.097000
0
LINE
8
Layer 1
10
4.206820
20
373.097000
11
4.206820
21
373.307000
0
LINE
8
Layer 1
10
4.206820
20
373.307000
11
4.292300
21
373.499000
0
LINE
8
Layer 1
10
4.292300
20
373.499000
11
4.448490
21
373.639000
0
LINE
8
Layer 1
10
4.448490
20
373.639000
11
4.648350
21
373.704000
0
LINE
8
Layer 1
10
4.648350
20
373.704000
11
4.857390
21
373.682000
0
LINE
8
Layer 1
10
4.857390
20
373.682000
11
5.039410
21
373.577000
0
LINE
8
Layer 1
10
5.039410
20
373.577000
11
5.162930
21
373.407000
0
LINE
8
Layer 1
10
5.162930
20
373.407000
11
5.206620
21
373.202000
0
LINE
8
Layer 1
10
5.206620
20
373.202000
11
5.162930
21
372.996000
0
LINE
8
Layer 1
10
5.162930
20
372.996000
11
5.039410
21
372.826000
0
LINE
8
Layer 1
10
5.039410
20
372.826000
11
4.857390
21
372.721000
0
LINE
8
Layer 1
10
4.857390
20
372.721000
11
4.648350
21
372.699000
0
LINE
8
Layer 1
10
4.648350
20
372.699000
11
4.448490
21
372.764000
0
LINE
8
Layer 1
10
79.865100
20
375.134000
11
79.708900
21
375.275000
0
LINE
8
Layer 1
10
79.708900
20
375.275000
11
79.623400
21
375.467000
0
LINE
8
Layer 1
10
79.623400
20
375.467000
11
79.623400
21
375.677000
0
LINE
8
Layer 1
10
79.623400
20
375.677000
11
79.708900
21
375.869000
0
LINE
8
Layer 1
10
79.708900
20
375.869000
11
79.865100
21
376.010000
0
LINE
8
Layer 1
10
79.865100
20
376.010000
11
80.064900
21
376.074000
0
LINE
8
Layer 1
10
80.064900
20
376.074000
11
80.274000
21
376.052000
0
LINE
8
Layer 1
10
80.274000
20
376.052000
11
80.456000
21
375.947000
0
LINE
8
Layer 1
10
80.456000
20
375.947000
11
80.579500
21
375.777000
0
LINE
8
Layer 1
10
80.579500
20
375.777000
11
80.623200
21
375.572000
0
LINE
8
Layer 1
10
80.623200
20
375.572000
11
80.579500
21
375.366000
0
LINE
8
Layer 1
10
80.579500
20
375.366000
11
80.456000
21
375.196000
0
LINE
8
Layer 1
10
80.456000
20
375.196000
11
80.274000
21
375.091000
0
LINE
8
Layer 1
10
80.274000
20
375.091000
11
80.064900
21
375.069000
0
LINE
8
Layer 1
10
80.064900
20
375.069000
11
79.865100
21
375.134000
0
LINE
8
Layer 1
10
4.823870
20
375.134000
11
4.667680
21
375.275000
0
LINE
8
Layer 1
10
4.667680
20
375.275000
11
4.582200
21
375.467000
0
LINE
8
Layer 1
10
4.582200
20
375.467000
11
4.582200
21
375.677000
0
LINE
8
Layer 1
10
4.582200
20
375.677000
11
4.667680
21
375.869000
0
LINE
8
Layer 1
10
4.667680
20
375.869000
11
4.823870
21
376.010000
0
LINE
8
Layer 1
10
4.823870
20
376.010000
11
5.023730
21
376.074000
0
LINE
8
Layer 1
10
5.023730
20
376.074000
11
5.232770
21
376.052000
0
LINE
8
Layer 1
10
5.232770
20
376.052000
11
5.414790
21
375.947000
0
LINE
8
Layer 1
10
5.414790
20
375.947000
11
5.538310
21
375.777000
0
LINE
8
Layer 1
10
5.538310
20
375.777000
11
5.582000
21
375.572000
0
LINE
8
Layer 1
10
5.582000
20
375.572000
11
5.538310
21
375.366000
0
LINE
8
Layer 1
10
5.538310
20
375.366000
11
5.414790
21
375.196000
0
LINE
8
Layer 1
10
5.414790
20
375.196000
11
5.232770
21
375.091000
0
LINE
8
Layer 1
10
5.232770
20
375.091000
11
5.023730
21
375.069000
0
LINE
8
Layer 1
10
5.023730
20
375.069000
11
4.823870
21
375.134000
0
LINE
8
Layer 1
10
38.689700
20
375.007000
11
38.689700
21
377.822000
0
LINE
8
Layer 1
10
38.689700
20
377.822000
11
46.504700
21
377.822000
0
LINE
8
Layer 1
10
46.504700
20
377.822000
11
46.504700
21
375.007000
0
LINE
8
Layer 1
10
46.504700
20
375.007000
11
38.689700
21
375.007000
0
LINE
8
Layer 1
10
79.341600
20
377.476000
11
79.185400
21
377.617000
0
LINE
8
Layer 1
10
79.185400
20
377.617000
11
79.099900
21
377.809000
0
LINE
8
Layer 1
10
79.099900
20
377.809000
11
79.099900
21
378.019000
0
LINE
8
Layer 1
10
79.099900
20
378.019000
11
79.185400
21
378.211000
0
LINE
8
Layer 1
10
79.185400
20
378.211000
11
79.341600
21
378.351000
0
LINE
8
Layer 1
10
79.341600
20
378.351000
11
79.541500
21
378.416000
0
LINE
8
Layer 1
10
79.541500
20
378.416000
11
79.750500
21
378.394000
0
LINE
8
Layer 1
10
79.750500
20
378.394000
11
79.932500
21
378.289000
0
LINE
8
Layer 1
10
79.932500
20
378.289000
11
80.056100
21
378.119000
0
LINE
8
Layer 1
10
80.056100
20
378.119000
11
80.099700
21
377.914000
0
LINE
8
Layer 1
10
80.099700
20
377.914000
11
80.056100
21
377.708000
0
LINE
8
Layer 1
10
80.056100
20
377.708000
11
79.932500
21
377.538000
0
LINE
8
Layer 1
10
79.932500
20
377.538000
11
79.750500
21
377.433000
0
LINE
8
Layer 1
10
79.750500
20
377.433000
11
79.541500
21
377.411000
0
LINE
8
Layer 1
10
79.541500
20
377.411000
11
79.341600
21
377.476000
0
LINE
8
Layer 1
10
5.347320
20
377.476000
11
5.191130
21
377.617000
0
LINE
8
Layer 1
10
5.191130
20
377.617000
11
5.105650
21
377.809000
0
LINE
8
Layer 1
10
5.105650
20
377.809000
11
5.105650
21
378.019000
0
LINE
8
Layer 1
10
5.105650
20
378.019000
11
5.191130
21
378.211000
0
LINE
8
Layer 1
10
5.191130
20
378.211000
11
5.347320
21
378.351000
0
LINE
8
Layer 1
10
5.347320
20
378.351000
11
5.547180
21
378.416000
0
LINE
8
Layer 1
10
5.547180
20
378.416000
11
5.756230
21
378.394000
0
LINE
8
Layer 1
10
5.756230
20
378.394000
11
5.938250
21
378.289000
0
LINE
8
Layer 1
10
5.938250
20
378.289000
11
6.061750
21
378.119000
0
LINE
8
Layer 1
10
6.061750
20
378.119000
11
6.105470
21
377.914000
0
LINE
8
Layer 1
10
6.105470
20
377.914000
11
6.061750
21
377.708000
0
LINE
8
Layer 1
10
6.061750
20
377.708000
11
5.938250
21
377.538000
0
LINE
8
Layer 1
10
5.938250
20
377.538000
11
5.756230
21
377.433000
0
LINE
8
Layer 1
10
5.756230
20
377.433000
11
5.547180
21
377.411000
0
LINE
8
Layer 1
10
5.547180
20
377.411000
11
5.347320
21
377.476000
0
LINE
8
Layer 1
10
78.672100
20
379.780000
11
78.516000
21
379.921000
0
LINE
8
Layer 1
10
78.516000
20
379.921000
11
78.430500
21
380.113000
0
LINE
8
Layer 1
10
78.430500
20
380.113000
11
78.430500
21
380.323000
0
LINE
8
Layer 1
10
78.430500
20
380.323000
11
78.516000
21
380.515000
0
LINE
8
Layer 1
10
78.516000
20
380.515000
11
78.672100
21
380.656000
0
LINE
8
Layer 1
10
78.672100
20
380.656000
11
78.872000
21
380.721000
0
LINE
8
Layer 1
10
78.872000
20
380.721000
11
79.081100
21
380.699000
0
LINE
8
Layer 1
10
79.081100
20
380.699000
11
79.263100
21
380.594000
0
LINE
8
Layer 1
10
79.263100
20
380.594000
11
79.386600
21
380.424000
0
LINE
8
Layer 1
10
79.386600
20
380.424000
11
79.430300
21
380.218000
0
LINE
8
Layer 1
10
79.430300
20
380.218000
11
79.386600
21
380.012000
0
LINE
8
Layer 1
10
79.386600
20
380.012000
11
79.263100
21
379.842000
0
LINE
8
Layer 1
10
79.263100
20
379.842000
11
79.081100
21
379.737000
0
LINE
8
Layer 1
10
79.081100
20
379.737000
11
78.872000
21
379.715000
0
LINE
8
Layer 1
10
78.872000
20
379.715000
11
78.672100
21
379.780000
0
LINE
8
Layer 1
10
6.016800
20
379.780000
11
5.860610
21
379.921000
0
LINE
8
Layer 1
10
5.860610
20
379.921000
11
5.775120
21
380.113000
0
LINE
8
Layer 1
10
5.775120
20
380.113000
11
5.775120
21
380.323000
0
LINE
8
Layer 1
10
5.775120
20
380.323000
11
5.860610
21
380.515000
0
LINE
8
Layer 1
10
5.860610
20
380.515000
11
6.016800
21
380.656000
0
LINE
8
Layer 1
10
6.016800
20
380.656000
11
6.216640
21
380.721000
0
LINE
8
Layer 1
10
6.216640
20
380.721000
11
6.425700
21
380.699000
0
LINE
8
Layer 1
10
6.425700
20
380.699000
11
6.607730
21
380.594000
0
LINE
8
Layer 1
10
6.607730
20
380.594000
11
6.731250
21
380.424000
0
LINE
8
Layer 1
10
6.731250
20
380.424000
11
6.774930
21
380.218000
0
LINE
8
Layer 1
10
6.774930
20
380.218000
11
6.731250
21
380.012000
0
LINE
8
Layer 1
10
6.731250
20
380.012000
11
6.607730
21
379.842000
0
LINE
8
Layer 1
10
6.607730
20
379.842000
11
6.425700
21
379.737000
0
LINE
8
Layer 1
10
6.425700
20
379.737000
11
6.216640
21
379.715000
0
LINE
8
Layer 1
10
6.216640
20
379.715000
11
6.016800
21
379.780000
0
LINE
8
Layer 1
10
77.859300
20
382.038000
11
77.703100
21
382.179000
0
LINE
8
Layer 1
10
77.703100
20
382.179000
11
77.617600
21
382.371000
0
LINE
8
Layer 1
10
77.617600
20
382.371000
11
77.617600
21
382.581000
0
LINE
8
Layer 1
10
77.617600
20
382.581000
11
77.703100
21
382.773000
0
LINE
8
Layer 1
10
77.703100
20
382.773000
11
77.859300
21
382.913000
0
LINE
8
Layer 1
10
77.859300
20
382.913000
11
78.059200
21
382.978000
0
LINE
8
Layer 1
10
78.059200
20
382.978000
11
78.268200
21
382.956000
0
LINE
8
Layer 1
10
78.268200
20
382.956000
11
78.450200
21
382.851000
0
LINE
8
Layer 1
10
78.450200
20
382.851000
11
78.573700
21
382.681000
0
LINE
8
Layer 1
10
78.573700
20
382.681000
11
78.617400
21
382.476000
0
LINE
8
Layer 1
10
78.617400
20
382.476000
11
78.573700
21
382.270000
0
LINE
8
Layer 1
10
78.573700
20
382.270000
11
78.450200
21
382.100000
0
LINE
8
Layer 1
10
78.450200
20
382.100000
11
78.268200
21
381.995000
0
LINE
8
Layer 1
10
78.268200
20
381.995000
11
78.059200
21
381.973000
0
LINE
8
Layer 1
10
78.059200
20
381.973000
11
77.859300
21
382.038000
0
LINE
8
Layer 1
10
6.829640
20
382.038000
11
6.673450
21
382.179000
0
LINE
8
Layer 1
10
6.673450
20
382.179000
11
6.587950
21
382.371000
0
LINE
8
Layer 1
10
6.587950
20
382.371000
11
6.587950
21
382.581000
0
LINE
8
Layer 1
10
6.587950
20
382.581000
11
6.673450
21
382.773000
0
LINE
8
Layer 1
10
6.673450
20
382.773000
11
6.829640
21
382.913000
0
LINE
8
Layer 1
10
6.829640
20
382.913000
11
7.029480
21
382.978000
0
LINE
8
Layer 1
10
7.029480
20
382.978000
11
7.238540
21
382.956000
0
LINE
8
Layer 1
10
7.238540
20
382.956000
11
7.420560
21
382.851000
0
LINE
8
Layer 1
10
7.420560
20
382.851000
11
7.544080
21
382.681000
0
LINE
8
Layer 1
10
7.544080
20
382.681000
11
7.587770
21
382.476000
0
LINE
8
Layer 1
10
7.587770
20
382.476000
11
7.544080
21
382.270000
0
LINE
8
Layer 1
10
7.544080
20
382.270000
11
7.420560
21
382.100000
0
LINE
8
Layer 1
10
7.420560
20
382.100000
11
7.238540
21
381.995000
0
LINE
8
Layer 1
10
7.238540
20
381.995000
11
7.029480
21
381.973000
0
LINE
8
Layer 1
10
7.029480
20
381.973000
11
6.829640
21
382.038000
0
LINE
8
Layer 1
10
76.906300
20
384.240000
11
76.750100
21
384.381000
0
LINE
8
Layer 1
10
76.750100
20
384.381000
11
76.664600
21
384.573000
0
LINE
8
Layer 1
10
76.664600
20
384.573000
11
76.664600
21
384.783000
0
LINE
8
Layer 1
10
76.664600
20
384.783000
11
76.750100
21
384.975000
0
LINE
8
Layer 1
10
76.750100
20
384.975000
11
76.906300
21
385.116000
0
LINE
8
Layer 1
10
76.906300
20
385.116000
11
77.106200
21
385.181000
0
LINE
8
Layer 1
10
77.106200
20
385.181000
11
77.315200
21
385.159000
0
LINE
8
Layer 1
10
77.315200
20
385.159000
11
77.497200
21
385.054000
0
LINE
8
Layer 1
10
77.497200
20
385.054000
11
77.620800
21
384.884000
0
LINE
8
Layer 1
10
77.620800
20
384.884000
11
77.664400
21
384.678000
0
LINE
8
Layer 1
10
77.664400
20
384.678000
11
77.620800
21
384.472000
0
LINE
8
Layer 1
10
77.620800
20
384.472000
11
77.497200
21
384.302000
0
LINE
8
Layer 1
10
77.497200
20
384.302000
11
77.315200
21
384.197000
0
LINE
8
Layer 1
10
77.315200
20
384.197000
11
77.106200
21
384.175000
0
LINE
8
Layer 1
10
77.106200
20
384.175000
11
76.906300
21
384.240000
0
LINE
8
Layer 1
10
7.782620
20
384.240000
11
7.626430
21
384.381000
0
LINE
8
Layer 1
10
7.626430
20
384.381000
11
7.540950
21
384.573000
0
LINE
8
Layer 1
10
7.540950
20
384.573000
11
7.540950
21
384.783000
0
LINE
8
Layer 1
10
7.540950
20
384.783000
11
7.626430
21
384.975000
0
LINE
8
Layer 1
10
7.626430
20
384.975000
11
7.782620
21
385.116000
0
LINE
8
Layer 1
10
7.782620
20
385.116000
11
7.982480
21
385.181000
0
LINE
8
Layer 1
10
7.982480
20
385.181000
11
8.191530
21
385.159000
0
LINE
8
Layer 1
10
8.191530
20
385.159000
11
8.373540
21
385.054000
0
LINE
8
Layer 1
10
8.373540
20
385.054000
11
8.497070
21
384.883000
0
LINE
8
Layer 1
10
8.497070
20
384.883000
11
8.540770
21
384.678000
0
LINE
8
Layer 1
10
8.540770
20
384.678000
11
8.497060
21
384.472000
0
LINE
8
Layer 1
10
8.497060
20
384.472000
11
8.373570
21
384.302000
0
LINE
8
Layer 1
10
8.373570
20
384.302000
11
8.191530
21
384.197000
0
LINE
8
Layer 1
10
8.191530
20
384.197000
11
7.982480
21
384.175000
0
LINE
8
Layer 1
10
7.982480
20
384.175000
11
7.782620
21
384.240000
0
LINE
8
Layer 1
10
75.816900
20
386.378000
11
75.660700
21
386.519000
0
LINE
8
Layer 1
10
75.660700
20
386.519000
11
75.575200
21
386.711000
0
LINE
8
Layer 1
10
75.575200
20
386.711000
11
75.575200
21
386.921000
0
LINE
8
Layer 1
10
75.575200
20
386.921000
11
75.660700
21
387.113000
0
LINE
8
Layer 1
10
75.660700
20
387.113000
11
75.816900
21
387.254000
0
LINE
8
Layer 1
10
75.816900
20
387.254000
11
76.016800
21
387.319000
0
LINE
8
Layer 1
10
76.016800
20
387.319000
11
76.225800
21
387.297000
0
LINE
8
Layer 1
10
76.225800
20
387.297000
11
76.407800
21
387.192000
0
LINE
8
Layer 1
10
76.407800
20
387.192000
11
76.531300
21
387.022000
0
LINE
8
Layer 1
10
76.531300
20
387.022000
11
76.575100
21
386.816000
0
LINE
8
Layer 1
10
76.575100
20
386.816000
11
76.531300
21
386.610000
0
LINE
8
Layer 1
10
76.531300
20
386.610000
11
76.407800
21
386.440000
0
LINE
8
Layer 1
10
76.407800
20
386.440000
11
76.225800
21
386.335000
0
LINE
8
Layer 1
10
76.225800
20
386.335000
11
76.016800
21
386.313000
0
LINE
8
Layer 1
10
76.016800
20
386.313000
11
75.816900
21
386.378000
0
LINE
8
Layer 1
10
8.872020
20
386.378000
11
8.715840
21
386.519000
0
LINE
8
Layer 1
10
8.715840
20
386.519000
11
8.630360
21
386.711000
0
LINE
8
Layer 1
10
8.630360
20
386.711000
11
8.630360
21
386.921000
0
LINE
8
Layer 1
10
8.630360
20
386.921000
11
8.715840
21
387.113000
0
LINE
8
Layer 1
10
8.715840
20
387.113000
11
8.872020
21
387.254000
0
LINE
8
Layer 1
10
8.872020
20
387.254000
11
9.071880
21
387.319000
0
LINE
8
Layer 1
10
9.071880
20
387.319000
11
9.280930
21
387.297000
0
LINE
8
Layer 1
10
9.280930
20
387.297000
11
9.462950
21
387.192000
0
LINE
8
Layer 1
10
9.462950
20
387.192000
11
9.586460
21
387.022000
0
LINE
8
Layer 1
10
9.586460
20
387.022000
11
9.630170
21
386.816000
0
LINE
8
Layer 1
10
9.630170
20
386.816000
11
9.586460
21
386.610000
0
LINE
8
Layer 1
10
9.586460
20
386.610000
11
9.462950
21
386.440000
0
LINE
8
Layer 1
10
9.462950
20
386.440000
11
9.280930
21
386.335000
0
LINE
8
Layer 1
10
9.280930
20
386.335000
11
9.071880
21
386.313000
0
LINE
8
Layer 1
10
9.071880
20
386.313000
11
8.872020
21
386.378000
0
LINE
8
Layer 1
10
41.657000
20
384.286000
11
41.075900
21
384.809000
0
LINE
8
Layer 1
10
41.075900
20
384.809000
11
40.757800
21
385.523000
0
LINE
8
Layer 1
10
40.757800
20
385.523000
11
40.757800
21
386.305000
0
LINE
8
Layer 1
10
40.757800
20
386.305000
11
41.075900
21
387.020000
0
LINE
8
Layer 1
10
41.075900
20
387.020000
11
41.657000
21
387.543000
0
LINE
8
Layer 1
10
41.657000
20
387.543000
11
42.400600
21
387.784000
0
LINE
8
Layer 1
10
42.400600
20
387.784000
11
43.178300
21
387.703000
0
LINE
8
Layer 1
10
43.178300
20
387.703000
11
43.855400
21
387.312000
0
LINE
8
Layer 1
10
43.855400
20
387.312000
11
44.315000
21
386.679000
0
LINE
8
Layer 1
10
44.315000
20
386.679000
11
44.477600
21
385.914000
0
LINE
8
Layer 1
10
44.477600
20
385.914000
11
44.315000
21
385.149000
0
LINE
8
Layer 1
10
44.315000
20
385.149000
11
43.855400
21
384.517000
0
LINE
8
Layer 1
10
43.855400
20
384.517000
11
43.178300
21
384.126000
0
LINE
8
Layer 1
10
43.178300
20
384.126000
11
42.400600
21
384.044000
0
LINE
8
Layer 1
10
42.400600
20
384.044000
11
41.657000
21
384.286000
0
LINE
8
Layer 1
10
74.595400
20
388.444000
11
74.439200
21
388.584000
0
LINE
8
Layer 1
10
74.439200
20
388.584000
11
74.353700
21
388.776000
0
LINE
8
Layer 1
10
74.353700
20
388.776000
11
74.353700
21
388.987000
0
LINE
8
Layer 1
10
74.353700
20
388.987000
11
74.439200
21
389.179000
0
LINE
8
Layer 1
10
74.439200
20
389.179000
11
74.595400
21
389.319000
0
LINE
8
Layer 1
10
74.595400
20
389.319000
11
74.795300
21
389.384000
0
LINE
8
Layer 1
10
74.795300
20
389.384000
11
75.004300
21
389.362000
0
LINE
8
Layer 1
10
75.004300
20
389.362000
11
75.186300
21
389.257000
0
LINE
8
Layer 1
10
75.186300
20
389.257000
11
75.309900
21
389.087000
0
LINE
8
Layer 1
10
75.309900
20
389.087000
11
75.353500
21
388.881000
0
LINE
8
Layer 1
10
75.353500
20
388.881000
11
75.309900
21
388.676000
0
LINE
8
Layer 1
10
75.309900
20
388.676000
11
75.186300
21
388.506000
0
LINE
8
Layer 1
10
75.186300
20
388.506000
11
75.004300
21
388.401000
0
LINE
8
Layer 1
10
75.004300
20
388.401000
11
74.795300
21
388.379000
0
LINE
8
Layer 1
10
74.795300
20
388.379000
11
74.595400
21
388.444000
0
LINE
8
Layer 1
10
10.093500
20
388.444000
11
9.937330
21
388.584000
0
LINE
8
Layer 1
10
9.937330
20
388.584000
11
9.851850
21
388.776000
0
LINE
8
Layer 1
10
9.851850
20
388.776000
11
9.851850
21
388.987000
0
LINE
8
Layer 1
10
9.851850
20
388.987000
11
9.937330
21
389.179000
0
LINE
8
Layer 1
10
9.937330
20
389.179000
11
10.093500
21
389.319000
0
LINE
8
Layer 1
10
10.093500
20
389.319000
11
10.293400
21
389.384000
0
LINE
8
Layer 1
10
10.293400
20
389.384000
11
10.502400
21
389.362000
0
LINE
8
Layer 1
10
10.502400
20
389.362000
11
10.684400
21
389.257000
0
LINE
8
Layer 1
10
10.684400
20
389.257000
11
10.808000
21
389.087000
0
LINE
8
Layer 1
10
10.808000
20
389.087000
11
10.851700
21
388.881000
0
LINE
8
Layer 1
10
10.851700
20
388.881000
11
10.808000
21
388.676000
0
LINE
8
Layer 1
10
10.808000
20
388.676000
11
10.684400
21
388.506000
0
LINE
8
Layer 1
10
10.684400
20
388.506000
11
10.502400
21
388.401000
0
LINE
8
Layer 1
10
10.502400
20
388.401000
11
10.293400
21
388.379000
0
LINE
8
Layer 1
10
10.293400
20
388.379000
11
10.093500
21
388.444000
0
LINE
8
Layer 1
10
73.246600
20
390.428000
11
73.090400
21
390.569000
0
LINE
8
Layer 1
10
73.090400
20
390.569000
11
73.005000
21
390.761000
0
LINE
8
Layer 1
10
73.005000
20
390.761000
11
73.005000
21
390.971000
0
LINE
8
Layer 1
10
73.005000
20
390.971000
11
73.090400
21
391.163000
0
LINE
8
Layer 1
10
73.090400
20
391.163000
11
73.246600
21
391.304000
0
LINE
8
Layer 1
10
73.246600
20
391.304000
11
73.446500
21
391.369000
0
LINE
8
Layer 1
10
73.446500
20
391.369000
11
73.655500
21
391.347000
0
LINE
8
Layer 1
10
73.655500
20
391.347000
11
73.837500
21
391.242000
0
LINE
8
Layer 1
10
73.837500
20
391.242000
11
73.961100
21
391.072000
0
LINE
8
Layer 1
10
73.961100
20
391.072000
11
74.004800
21
390.866000
0
LINE
8
Layer 1
10
74.004800
20
390.866000
11
73.961100
21
390.660000
0
LINE
8
Layer 1
10
73.961100
20
390.660000
11
73.837600
21
390.490000
0
LINE
8
Layer 1
10
73.837600
20
390.490000
11
73.655500
21
390.385000
0
LINE
8
Layer 1
10
73.655500
20
390.385000
11
73.446500
21
390.363000
0
LINE
8
Layer 1
10
73.446500
20
390.363000
11
73.246600
21
390.428000
0
LINE
8
Layer 1
10
11.442300
20
390.428000
11
11.286100
21
390.569000
0
LINE
8
Layer 1
10
11.286100
20
390.569000
11
11.200600
21
390.761000
0
LINE
8
Layer 1
10
11.200600
20
390.761000
11
11.200600
21
390.971000
0
LINE
8
Layer 1
10
11.200600
20
390.971000
11
11.286100
21
391.163000
0
LINE
8
Layer 1
10
11.286100
20
391.163000
11
11.442300
21
391.304000
0
LINE
8
Layer 1
10
11.442300
20
391.304000
11
11.642200
21
391.369000
0
LINE
8
Layer 1
10
11.642200
20
391.369000
11
11.851200
21
391.347000
0
LINE
8
Layer 1
10
11.851200
20
391.347000
11
12.033200
21
391.242000
0
LINE
8
Layer 1
10
12.033200
20
391.242000
11
12.156800
21
391.072000
0
LINE
8
Layer 1
10
12.156800
20
391.072000
11
12.200400
21
390.866000
0
LINE
8
Layer 1
10
12.200400
20
390.866000
11
12.156800
21
390.660000
0
LINE
8
Layer 1
10
12.156800
20
390.660000
11
12.033200
21
390.490000
0
LINE
8
Layer 1
10
12.033200
20
390.490000
11
11.851200
21
390.385000
0
LINE
8
Layer 1
10
11.851200
20
390.385000
11
11.642200
21
390.363000
0
LINE
8
Layer 1
10
11.642200
20
390.363000
11
11.442300
21
390.428000
0
LINE
8
Layer 1
10
71.775900
20
392.324000
11
71.619700
21
392.465000
0
LINE
8
Layer 1
10
71.619700
20
392.465000
11
71.534200
21
392.657000
0
LINE
8
Layer 1
10
71.534200
20
392.657000
11
71.534200
21
392.867000
0
LINE
8
Layer 1
10
71.534200
20
392.867000
11
71.619700
21
393.059000
0
LINE
8
Layer 1
10
71.619700
20
393.059000
11
71.775900
21
393.200000
0
LINE
8
Layer 1
10
71.775900
20
393.200000
11
71.975800
21
393.265000
0
LINE
8
Layer 1
10
71.975800
20
393.265000
11
72.184800
21
393.243000
0
LINE
8
Layer 1
10
72.184800
20
393.243000
11
72.366800
21
393.138000
0
LINE
8
Layer 1
10
72.366800
20
393.138000
11
72.490300
21
392.968000
0
LINE
8
Layer 1
10
72.490300
20
392.968000
11
72.534000
21
392.762000
0
LINE
8
Layer 1
10
72.534000
20
392.762000
11
72.490300
21
392.557000
0
LINE
8
Layer 1
10
72.490300
20
392.557000
11
72.366800
21
392.387000
0
LINE
8
Layer 1
10
72.366800
20
392.387000
11
72.184800
21
392.281000
0
LINE
8
Layer 1
10
72.184800
20
392.281000
11
71.975800
21
392.260000
0
LINE
8
Layer 1
10
71.975800
20
392.260000
11
71.775900
21
392.324000
0
LINE
8
Layer 1
10
12.913000
20
392.324000
11
12.756900
21
392.465000
0
LINE
8
Layer 1
10
12.756900
20
392.465000
11
12.671400
21
392.657000
0
LINE
8
Layer 1
10
12.671400
20
392.657000
11
12.671400
21
392.867000
0
LINE
8
Layer 1
10
12.671400
20
392.867000
11
12.756900
21
393.059000
0
LINE
8
Layer 1
10
12.756900
20
393.059000
11
12.913000
21
393.200000
0
LINE
8
Layer 1
10
12.913000
20
393.200000
11
13.112900
21
393.265000
0
LINE
8
Layer 1
10
13.112900
20
393.265000
11
13.321900
21
393.243000
0
LINE
8
Layer 1
10
13.321900
20
393.243000
11
13.504000
21
393.138000
0
LINE
8
Layer 1
10
13.504000
20
393.138000
11
13.627500
21
392.968000
0
LINE
8
Layer 1
10
13.627500
20
392.968000
11
13.671200
21
392.762000
0
LINE
8
Layer 1
10
13.671200
20
392.762000
11
13.627500
21
392.557000
0
LINE
8
Layer 1
10
13.627500
20
392.557000
11
13.504000
21
392.387000
0
LINE
8
Layer 1
10
13.504000
20
392.387000
11
13.321900
21
392.281000
0
LINE
8
Layer 1
10
13.321900
20
392.281000
11
13.112900
21
392.260000
0
LINE
8
Layer 1
10
13.112900
20
392.260000
11
12.913000
21
392.324000
0
LINE
8
Layer 1
10
70.189000
20
394.124000
11
70.032800
21
394.265000
0
LINE
8
Layer 1
10
70.032800
20
394.265000
11
69.947300
21
394.457000
0
LINE
8
Layer 1
10
69.947300
20
394.457000
11
69.947300
21
394.667000
0
LINE
8
Layer 1
10
69.947300
20
394.667000
11
70.032800
21
394.859000
0
LINE
8
Layer 1
10
70.032800
20
394.859000
11
70.189000
21
395.000000
0
LINE
8
Layer 1
10
70.189000
20
395.000000
11
70.388900
21
395.065000
0
LINE
8
Layer 1
10
70.388900
20
395.065000
11
70.597900
21
395.043000
0
LINE
8
Layer 1
10
70.597900
20
395.043000
11
70.779900
21
394.938000
0
LINE
8
Layer 1
10
70.779900
20
394.938000
11
70.903400
21
394.768000
0
LINE
8
Layer 1
10
70.903400
20
394.768000
11
70.947200
21
394.562000
0
LINE
8
Layer 1
10
70.947200
20
394.562000
11
70.903400
21
394.357000
0
LINE
8
Layer 1
10
70.903400
20
394.357000
11
70.779900
21
394.187000
0
LINE
8
Layer 1
10
70.779900
20
394.187000
11
70.597900
21
394.081000
0
LINE
8
Layer 1
10
70.597900
20
394.081000
11
70.388900
21
394.059000
0
LINE
8
Layer 1
10
70.388900
20
394.059000
11
70.189000
21
394.124000
0
LINE
8
Layer 1
10
14.499900
20
394.124000
11
14.343700
21
394.265000
0
LINE
8
Layer 1
10
14.343700
20
394.265000
11
14.258300
21
394.457000
0
LINE
8
Layer 1
10
14.258300
20
394.457000
11
14.258300
21
394.667000
0
LINE
8
Layer 1
10
14.258300
20
394.667000
11
14.343700
21
394.859000
0
LINE
8
Layer 1
10
14.343700
20
394.859000
11
14.499900
21
395.000000
0
LINE
8
Layer 1
10
14.499900
20
395.000000
11
14.699800
21
395.065000
0
LINE
8
Layer 1
10
14.699800
20
395.065000
11
14.908800
21
395.043000
0
LINE
8
Layer 1
10
14.908800
20
395.043000
11
15.090900
21
394.938000
0
LINE
8
Layer 1
10
15.090900
20
394.938000
11
15.214400
21
394.768000
0
LINE
8
Layer 1
10
15.214400
20
394.768000
11
15.258100
21
394.562000
0
LINE
8
Layer 1
10
15.258100
20
394.562000
11
15.214400
21
394.357000
0
LINE
8
Layer 1
10
15.214400
20
394.357000
11
15.090900
21
394.187000
0
LINE
8
Layer 1
10
15.090900
20
394.187000
11
14.908800
21
394.081000
0
LINE
8
Layer 1
10
14.908800
20
394.081000
11
14.699800
21
394.059000
0
LINE
8
Layer 1
10
14.699800
20
394.059000
11
14.499900
21
394.124000
0
LINE
8
Layer 1
10
68.492200
20
395.821000
11
68.336000
21
395.962000
0
LINE
8
Layer 1
10
68.336000
20
395.962000
11
68.250600
21
396.154000
0
LINE
8
Layer 1
10
68.250600
20
396.154000
11
68.250600
21
396.364000
0
LINE
8
Layer 1
10
68.250600
20
396.364000
11
68.336000
21
396.556000
0
LINE
8
Layer 1
10
68.336000
20
396.556000
11
68.492200
21
396.697000
0
LINE
8
Layer 1
10
68.492200
20
396.697000
11
68.692100
21
396.762000
0
LINE
8
Layer 1
10
68.692100
20
396.762000
11
68.901100
21
396.740000
0
LINE
8
Layer 1
10
68.901100
20
396.740000
11
69.083200
21
396.635000
0
LINE
8
Layer 1
10
69.083200
20
396.635000
11
69.206700
21
396.465000
0
LINE
8
Layer 1
10
69.206700
20
396.465000
11
69.250400
21
396.259000
0
LINE
8
Layer 1
10
69.250400
20
396.259000
11
69.206700
21
396.053000
0
LINE
8
Layer 1
10
69.206700
20
396.053000
11
69.083200
21
395.883000
0
LINE
8
Layer 1
10
69.083200
20
395.883000
11
68.901100
21
395.778000
0
LINE
8
Layer 1
10
68.901100
20
395.778000
11
68.692100
21
395.756000
0
LINE
8
Layer 1
10
68.692100
20
395.756000
11
68.492200
21
395.821000
0
LINE
8
Layer 1
10
16.196700
20
395.821000
11
16.040500
21
395.962000
0
LINE
8
Layer 1
10
16.040500
20
395.962000
11
15.955000
21
396.154000
0
LINE
8
Layer 1
10
15.955000
20
396.154000
11
15.955000
21
396.364000
0
LINE
8
Layer 1
10
15.955000
20
396.364000
11
16.040500
21
396.556000
0
LINE
8
Layer 1
10
16.040500
20
396.556000
11
16.196700
21
396.697000
0
LINE
8
Layer 1
10
16.196700
20
396.697000
11
16.396600
21
396.762000
0
LINE
8
Layer 1
10
16.396600
20
396.762000
11
16.605600
21
396.740000
0
LINE
8
Layer 1
10
16.605600
20
396.740000
11
16.787600
21
396.635000
0
LINE
8
Layer 1
10
16.787600
20
396.635000
11
16.911100
21
396.465000
0
LINE
8
Layer 1
10
16.911100
20
396.465000
11
16.954800
21
396.259000
0
LINE
8
Layer 1
10
16.954800
20
396.259000
11
16.911100
21
396.053000
0
LINE
8
Layer 1
10
16.911100
20
396.053000
11
16.787600
21
395.883000
0
LINE
8
Layer 1
10
16.787600
20
395.883000
11
16.605600
21
395.778000
0
LINE
8
Layer 1
10
16.605600
20
395.778000
11
16.396600
21
395.756000
0
LINE
8
Layer 1
10
16.396600
20
395.756000
11
16.196700
21
395.821000
0
LINE
8
Layer 1
10
66.692300
20
397.408000
11
66.536100
21
397.549000
0
LINE
8
Layer 1
10
66.536100
20
397.549000
11
66.450600
21
397.741000
0
LINE
8
Layer 1
10
66.450600
20
397.741000
11
66.450600
21
397.951000
0
LINE
8
Layer 1
10
66.450600
20
397.951000
11
66.536100
21
398.143000
0
LINE
8
Layer 1
10
66.536100
20
398.143000
11
66.692300
21
398.284000
0
LINE
8
Layer 1
10
66.692300
20
398.284000
11
66.892100
21
398.348000
0
LINE
8
Layer 1
10
66.892100
20
398.348000
11
67.101200
21
398.326000
0
LINE
8
Layer 1
10
67.101200
20
398.326000
11
67.283200
21
398.221000
0
LINE
8
Layer 1
10
67.283200
20
398.221000
11
67.406700
21
398.051000
0
LINE
8
Layer 1
10
67.406700
20
398.051000
11
67.450400
21
397.846000
0
LINE
8
Layer 1
10
67.450400
20
397.846000
11
67.406700
21
397.640000
0
LINE
8
Layer 1
10
67.406700
20
397.640000
11
67.283200
21
397.470000
0
LINE
8
Layer 1
10
67.283200
20
397.470000
11
67.101200
21
397.365000
0
LINE
8
Layer 1
10
67.101200
20
397.365000
11
66.892100
21
397.343000
0
LINE
8
Layer 1
10
66.892100
20
397.343000
11
66.692300
21
397.408000
0
LINE
8
Layer 1
10
17.996700
20
397.408000
11
17.840500
21
397.549000
0
LINE
8
Layer 1
10
17.840500
20
397.549000
11
17.755000
21
397.741000
0
LINE
8
Layer 1
10
17.755000
20
397.741000
11
17.755000
21
397.951000
0
LINE
8
Layer 1
10
17.755000
20
397.951000
11
17.840500
21
398.143000
0
LINE
8
Layer 1
10
17.840500
20
398.143000
11
17.996700
21
398.284000
0
LINE
8
Layer 1
10
17.996700
20
398.284000
11
18.196500
21
398.348000
0
LINE
8
Layer 1
10
18.196500
20
398.348000
11
18.405600
21
398.326000
0
LINE
8
Layer 1
10
18.405600
20
398.326000
11
18.587600
21
398.221000
0
LINE
8
Layer 1
10
18.587600
20
398.221000
11
18.711100
21
398.051000
0
LINE
8
Layer 1
10
18.711100
20
398.051000
11
18.754800
21
397.846000
0
LINE
8
Layer 1
10
18.754800
20
397.846000
11
18.711100
21
397.640000
0
LINE
8
Layer 1
10
18.711100
20
397.640000
11
18.587600
21
397.470000
0
LINE
8
Layer 1
10
18.587600
20
397.470000
11
18.405600
21
397.365000
0
LINE
8
Layer 1
10
18.405600
20
397.365000
11
18.196500
21
397.343000
0
LINE
8
Layer 1
10
18.196500
20
397.343000
11
17.996700
21
397.408000
0
LINE
8
Layer 1
10
64.796200
20
398.879000
11
64.640000
21
399.019000
0
LINE
8
Layer 1
10
64.640000
20
399.019000
11
64.554500
21
399.211000
0
LINE
8
Layer 1
10
64.554500
20
399.211000
11
64.554500
21
399.422000
0
LINE
8
Layer 1
10
64.554500
20
399.422000
11
64.640000
21
399.614000
0
LINE
8
Layer 1
10
64.640000
20
399.614000
11
64.796200
21
399.754000
0
LINE
8
Layer 1
10
64.796200
20
399.754000
11
64.996100
21
399.819000
0
LINE
8
Layer 1
10
64.996100
20
399.819000
11
65.205100
21
399.797000
0
LINE
8
Layer 1
10
65.205100
20
399.797000
11
65.387100
21
399.692000
0
LINE
8
Layer 1
10
65.387100
20
399.692000
11
65.510600
21
399.522000
0
LINE
8
Layer 1
10
65.510600
20
399.522000
11
65.554400
21
399.317000
0
LINE
8
Layer 1
10
65.554400
20
399.317000
11
65.510600
21
399.111000
0
LINE
8
Layer 1
10
65.510600
20
399.111000
11
65.387100
21
398.941000
0
LINE
8
Layer 1
10
65.387100
20
398.941000
11
65.205100
21
398.836000
0
LINE
8
Layer 1
10
65.205100
20
398.836000
11
64.996100
21
398.814000
0
LINE
8
Layer 1
10
64.996100
20
398.814000
11
64.796200
21
398.879000
0
LINE
8
Layer 1
10
19.892700
20
398.879000
11
19.736500
21
399.019000
0
LINE
8
Layer 1
10
19.736500
20
399.019000
11
19.651100
21
399.211000
0
LINE
8
Layer 1
10
19.651100
20
399.211000
11
19.651100
21
399.422000
0
LINE
8
Layer 1
10
19.651100
20
399.422000
11
19.736500
21
399.614000
0
LINE
8
Layer 1
10
19.736500
20
399.614000
11
19.892700
21
399.754000
0
LINE
8
Layer 1
10
19.892700
20
399.754000
11
20.092600
21
399.819000
0
LINE
8
Layer 1
10
20.092600
20
399.819000
11
20.301600
21
399.797000
0
LINE
8
Layer 1
10
20.301600
20
399.797000
11
20.483700
21
399.692000
0
LINE
8
Layer 1
10
20.483700
20
399.692000
11
20.607200
21
399.522000
0
LINE
8
Layer 1
10
20.607200
20
399.522000
11
20.650900
21
399.317000
0
LINE
8
Layer 1
10
20.650900
20
399.317000
11
20.607200
21
399.111000
0
LINE
8
Layer 1
10
20.607200
20
399.111000
11
20.483700
21
398.941000
0
LINE
8
Layer 1
10
20.483700
20
398.941000
11
20.301600
21
398.836000
0
LINE
8
Layer 1
10
20.301600
20
398.836000
11
20.092600
21
398.814000
0
LINE
8
Layer 1
10
20.092600
20
398.814000
11
19.892700
21
398.879000
0
LINE
8
Layer 1
10
62.811500
20
400.228000
11
62.655300
21
400.368000
0
LINE
8
Layer 1
10
62.655300
20
400.368000
11
62.569900
21
400.560000
0
LINE
8
Layer 1
10
62.569900
20
400.560000
11
62.569900
21
400.770000
0
LINE
8
Layer 1
10
62.569900
20
400.770000
11
62.655300
21
400.962000
0
LINE
8
Layer 1
10
62.655300
20
400.962000
11
62.811500
21
401.103000
0
LINE
8
Layer 1
10
62.811500
20
401.103000
11
63.011400
21
401.168000
0
LINE
8
Layer 1
10
63.011400
20
401.168000
11
63.220400
21
401.146000
0
LINE
8
Layer 1
10
63.220400
20
401.146000
11
63.402500
21
401.041000
0
LINE
8
Layer 1
10
63.402500
20
401.041000
11
63.526000
21
400.871000
0
LINE
8
Layer 1
10
63.526000
20
400.871000
11
63.569700
21
400.665000
0
LINE
8
Layer 1
10
63.569700
20
400.665000
11
63.526000
21
400.460000
0
LINE
8
Layer 1
10
63.526000
20
400.460000
11
63.402500
21
400.290000
0
LINE
8
Layer 1
10
63.402500
20
400.290000
11
63.220400
21
400.185000
0
LINE
8
Layer 1
10
63.220400
20
400.185000
11
63.011400
21
400.163000
0
LINE
8
Layer 1
10
63.011400
20
400.163000
11
62.811500
21
400.228000
0
LINE
8
Layer 1
10
21.877400
20
400.228000
11
21.721200
21
400.368000
0
LINE
8
Layer 1
10
21.721200
20
400.368000
11
21.635700
21
400.560000
0
LINE
8
Layer 1
10
21.635700
20
400.560000
11
21.635700
21
400.770000
0
LINE
8
Layer 1
10
21.635700
20
400.770000
11
21.721200
21
400.962000
0
LINE
8
Layer 1
10
21.721200
20
400.962000
11
21.877400
21
401.103000
0
LINE
8
Layer 1
10
21.877400
20
401.103000
11
22.077300
21
401.168000
0
LINE
8
Layer 1
10
22.077300
20
401.168000
11
22.286300
21
401.146000
0
LINE
8
Layer 1
10
22.286300
20
401.146000
11
22.468300
21
401.041000
0
LINE
8
Layer 1
10
22.468300
20
401.041000
11
22.591800
21
400.871000
0
LINE
8
Layer 1
10
22.591800
20
400.871000
11
22.635500
21
400.665000
0
LINE
8
Layer 1
10
22.635500
20
400.665000
11
22.591800
21
400.460000
0
LINE
8
Layer 1
10
22.591800
20
400.460000
11
22.468300
21
400.290000
0
LINE
8
Layer 1
10
22.468300
20
400.290000
11
22.286300
21
400.185000
0
LINE
8
Layer 1
10
22.286300
20
400.185000
11
22.077300
21
400.163000
0
LINE
8
Layer 1
10
22.077300
20
400.163000
11
21.877400
21
400.228000
0
LINE
8
Layer 1
10
60.746100
20
401.449000
11
60.589900
21
401.590000
0
LINE
8
Layer 1
10
60.589900
20
401.590000
11
60.504400
21
401.782000
0
LINE
8
Layer 1
10
60.504400
20
401.782000
11
60.504400
21
401.992000
0
LINE
8
Layer 1
10
60.504400
20
401.992000
11
60.589900
21
402.184000
0
LINE
8
Layer 1
10
60.589900
20
402.184000
11
60.746100
21
402.325000
0
LINE
8
Layer 1
10
60.746100
20
402.325000
11
60.946000
21
402.389000
0
LINE
8
Layer 1
10
60.946000
20
402.389000
11
61.155000
21
402.368000
0
LINE
8
Layer 1
10
61.155000
20
402.368000
11
61.337000
21
402.262000
0
LINE
8
Layer 1
10
61.337000
20
402.262000
11
61.460500
21
402.092000
0
LINE
8
Layer 1
10
61.460500
20
402.092000
11
61.504200
21
401.887000
0
LINE
8
Layer 1
10
61.504200
20
401.887000
11
61.460500
21
401.681000
0
LINE
8
Layer 1
10
61.460500
20
401.681000
11
61.337000
21
401.511000
0
LINE
8
Layer 1
10
61.337000
20
401.511000
11
61.155000
21
401.406000
0
LINE
8
Layer 1
10
61.155000
20
401.406000
11
60.946000
21
401.384000
0
LINE
8
Layer 1
10
60.946000
20
401.384000
11
60.746100
21
401.449000
0
LINE
8
Layer 1
10
23.942800
20
401.449000
11
23.786700
21
401.590000
0
LINE
8
Layer 1
10
23.786700
20
401.590000
11
23.701200
21
401.782000
0
LINE
8
Layer 1
10
23.701200
20
401.782000
11
23.701200
21
401.992000
0
LINE
8
Layer 1
10
23.701200
20
401.992000
11
23.786700
21
402.184000
0
LINE
8
Layer 1
10
23.786700
20
402.184000
11
23.942800
21
402.325000
0
LINE
8
Layer 1
10
23.942800
20
402.325000
11
24.142700
21
402.389000
0
LINE
8
Layer 1
10
24.142700
20
402.389000
11
24.351700
21
402.368000
0
LINE
8
Layer 1
10
24.351700
20
402.368000
11
24.533800
21
402.262000
0
LINE
8
Layer 1
10
24.533800
20
402.262000
11
24.657300
21
402.092000
0
LINE
8
Layer 1
10
24.657300
20
402.092000
11
24.701000
21
401.887000
0
LINE
8
Layer 1
10
24.701000
20
401.887000
11
24.657300
21
401.681000
0
LINE
8
Layer 1
10
24.657300
20
401.681000
11
24.533800
21
401.511000
0
LINE
8
Layer 1
10
24.533800
20
401.511000
11
24.351700
21
401.406000
0
LINE
8
Layer 1
10
24.351700
20
401.406000
11
24.142700
21
401.384000
0
LINE
8
Layer 1
10
24.142700
20
401.384000
11
23.942800
21
401.449000
0
LINE
8
Layer 1
10
58.608000
20
402.538000
11
58.451800
21
402.679000
0
LINE
8
Layer 1
10
58.451800
20
402.679000
11
58.366400
21
402.871000
0
LINE
8
Layer 1
10
58.366400
20
402.871000
11
58.366400
21
403.081000
0
LINE
8
Layer 1
10
58.366400
20
403.081000
11
58.451800
21
403.273000
0
LINE
8
Layer 1
10
58.451800
20
403.273000
11
58.608000
21
403.414000
0
LINE
8
Layer 1
10
58.608000
20
403.414000
11
58.807900
21
403.479000
0
LINE
8
Layer 1
10
58.807900
20
403.479000
11
59.016900
21
403.457000
0
LINE
8
Layer 1
10
59.016900
20
403.457000
11
59.199000
21
403.352000
0
LINE
8
Layer 1
10
59.199000
20
403.352000
11
59.322500
21
403.182000
0
LINE
8
Layer 1
10
59.322500
20
403.182000
11
59.366200
21
402.976000
0
LINE
8
Layer 1
10
59.366200
20
402.976000
11
59.322500
21
402.771000
0
LINE
8
Layer 1
10
59.322500
20
402.771000
11
59.199000
21
402.601000
0
LINE
8
Layer 1
10
59.199000
20
402.601000
11
59.016900
21
402.496000
0
LINE
8
Layer 1
10
59.016900
20
402.496000
11
58.807900
21
402.474000
0
LINE
8
Layer 1
10
58.807900
20
402.474000
11
58.608000
21
402.538000
0
LINE
8
Layer 1
10
26.080900
20
402.538000
11
25.924700
21
402.679000
0
LINE
8
Layer 1
10
25.924700
20
402.679000
11
25.839200
21
402.871000
0
LINE
8
Layer 1
10
25.839200
20
402.871000
11
25.839200
21
403.081000
0
LINE
8
Layer 1
10
25.839200
20
403.081000
11
25.924700
21
403.273000
0
LINE
8
Layer 1
10
25.924700
20
403.273000
11
26.080900
21
403.414000
0
LINE
8
Layer 1
10
26.080900
20
403.414000
11
26.280800
21
403.479000
0
LINE
8
Layer 1
10
26.280800
20
403.479000
11
26.489800
21
403.457000
0
LINE
8
Layer 1
10
26.489800
20
403.457000
11
26.671800
21
403.352000
0
LINE
8
Layer 1
10
26.671800
20
403.352000
11
26.795300
21
403.182000
0
LINE
8
Layer 1
10
26.795300
20
403.182000
11
26.839100
21
402.976000
0
LINE
8
Layer 1
10
26.839100
20
402.976000
11
26.795300
21
402.771000
0
LINE
8
Layer 1
10
26.795300
20
402.771000
11
26.671800
21
402.601000
0
LINE
8
Layer 1
10
26.671800
20
402.601000
11
26.489800
21
402.496000
0
LINE
8
Layer 1
10
26.489800
20
402.496000
11
26.280800
21
402.474000
0
LINE
8
Layer 1
10
26.280800
20
402.474000
11
26.080900
21
402.538000
0
LINE
8
Layer 1
10
56.405800
20
403.491000
11
56.249600
21
403.632000
0
LINE
8
Layer 1
10
56.249600
20
403.632000
11
56.164100
21
403.824000
0
LINE
8
Layer 1
10
56.164100
20
403.824000
11
56.164100
21
404.034000
0
LINE
8
Layer 1
10
56.164100
20
404.034000
11
56.249600
21
404.226000
0
LINE
8
Layer 1
10
56.249600
20
404.226000
11
56.405800
21
404.367000
0
LINE
8
Layer 1
10
56.405800
20
404.367000
11
56.605600
21
404.432000
0
LINE
8
Layer 1
10
56.605600
20
404.432000
11
56.814700
21
404.410000
0
LINE
8
Layer 1
10
56.814700
20
404.410000
11
56.996700
21
404.305000
0
LINE
8
Layer 1
10
56.996700
20
404.305000
11
57.120200
21
404.135000
0
LINE
8
Layer 1
10
57.120200
20
404.135000
11
57.163900
21
403.929000
0
LINE
8
Layer 1
10
57.163900
20
403.929000
11
57.120200
21
403.724000
0
LINE
8
Layer 1
10
57.120200
20
403.724000
11
56.996700
21
403.554000
0
LINE
8
Layer 1
10
56.996700
20
403.554000
11
56.814700
21
403.449000
0
LINE
8
Layer 1
10
56.814700
20
403.449000
11
56.605600
21
403.427000
0
LINE
8
Layer 1
10
56.605600
20
403.427000
11
56.405800
21
403.491000
0
LINE
8
Layer 1
10
28.283200
20
403.491000
11
28.127000
21
403.632000
0
LINE
8
Layer 1
10
28.127000
20
403.632000
11
28.041500
21
403.824000
0
LINE
8
Layer 1
10
28.041500
20
403.824000
11
28.041500
21
404.034000
0
LINE
8
Layer 1
10
28.041500
20
404.034000
11
28.127000
21
404.226000
0
LINE
8
Layer 1
10
28.127000
20
404.226000
11
28.283200
21
404.367000
0
LINE
8
Layer 1
10
28.283200
20
404.367000
11
28.483000
21
404.432000
0
LINE
8
Layer 1
10
28.483000
20
404.432000
11
28.692100
21
404.410000
0
LINE
8
Layer 1
10
28.692100
20
404.410000
11
28.874100
21
404.305000
0
LINE
8
Layer 1
10
28.874100
20
404.305000
11
28.997600
21
404.135000
0
LINE
8
Layer 1
10
28.997600
20
404.135000
11
29.041300
21
403.929000
0
LINE
8
Layer 1
10
29.041300
20
403.929000
11
28.997600
21
403.724000
0
LINE
8
Layer 1
10
28.997600
20
403.724000
11
28.874100
21
403.554000
0
LINE
8
Layer 1
10
28.874100
20
403.554000
11
28.692100
21
403.449000
0
LINE
8
Layer 1
10
28.692100
20
403.449000
11
28.483000
21
403.427000
0
LINE
8
Layer 1
10
28.483000
20
403.427000
11
28.283200
21
403.491000
0
LINE
8
Layer 1
10
54.148000
20
404.304000
11
53.991900
21
404.445000
0
LINE
8
Layer 1
10
53.991900
20
404.445000
11
53.906400
21
404.637000
0
LINE
8
Layer 1
10
53.906400
20
404.637000
11
53.906400
21
404.847000
0
LINE
8
Layer 1
10
53.906400
20
404.847000
11
53.991900
21
405.039000
0
LINE
8
Layer 1
10
53.991900
20
405.039000
11
54.148000
21
405.180000
0
LINE
8
Layer 1
10
54.148000
20
405.180000
11
54.347900
21
405.245000
0
LINE
8
Layer 1
10
54.347900
20
405.245000
11
54.556900
21
405.223000
0
LINE
8
Layer 1
10
54.556900
20
405.223000
11
54.739000
21
405.118000
0
LINE
8
Layer 1
10
54.739000
20
405.118000
11
54.862500
21
404.948000
0
LINE
8
Layer 1
10
54.862500
20
404.948000
11
54.906200
21
404.742000
0
LINE
8
Layer 1
10
54.906200
20
404.742000
11
54.862500
21
404.536000
0
LINE
8
Layer 1
10
54.862500
20
404.536000
11
54.739000
21
404.366000
0
LINE
8
Layer 1
10
54.739000
20
404.366000
11
54.556900
21
404.261000
0
LINE
8
Layer 1
10
54.556900
20
404.261000
11
54.347900
21
404.239000
0
LINE
8
Layer 1
10
54.347900
20
404.239000
11
54.148000
21
404.304000
0
LINE
8
Layer 1
10
30.540900
20
404.304000
11
30.384700
21
404.445000
0
LINE
8
Layer 1
10
30.384700
20
404.445000
11
30.299200
21
404.637000
0
LINE
8
Layer 1
10
30.299200
20
404.637000
11
30.299200
21
404.847000
0
LINE
8
Layer 1
10
30.299200
20
404.847000
11
30.384700
21
405.039000
0
LINE
8
Layer 1
10
30.384700
20
405.039000
11
30.540900
21
405.180000
0
LINE
8
Layer 1
10
30.540900
20
405.180000
11
30.740800
21
405.245000
0
LINE
8
Layer 1
10
30.740800
20
405.245000
11
30.949800
21
405.223000
0
LINE
8
Layer 1
10
30.949800
20
405.223000
11
31.131800
21
405.118000
0
LINE
8
Layer 1
10
31.131800
20
405.118000
11
31.255300
21
404.948000
0
LINE
8
Layer 1
10
31.255300
20
404.948000
11
31.299000
21
404.742000
0
LINE
8
Layer 1
10
31.299000
20
404.742000
11
31.255300
21
404.536000
0
LINE
8
Layer 1
10
31.255300
20
404.536000
11
31.131800
21
404.366000
0
LINE
8
Layer 1
10
31.131800
20
404.366000
11
30.949800
21
404.261000
0
LINE
8
Layer 1
10
30.949800
20
404.261000
11
30.740800
21
404.239000
0
LINE
8
Layer 1
10
30.740800
20
404.239000
11
30.540900
21
404.304000
0
LINE
8
Layer 1
10
51.843700
20
404.974000
11
51.687500
21
405.114000
0
LINE
8
Layer 1
10
51.687500
20
405.114000
11
51.602000
21
405.306000
0
LINE
8
Layer 1
10
51.602000
20
405.306000
11
51.602000
21
405.517000
0
LINE
8
Layer 1
10
51.602000
20
405.517000
11
51.687500
21
405.709000
0
LINE
8
Layer 1
10
51.687500
20
405.709000
11
51.843700
21
405.849000
0
LINE
8
Layer 1
10
51.843700
20
405.849000
11
52.043600
21
405.914000
0
LINE
8
Layer 1
10
52.043600
20
405.914000
11
52.252600
21
405.892000
0
LINE
8
Layer 1
10
52.252600
20
405.892000
11
52.434600
21
405.787000
0
LINE
8
Layer 1
10
52.434600
20
405.787000
11
52.558200
21
405.617000
0
LINE
8
Layer 1
10
52.558200
20
405.617000
11
52.601900
21
405.412000
0
LINE
8
Layer 1
10
52.601900
20
405.412000
11
52.558200
21
405.206000
0
LINE
8
Layer 1
10
52.558200
20
405.206000
11
52.434600
21
405.036000
0
LINE
8
Layer 1
10
52.434600
20
405.036000
11
52.252600
21
404.931000
0
LINE
8
Layer 1
10
52.252600
20
404.931000
11
52.043600
21
404.909000
0
LINE
8
Layer 1
10
52.043600
20
404.909000
11
51.843700
21
404.974000
0
LINE
8
Layer 1
10
32.845200
20
404.974000
11
32.689000
21
405.114000
0
LINE
8
Layer 1
10
32.689000
20
405.114000
11
32.603500
21
405.306000
0
LINE
8
Layer 1
10
32.603500
20
405.306000
11
32.603500
21
405.517000
0
LINE
8
Layer 1
10
32.603500
20
405.517000
11
32.689000
21
405.709000
0
LINE
8
Layer 1
10
32.689000
20
405.709000
11
32.845200
21
405.849000
0
LINE
8
Layer 1
10
32.845200
20
405.849000
11
33.045100
21
405.914000
0
LINE
8
Layer 1
10
33.045100
20
405.914000
11
33.254100
21
405.892000
0
LINE
8
Layer 1
10
33.254100
20
405.892000
11
33.436200
21
405.787000
0
LINE
8
Layer 1
10
33.436200
20
405.787000
11
33.559600
21
405.617000
0
LINE
8
Layer 1
10
33.559600
20
405.617000
11
33.603400
21
405.412000
0
LINE
8
Layer 1
10
33.603400
20
405.412000
11
33.559600
21
405.206000
0
LINE
8
Layer 1
10
33.559600
20
405.206000
11
33.436200
21
405.036000
0
LINE
8
Layer 1
10
33.436200
20
405.036000
11
33.254100
21
404.931000
0
LINE
8
Layer 1
10
33.254100
20
404.931000
11
33.045100
21
404.909000
0
LINE
8
Layer 1
10
33.045100
20
404.909000
11
32.845200
21
404.974000
0
LINE
8
Layer 1
10
49.501900
20
405.497000
11
49.345700
21
405.638000
0
LINE
8
Layer 1
10
49.345700
20
405.638000
11
49.260200
21
405.830000
0
LINE
8
Layer 1
10
49.260200
20
405.830000
11
49.260200
21
406.040000
0
LINE
8
Layer 1
10
49.260200
20
406.040000
11
49.345700
21
406.232000
0
LINE
8
Layer 1
10
49.345700
20
406.232000
11
49.501900
21
406.373000
0
LINE
8
Layer 1
10
49.501900
20
406.373000
11
49.701800
21
406.438000
0
LINE
8
Layer 1
10
49.701800
20
406.438000
11
49.910800
21
406.416000
0
LINE
8
Layer 1
10
49.910800
20
406.416000
11
50.092800
21
406.311000
0
LINE
8
Layer 1
10
50.092800
20
406.311000
11
50.216300
21
406.141000
0
LINE
8
Layer 1
10
50.216300
20
406.141000
11
50.260000
21
405.935000
0
LINE
8
Layer 1
10
50.260000
20
405.935000
11
50.216300
21
405.729000
0
LINE
8
Layer 1
10
50.216300
20
405.729000
11
50.092800
21
405.559000
0
LINE
8
Layer 1
10
50.092800
20
405.559000
11
49.910800
21
405.454000
0
LINE
8
Layer 1
10
49.910800
20
405.454000
11
49.701800
21
405.432000
0
LINE
8
Layer 1
10
49.701800
20
405.432000
11
49.501900
21
405.497000
0
LINE
8
Layer 1
10
35.187000
20
405.497000
11
35.030900
21
405.638000
0
LINE
8
Layer 1
10
35.030900
20
405.638000
11
34.945400
21
405.830000
0
LINE
8
Layer 1
10
34.945400
20
405.830000
11
34.945400
21
406.040000
0
LINE
8
Layer 1
10
34.945400
20
406.040000
11
35.030900
21
406.232000
0
LINE
8
Layer 1
10
35.030900
20
406.232000
11
35.187000
21
406.373000
0
LINE
8
Layer 1
10
35.187000
20
406.373000
11
35.386900
21
406.438000
0
LINE
8
Layer 1
10
35.386900
20
406.438000
11
35.595900
21
406.416000
0
LINE
8
Layer 1
10
35.595900
20
406.416000
11
35.778000
21
406.311000
0
LINE
8
Layer 1
10
35.778000
20
406.311000
11
35.901500
21
406.141000
0
LINE
8
Layer 1
10
35.901500
20
406.141000
11
35.945200
21
405.935000
0
LINE
8
Layer 1
10
35.945200
20
405.935000
11
35.901500
21
405.729000
0
LINE
8
Layer 1
10
35.901500
20
405.729000
11
35.778000
21
405.559000
0
LINE
8
Layer 1
10
35.778000
20
405.559000
11
35.595900
21
405.454000
0
LINE
8
Layer 1
10
35.595900
20
405.454000
11
35.386900
21
405.432000
0
LINE
8
Layer 1
10
35.386900
20
405.432000
11
35.187000
21
405.497000
0
LINE
8
Layer 1
10
47.131800
20
405.873000
11
46.975600
21
406.013000
0
LINE
8
Layer 1
10
46.975600
20
406.013000
11
46.890200
21
406.205000
0
LINE
8
Layer 1
10
46.890200
20
406.205000
11
46.890200
21
406.415000
0
LINE
8
Layer 1
10
46.890200
20
406.415000
11
46.975600
21
406.607000
0
LINE
8
Layer 1
10
46.975600
20
406.607000
11
47.131800
21
406.748000
0
LINE
8
Layer 1
10
47.131800
20
406.748000
11
47.331700
21
406.813000
0
LINE
8
Layer 1
10
47.331700
20
406.813000
11
47.540700
21
406.791000
0
LINE
8
Layer 1
10
47.540700
20
406.791000
11
47.722800
21
406.686000
0
LINE
8
Layer 1
10
47.722800
20
406.686000
11
47.846300
21
406.516000
0
LINE
8
Layer 1
10
47.846300
20
406.516000
11
47.890000
21
406.310000
0
LINE
8
Layer 1
10
47.890000
20
406.310000
11
47.846300
21
406.105000
0
LINE
8
Layer 1
10
47.846300
20
406.105000
11
47.722800
21
405.935000
0
LINE
8
Layer 1
10
47.722800
20
405.935000
11
47.540700
21
405.830000
0
LINE
8
Layer 1
10
47.540700
20
405.830000
11
47.331700
21
405.808000
0
LINE
8
Layer 1
10
47.331700
20
405.808000
11
47.131800
21
405.873000
0
LINE
8
Layer 1
10
37.557100
20
405.873000
11
37.400900
21
406.013000
0
LINE
8
Layer 1
10
37.400900
20
406.013000
11
37.315400
21
406.205000
0
LINE
8
Layer 1
10
37.315400
20
406.205000
11
37.315400
21
406.415000
0
LINE
8
Layer 1
10
37.315400
20
406.415000
11
37.400900
21
406.607000
0
LINE
8
Layer 1
10
37.400900
20
406.607000
11
37.557100
21
406.748000
0
LINE
8
Layer 1
10
37.557100
20
406.748000
11
37.757000
21
406.813000
0
LINE
8
Layer 1
10
37.757000
20
406.813000
11
37.966000
21
406.791000
0
LINE
8
Layer 1
10
37.966000
20
406.791000
11
38.148000
21
406.686000
0
LINE
8
Layer 1
10
38.148000
20
406.686000
11
38.271500
21
406.516000
0
LINE
8
Layer 1
10
38.271500
20
406.516000
11
38.315200
21
406.310000
0
LINE
8
Layer 1
10
38.315200
20
406.310000
11
38.271500
21
406.105000
0
LINE
8
Layer 1
10
38.271500
20
406.105000
11
38.148000
21
405.935000
0
LINE
8
Layer 1
10
38.148000
20
405.935000
11
37.966000
21
405.830000
0
LINE
8
Layer 1
10
37.966000
20
405.830000
11
37.757000
21
405.808000
0
LINE
8
Layer 1
10
37.757000
20
405.808000
11
37.557100
21
405.873000
0
LINE
8
Layer 1
10
44.742900
20
406.098000
11
44.586700
21
406.239000
0
LINE
8
Layer 1
10
44.586700
20
406.239000
11
44.501200
21
406.431000
0
LINE
8
Layer 1
10
44.501200
20
406.431000
11
44.501200
21
406.641000
0
LINE
8
Layer 1
10
44.501200
20
406.641000
11
44.586700
21
406.833000
0
LINE
8
Layer 1
10
44.586700
20
406.833000
11
44.742900
21
406.974000
0
LINE
8
Layer 1
10
44.742900
20
406.974000
11
44.942700
21
407.039000
0
LINE
8
Layer 1
10
44.942700
20
407.039000
11
45.151800
21
407.017000
0
LINE
8
Layer 1
10
45.151800
20
407.017000
11
45.333800
21
406.912000
0
LINE
8
Layer 1
10
45.333800
20
406.912000
11
45.457300
21
406.742000
0
LINE
8
Layer 1
10
45.457300
20
406.742000
11
45.501000
21
406.536000
0
LINE
8
Layer 1
10
45.501000
20
406.536000
11
45.457300
21
406.331000
0
LINE
8
Layer 1
10
45.457300
20
406.331000
11
45.333800
21
406.161000
0
LINE
8
Layer 1
10
45.333800
20
406.161000
11
45.151800
21
406.055000
0
LINE
8
Layer 1
10
45.151800
20
406.055000
11
44.942700
21
406.034000
0
LINE
8
Layer 1
10
44.942700
20
406.034000
11
44.742900
21
406.098000
0
LINE
8
Layer 1
10
39.946100
20
406.098000
11
39.789900
21
406.239000
0
LINE
8
Layer 1
10
39.789900
20
406.239000
11
39.704400
21
406.431000
0
LINE
8
Layer 1
10
39.704400
20
406.431000
11
39.704400
21
406.641000
0
LINE
8
Layer 1
10
39.704400
20
406.641000
11
39.789900
21
406.833000
0
LINE
8
Layer 1
10
39.789900
20
406.833000
11
39.946100
21
406.974000
0
LINE
8
Layer 1
10
39.946100
20
406.974000
11
40.145900
21
407.039000
0
LINE
8
Layer 1
10
40.145900
20
407.039000
11
40.355000
21
407.017000
0
LINE
8
Layer 1
10
40.355000
20
407.017000
11
40.537000
21
406.912000
0
LINE
8
Layer 1
10
40.537000
20
406.912000
11
40.660500
21
406.742000
0
LINE
8
Layer 1
10
40.660500
20
406.742000
11
40.704200
21
406.536000
0
LINE
8
Layer 1
10
40.704200
20
406.536000
11
40.660500
21
406.331000
0
LINE
8
Layer 1
10
40.660500
20
406.331000
11
40.537000
21
406.161000
0
LINE
8
Layer 1
10
40.537000
20
406.161000
11
40.355000
21
406.055000
0
LINE
8
Layer 1
10
40.355000
20
406.055000
11
40.145900
21
406.034000
0
LINE
8
Layer 1
10
40.145900
20
406.034000
11
39.946100
21
406.098000
0
LINE
8
Layer 1
10
42.344500
20
406.174000
11
42.188300
21
406.314000
0
LINE
8
Layer 1
10
42.188300
20
406.314000
11
42.102800
21
406.506000
0
LINE
8
Layer 1
10
42.102800
20
406.506000
11
42.102800
21
406.717000
0
LINE
8
Layer 1
10
42.102800
20
406.717000
11
42.188300
21
406.909000
0
LINE
8
Layer 1
10
42.188300
20
406.909000
11
42.344500
21
407.049000
0
LINE
8
Layer 1
10
42.344500
20
407.049000
11
42.544300
21
407.114000
0
LINE
8
Layer 1
10
42.544300
20
407.114000
11
42.753400
21
407.092000
0
LINE
8
Layer 1
10
42.753400
20
407.092000
11
42.935400
21
406.987000
0
LINE
8
Layer 1
10
42.935400
20
406.987000
11
43.058900
21
406.817000
0
LINE
8
Layer 1
10
43.058900
20
406.817000
11
43.102600
21
406.612000
0
LINE
8
Layer 1
10
43.102600
20
406.612000
11
43.058900
21
406.406000
0
LINE
8
Layer 1
10
43.058900
20
406.406000
11
42.935400
21
406.236000
0
LINE
8
Layer 1
10
42.935400
20
406.236000
11
42.753400
21
406.131000
0
LINE
8
Layer 1
10
42.753400
20
406.131000
11
42.544300
21
406.109000
0
LINE
8
Layer 1
10
42.544300
20
406.109000
11
42.344500
21
406.174000
0
LINE
8
Layer 1
10
46.745900
20
328.942000
11
50.849200
21
329.592000
0
LINE
8
Layer 1
10
50.849200
20
329.592000
11
54.862000
21
330.667000
0
LINE
8
Layer 1
10
54.862000
20
330.667000
11
58.740500
21
332.156000
0
LINE
8
Layer 1
10
58.740500
20
332.156000
11
62.442100
21
334.042000
0
LINE
8
Layer 1
10
62.442100
20
334.042000
11
65.926300
21
336.305000
0
LINE
8
Layer 1
10
65.926300
20
336.305000
11
69.154800
21
338.919000
0
LINE
8
Layer 1
10
69.154800
20
338.919000
11
72.092500
21
341.857000
0
LINE
8
Layer 1
10
72.092500
20
341.857000
11
74.706900
21
345.085000
0
LINE
8
Layer 1
10
74.706900
20
345.085000
11
76.969600
21
348.569000
0
LINE
8
Layer 1
10
76.969600
20
348.569000
11
78.855600
21
352.271000
0
LINE
8
Layer 1
10
78.855600
20
352.271000
11
80.344400
21
356.150000
0
LINE
8
Layer 1
10
80.344400
20
356.150000
11
81.419700
21
360.162000
0
LINE
8
Layer 1
10
81.419700
20
360.162000
11
82.069600
21
364.266000
0
LINE
8
Layer 1
10
82.069600
20
364.266000
11
82.287000
21
368.414000
0
LINE
8
Layer 1
10
82.287000
20
368.414000
11
82.069600
21
372.563000
0
LINE
8
Layer 1
10
82.069600
20
372.563000
11
81.419700
21
376.666000
0
LINE
8
Layer 1
10
81.419700
20
376.666000
11
80.344400
21
380.679000
0
LINE
8
Layer 1
10
80.344400
20
380.679000
11
78.855600
21
384.558000
0
LINE
8
Layer 1
10
78.855600
20
384.558000
11
76.969600
21
388.259000
0
LINE
8
Layer 1
10
76.969600
20
388.259000
11
74.706900
21
391.743000
0
LINE
8
Layer 1
10
74.706900
20
391.743000
11
72.092500
21
394.972000
0
LINE
8
Layer 1
10
72.092500
20
394.972000
11
69.154800
21
397.910000
0
LINE
8
Layer 1
10
69.154800
20
397.910000
11
65.926300
21
400.524000
0
LINE
8
Layer 1
10
65.926300
20
400.524000
11
62.442100
21
402.787000
0
LINE
8
Layer 1
10
62.442100
20
402.787000
11
58.740500
21
404.673000
0
LINE
8
Layer 1
10
58.740500
20
404.673000
11
54.862000
21
406.162000
0
LINE
8
Layer 1
10
54.862000
20
406.162000
11
50.849200
21
407.237000
0
LINE
8
Layer 1
10
50.849200
20
407.237000
11
46.745900
21
407.887000
0
LINE
8
Layer 1
10
46.745900
20
407.887000
11
42.597200
21
408.104000
0
LINE
8
Layer 1
10
42.597200
20
408.104000
11
38.448500
21
407.887000
0
LINE
8
Layer 1
10
38.448500
20
407.887000
11
34.345200
21
407.237000
0
LINE
8
Layer 1
10
34.345200
20
407.237000
11
30.332400
21
406.162000
0
LINE
8
Layer 1
10
30.332400
20
406.162000
11
26.453900
21
404.673000
0
LINE
8
Layer 1
10
26.453900
20
404.673000
11
22.752300
21
402.787000
0
LINE
8
Layer 1
10
22.752300
20
402.787000
11
19.268100
21
400.524000
0
LINE
8
Layer 1
10
19.268100
20
400.524000
11
16.039500
21
397.910000
0
LINE
8
Layer 1
10
16.039500
20
397.910000
11
13.101900
21
394.972000
0
LINE
8
Layer 1
10
13.101900
20
394.972000
11
10.487500
21
391.743000
0
LINE
8
Layer 1
10
10.487500
20
391.743000
11
8.224810
21
388.259000
0
LINE
8
Layer 1
10
8.224810
20
388.259000
11
6.338730
21
384.558000
0
LINE
8
Layer 1
10
6.338730
20
384.558000
11
4.849950
21
380.679000
0
LINE
8
Layer 1
10
4.849950
20
380.679000
11
3.774690
21
376.666000
0
LINE
8
Layer 1
10
3.774690
20
376.666000
11
3.124800
21
372.563000
0
LINE
8
Layer 1
10
3.124800
20
372.563000
11
2.907380
21
368.414000
0
LINE
8
Layer 1
10
2.907380
20
368.414000
11
3.124800
21
364.266000
0
LINE
8
Layer 1
10
3.124800
20
364.266000
11
3.774690
21
360.162000
0
LINE
8
Layer 1
10
3.774690
20
360.162000
11
4.849950
21
356.150000
0
LINE
8
Layer 1
10
4.849950
20
356.150000
11
6.338730
21
352.271000
0
LINE
8
Layer 1
10
6.338730
20
352.271000
11
8.224810
21
348.569000
0
LINE
8
Layer 1
10
8.224810
20
348.569000
11
10.487500
21
345.085000
0
LINE
8
Layer 1
10
10.487500
20
345.085000
11
13.101900
21
341.857000
0
LINE
8
Layer 1
10
13.101900
20
341.857000
11
16.039500
21
338.919000
0
LINE
8
Layer 1
10
16.039500
20
338.919000
11
19.268100
21
336.305000
0
LINE
8
Layer 1
10
19.268100
20
336.305000
11
22.752300
21
334.042000
0
LINE
8
Layer 1
10
22.752300
20
334.042000
11
26.453900
21
332.156000
0
LINE
8
Layer 1
10
26.453900
20
332.156000
11
30.332400
21
330.667000
0
LINE
8
Layer 1
10
30.332400
20
330.667000
11
34.345200
21
329.592000
0
LINE
8
Layer 1
10
34.345200
20
329.592000
11
38.448500
21
328.942000
0
LINE
8
Layer 1
10
38.448500
20
328.942000
11
42.597200
21
328.725000
0
LINE
8
Layer 1
10
42.597200
20
328.725000
11
46.745900
21
328.942000
 0 
ENDSEC
 0 
EOF