<svg xmlns="http://www.w3.org/2000/svg" width="197mm" height="198mm" viewBox="-1 -197 197 198" version="1.1">
<title>OpenSCAD Model</title>
<path d="M 142.137,-50.3596 L 142.137,-46.3596 L 138.917,-46.3596 L 138.917,-50.3596 M 4.61,-50.3596 L 4.61,-46.3596 L 1.38998,-46.3596 L 1.38998,-50.3596 M -0.0899963,-50.3596 L -0.0899963,-17.41 L 3.42142,-17.41 L 3.94669,-17.3687 L 4.45549,-17.2465 L 4.93889,-17.0463 L 5.38507,-16.7728 L 5.78299,-16.433 L 6.12285,-16.0351 L 6.39626,-15.5889 L 6.5965,-15.1055 L 6.71866,-14.5967 L 6.75972,-14.075 L 6.71866,-13.5533 L 6.5965,-13.0445 L 6.39626,-12.5611 L 6.12285,-12.1149 L 5.78299,-11.717 L 5.38507,-11.3772 L 4.93889,-11.1037 L 4.45549,-10.9035 L 3.94669,-10.7813 L 3.42142,-10.74 L 1.24646,-10.74 L 1.04034,-10.7238 L 0.835861,-10.6747 L 0.641556,-10.5942 L 0.462219,-10.4843 L 0.302292,-10.3477 L 0.16571,-10.1878 L 0.0558167,-10.0085 L -0.0246582,-9.81415 L -0.073761,-9.60966 L -0.0899963,-9.40355 L -0.0899963,0.0899963 L 143.617,0.0899963 M 71.1896,-37.1377 L 70.7602,-37.2772 L 70.3693,-37.5029 L 70.0338,-37.805 L 69.7684,-38.1703 L 69.5848,-38.5827 L 69.4909,-39.0242 L 69.4909,-39.4757 L 69.5848,-39.9173 L 69.7684,-40.3297 L 70.0338,-40.695 L 70.3693,-40.9971 L 70.7602,-41.2228 L 71.1896,-41.3623 L 71.6386,-41.4095 L 72.0875,-41.3623 L 72.517,-41.2228 L 72.9079,-40.9971 L 73.2434,-40.695 L 73.5088,-40.3297 L 73.6924,-39.9173 L 73.7863,-39.4757 L 73.7863,-39.0242 L 73.6924,-38.5827 L 73.5088,-38.1703 L 73.2434,-37.805 L 72.9079,-37.5029 L 72.517,-37.2772 L 72.0875,-37.1377 L 71.6386,-37.0905 L 71.1896,-37.1377 M 136.067,-38.3248 L 136.067,-40.7448 L 138.987,-40.7448 L 138.987,-38.3248 L 136.067,-38.3248 M 4.54001,-38.3248 L 4.54001,-40.7448 L 7.45999,-40.7448 L 7.45999,-38.3248 L 4.54001,-38.3248 M 56.1422,-7.34 L 55.3705,-7.40074 L 54.6214,-7.58058 L 53.9097,-7.8754 L 53.2527,-8.27795 L 52.6669,-8.77832 L 52.1665,-9.36417 L 51.764,-10.0211 L 51.4692,-10.7328 L 51.2893,-11.4819 L 51.2286,-12.2536 L 51.2286,-31.2464 L 51.2893,-32.0181 L 51.4692,-32.7672 L 51.764,-33.4789 L 52.1665,-34.1358 L 52.6669,-34.7217 L 53.2527,-35.222 L 53.9097,-35.6246 L 54.6214,-35.9194 L 55.3705,-36.0993 L 56.1422,-36.16 L 81.135,-36.16 L 81.9066,-36.0993 L 82.6558,-35.9194 L 83.3675,-35.6246 L 84.0244,-35.222 L 84.6103,-34.7217 L 85.1106,-34.1358 L 85.5132,-33.4789 L 85.808,-32.7672 L 85.9878,-32.0181 L 86.0486,-31.2464 L 86.0486,-12.2536 L 85.9878,-11.4819 L 85.808,-10.7328 L 85.5132,-10.0211 L 85.1106,-9.36417 L 84.6103,-8.77832 L 84.0244,-8.27795 L 83.3675,-7.8754 L 82.6558,-7.58058 L 81.9066,-7.40074 L 81.135,-7.34 L 56.1422,-7.34 M 137.301,-31.7371 L 136.86,-31.831 L 136.447,-32.0146 L 136.082,-32.28 L 135.78,-32.6155 L 135.554,-33.0064 L 135.415,-33.4359 L 135.368,-33.8848 L 135.415,-34.3338 L 135.554,-34.7632 L 135.78,-35.1541 L 136.082,-35.4896 L 136.447,-35.755 L 136.86,-35.9386 L 137.301,-36.0325 L 137.753,-36.0325 L 138.194,-35.9386 L 138.607,-35.755 L 138.972,-35.4896 L 139.274,-35.1541 L 139.5,-34.7632 L 139.639,-34.3338 L 139.687,-33.8848 L 139.639,-33.4359 L 139.5,-33.0064 L 139.274,-32.6155 L 138.972,-32.28 L 138.607,-32.0146 L 138.194,-31.831 L 137.753,-31.7371 L 137.301,-31.7371 M 5.77426,-31.7371 L 5.33269,-31.831 L 4.92029,-32.0146 L 4.55501,-32.28 L 4.25293,-32.6155 L 4.02722,-33.0064 L 3.8877,-33.4359 L 3.8405,-33.8848 L 3.8877,-34.3338 L 4.02722,-34.7632 L 4.25293,-35.1541 L 4.55501,-35.4896 L 4.92029,-35.755 L 5.33269,-35.9386 L 5.77426,-36.0325 L 6.22574,-36.0325 L 6.66731,-35.9386 L 7.07971,-35.755 L 7.44499,-35.4896 L 7.74707,-35.1541 L 7.97278,-34.7632 L 8.1123,-34.3338 L 8.1595,-33.8848 L 8.1123,-33.4359 L 7.97278,-33.0064 L 7.74707,-32.6155 L 7.44499,-32.28 L 7.07971,-32.0146 L 6.66731,-31.831 L 6.22574,-31.7371 L 5.77426,-31.7371 M 136.067,-18.54 L 136.067,-23.46 L 138.987,-23.46 L 138.987,-18.54 L 136.067,-18.54 M 4.54001,-18.54 L 4.54001,-23.46 L 7.45999,-23.46 L 7.45999,-18.54 L 4.54001,-18.54 M 19.0048,-11.59 L 18.9149,-11.5995 L 18.8334,-11.6259 L 18.7593,-11.6687 L 18.6957,-11.726 L 18.6454,-11.7953 L 18.6105,-11.8735 L 18.5927,-11.9572 L 18.5927,-13.0428 L 18.6105,-13.1265 L 18.6454,-13.2047 L 18.6957,-13.274 L 18.7593,-13.3313 L 18.8334,-13.3741 L 18.9149,-13.4005 L 19.0048,-13.41 L 20.9952,-13.41 L 21.0851,-13.4005 L 21.1666,-13.3741 L 21.2407,-13.3313 L 21.3043,-13.274 L 21.3546,-13.2047 L 21.3895,-13.1265 L 21.4073,-13.0428 L 21.4073,-11.9572 L 21.3895,-11.8735 L 21.3546,-11.7953 L 21.3043,-11.726 L 21.2407,-11.6687 L 21.1666,-11.6259 L 21.0851,-11.5995 L 20.9952,-11.59 L 19.0048,-11.59 M 71.1896,-2.1377 L 70.7602,-2.27722 L 70.3693,-2.50293 L 70.0338,-2.80501 L 69.7684,-3.17029 L 69.5848,-3.58269 L 69.4909,-4.02426 L 69.4909,-4.47575 L 69.5848,-4.91733 L 69.7684,-5.32973 L 70.0338,-5.69501 L 70.3693,-5.99709 L 70.7602,-6.22279 L 71.1896,-6.36232 L 71.6386,-6.4095 L 72.0875,-6.36232 L 72.517,-6.22279 L 72.9079,-5.99709 L 73.2434,-5.69501 L 73.5088,-5.32973 L 73.6924,-4.91733 L 73.7863,-4.47575 L 73.7863,-4.02426 L 73.6924,-3.58269 L 73.5088,-3.17029 L 73.2434,-2.80501 L 72.9079,-2.50293 L 72.517,-2.27722 L 72.0875,-2.1377 L 71.6386,-2.0905 L 71.1896,-2.1377 M 19.0048,-3.09 L 18.9149,-3.09946 L 18.8334,-3.12592 L 18.7593,-3.16872 L 18.6957,-3.22598 L 18.6454,-3.29529 L 18.6105,-3.37347 L 18.5927,-3.45718 L 18.5927,-4.54282 L 18.6105,-4.62653 L 18.6454,-4.70471 L 18.6957,-4.77402 L 18.7593,-4.83128 L 18.8334,-4.87408 L 18.9149,-4.90054 L 19.0048,-4.91 L 20.9952,-4.91 L 21.0851,-4.90054 L 21.1666,-4.87408 L 21.2407,-4.83128 L 21.3043,-4.77402 L 21.3546,-4.70471 L 21.3895,-4.62653 L 21.4073,-4.54282 L 21.4073,-3.45718 L 21.3895,-3.37347 L 21.3546,-3.29529 L 21.3043,-3.22598 L 21.2407,-3.16872 L 21.1666,-3.12592 L 21.0851,-3.09946 L 20.9952,-3.09 L 19.0048,-3.09" stroke="#0000ff" fill="none" stroke-width="0.1"/>
<path d="M 133.701,-47.2696 L 132.242,-47.999 L 132.242,-46.5402 L 133.701,-47.2696" stroke="none" fill="#000000" stroke-width="0.5"/><path d="M 176.567,-143.617 L 143.617,-143.617 L 143.617,-142.137 L 147.617,-142.137 L 147.617,-138.917 L 143.617,-138.917 M 143.617,0.0899963 L 143.617,-138.917 M 143.617,-4.61 L 147.617,-4.61 L 147.617,-1.38998 L 143.617,-1.38998 M 143.617,0.0899963 L 176.567,0.0899963 L 176.567,-143.617 M 159.643,-135.415 L 159.214,-135.554 L 158.823,-135.78 L 158.487,-136.082 L 158.222,-136.447 L 158.038,-136.86 L 157.944,-137.301 L 157.944,-137.753 L 158.038,-138.194 L 158.222,-138.607 L 158.487,-138.972 L 158.823,-139.274 L 159.214,-139.5 L 159.643,-139.639 L 160.092,-139.687 L 160.541,-139.639 L 160.97,-139.5 L 161.361,-139.274 L 161.697,-138.972 L 161.962,-138.607 L 162.146,-138.194 L 162.24,-137.753 L 162.24,-137.301 L 162.146,-136.86 L 161.962,-136.447 L 161.697,-136.082 L 161.361,-135.78 L 160.97,-135.554 L 160.541,-135.415 L 160.092,-135.368 L 159.643,-135.415 M 164.532,-136.067 L 164.532,-138.987 L 169.452,-138.987 L 169.452,-136.067 L 164.532,-136.067 M 153.232,-136.067 L 153.232,-138.987 L 155.652,-138.987 L 155.652,-136.067 L 153.232,-136.067 M 157.778,-124.041 L 156.958,-124.406 L 156.358,-125.073 L 156.081,-125.927 L 156.174,-126.819 L 156.623,-127.596 L 157.349,-128.124 L 158.236,-128.312 L 172.217,-128.312 L 173.104,-128.124 L 173.83,-127.596 L 174.279,-126.819 L 174.373,-125.927 L 174.096,-125.073 L 173.495,-124.406 L 172.675,-124.041 L 157.778,-124.041 M 171.799,-61.874 L 171.389,-62.0071 L 171.016,-62.2223 L 170.696,-62.5104 L 170.443,-62.8588 L 170.268,-63.2521 L 170.178,-63.6732 L 170.178,-64.1038 L 170.268,-64.5249 L 170.443,-64.9182 L 170.696,-65.2666 L 171.016,-65.5547 L 171.389,-65.77 L 171.799,-65.903 L 172.227,-65.948 L 172.655,-65.903 L 173.064,-65.77 L 173.437,-65.5547 L 173.757,-65.2666 L 174.01,-64.9182 L 174.185,-64.5249 L 174.275,-64.1038 L 174.275,-63.6732 L 174.185,-63.2521 L 174.01,-62.8588 L 173.757,-62.5104 L 173.437,-62.2223 L 173.064,-62.0071 L 172.655,-61.874 L 172.227,-61.829 L 171.799,-61.874 M 159.643,-3.8877 L 159.214,-4.02722 L 158.823,-4.25293 L 158.487,-4.55501 L 158.222,-4.92029 L 158.038,-5.33269 L 157.944,-5.77426 L 157.944,-6.22574 L 158.038,-6.66731 L 158.222,-7.07971 L 158.487,-7.44499 L 158.823,-7.74707 L 159.214,-7.97278 L 159.643,-8.1123 L 160.092,-8.1595 L 160.541,-8.1123 L 160.97,-7.97278 L 161.361,-7.74707 L 161.697,-7.44499 L 161.962,-7.07971 L 162.146,-6.66731 L 162.24,-6.22574 L 162.24,-5.77426 L 162.146,-5.33269 L 161.962,-4.92029 L 161.697,-4.55501 L 161.361,-4.25293 L 160.97,-4.02722 L 160.541,-3.8877 L 160.092,-3.8405 L 159.643,-3.8877 M 164.532,-4.54001 L 164.532,-7.45999 L 169.452,-7.45999 L 169.452,-4.54001 L 164.532,-4.54001 M 153.232,-4.54001 L 153.232,-7.45999 L 155.652,-7.45999 L 155.652,-4.54001 L 153.232,-4.54001" stroke="#0000ff" fill="none" stroke-width="0.1"/><path d="M 146.789,-9.71942 L 146.87,-9.7323 L 146.95,-9.75349 L 147.026,-9.78302 L 147.1,-9.82025 L 147.168,-9.86499 L 147.232,-9.9167 L 147.29,-9.97484 L 147.342,-10.0387 L 147.387,-10.1076 L 147.424,-10.1808 L 147.454,-10.2574 L 147.475,-10.3367 L 147.488,-10.418 L 147.492,-10.5 L 147.488,-10.582 L 147.475,-10.6633 L 147.454,-10.7425 L 147.424,-10.8192 L 147.387,-10.8925 L 147.342,-10.9613 L 147.29,-11.0251 L 147.232,-11.0833 L 147.168,-11.135 L 147.1,-11.1797 L 147.026,-11.217 L 146.95,-11.2465 L 146.87,-11.2677 L 146.789,-11.2806 L 146.707,-11.2849 L 146.625,-11.2806 L 146.544,-11.2677 L 146.465,-11.2465 L 146.388,-11.217 L 146.315,-11.1797 L 146.246,-11.135 L 146.182,-11.0832 L 146.124,-11.0252 L 146.072,-10.9613 L 146.027,-10.8925 L 145.99,-10.8192 L 145.961,-10.7426 L 145.939,-10.6633 L 145.927,-10.582 L 145.922,-10.5 L 145.927,-10.418 L 145.939,-10.3367 L 145.961,-10.2574 L 145.99,-10.1808 L 146.027,-10.1076 L 146.072,-10.0387 L 146.124,-9.97476 L 146.182,-9.91675 L 146.246,-9.86501 L 146.315,-9.82025 L 146.388,-9.78302 L 146.465,-9.75349 L 146.544,-9.7323 L 146.625,-9.71942 L 146.707,-9.71512 L 146.789,-9.71942" stroke="none" fill="#000000" stroke-width="0.5"/><path d="M 143.617,-133.14 L -0.0899963,-133.14 L -0.0899963,-50.3596 L 143.617,-50.3596 M 136.067,-101.106 L 136.067,-119.66 L 138.987,-119.66 L 138.987,-101.106 L 136.067,-101.106 M 4.54001,-101.106 L 4.54001,-119.66 L 7.45999,-119.66 L 7.45999,-101.106 L 4.54001,-101.106 M 12.3796,-63.8896 L 12.3796,-119.61 L 120.849,-119.61 L 120.849,-63.8896 L 12.3796,-63.8896 M 5.55106,-89.6373 L 5.12163,-89.7768 L 4.73068,-90.0025 L 4.39519,-90.3046 L 4.12981,-90.6699 L 3.9462,-91.0823 L 3.85233,-91.5238 L 3.85233,-91.9753 L 3.9462,-92.4169 L 4.12981,-92.8293 L 4.39519,-93.1946 L 4.73068,-93.4967 L 5.12163,-93.7224 L 5.55106,-93.8619 L 6,-93.9091 L 6.44894,-93.8619 L 6.87837,-93.7224 L 7.26932,-93.4967 L 7.60481,-93.1946 L 7.87019,-92.8293 L 8.0538,-92.4169 L 8.14767,-91.9753 L 8.14767,-91.5238 L 8.0538,-91.0823 L 7.87019,-90.6699 L 7.60481,-90.3046 L 7.26932,-90.0025 L 6.87837,-89.7768 L 6.44894,-89.6373 L 6,-89.5901 L 5.55106,-89.6373 M 137.078,-89.6373 L 136.649,-89.7768 L 136.258,-90.0025 L 135.922,-90.3046 L 135.657,-90.6699 L 135.473,-91.0823 L 135.379,-91.5238 L 135.379,-91.9753 L 135.473,-92.4169 L 135.657,-92.8293 L 135.922,-93.1946 L 136.258,-93.4967 L 136.649,-93.7224 L 137.078,-93.8619 L 137.527,-93.9091 L 137.976,-93.8619 L 138.405,-93.7224 L 138.796,-93.4967 L 139.132,-93.1946 L 139.397,-92.8293 L 139.581,-92.4169 L 139.675,-91.9753 L 139.675,-91.5238 L 139.581,-91.0823 L 139.397,-90.6699 L 139.132,-90.3046 L 138.796,-90.0025 L 138.405,-89.7768 L 137.976,-89.6373 L 137.527,-89.5901 L 137.078,-89.6373 M 136.067,-63.8396 L 136.067,-82.3929 L 138.987,-82.3929 L 138.987,-63.8396 L 136.067,-63.8396 M 4.54001,-63.8396 L 4.54001,-82.3929 L 7.45999,-82.3929 L 7.45999,-63.8396 L 4.54001,-63.8396" stroke="#0000ff" fill="none" stroke-width="0.1"/><path d="M 133.109,-115.919 L 133.19,-115.932 L 133.27,-115.953 L 133.346,-115.983 L 133.42,-116.02 L 133.488,-116.065 L 133.552,-116.116 L 133.61,-116.174 L 133.662,-116.238 L 133.707,-116.307 L 133.744,-116.38 L 133.774,-116.457 L 133.795,-116.536 L 133.808,-116.618 L 133.812,-116.7 L 133.808,-116.782 L 133.795,-116.863 L 133.774,-116.942 L 133.744,-117.019 L 133.707,-117.092 L 133.662,-117.161 L 133.61,-117.225 L 133.552,-117.283 L 133.488,-117.335 L 133.42,-117.379 L 133.346,-117.417 L 133.27,-117.446 L 133.19,-117.467 L 133.109,-117.48 L 133.027,-117.484 L 132.945,-117.48 L 132.864,-117.467 L 132.785,-117.446 L 132.708,-117.417 L 132.635,-117.379 L 132.566,-117.335 L 132.502,-117.283 L 132.444,-117.225 L 132.392,-117.161 L 132.347,-117.092 L 132.31,-117.019 L 132.281,-116.942 L 132.259,-116.863 L 132.247,-116.782 L 132.242,-116.7 L 132.247,-116.618 L 132.259,-116.536 L 132.281,-116.457 L 132.31,-116.38 L 132.347,-116.307 L 132.392,-116.238 L 132.444,-116.174 L 132.502,-116.116 L 132.566,-116.065 L 132.635,-116.02 L 132.708,-115.983 L 132.785,-115.953 L 132.864,-115.932 L 132.945,-115.919 L 133.027,-115.915 L 133.109,-115.919 M 133.701,-62.6996 L 132.242,-63.429 L 132.242,-61.9702 L 133.701,-62.6996 M 140.387,-53.5746 L 139.267,-54.5074 L 139.267,-54.0471 L 136.117,-54.0471 L 136.117,-53.1021 L 139.267,-53.1021 L 139.267,-52.6417 L 140.387,-53.5746" stroke="none" fill="#000000" stroke-width="0.5"/><path d="M 33.5929,-86.0696 L 40.6596,-86.0696 L 40.6596,-89.2496 L 39.3096,-89.2496 L 39.3096,-92.4696 L 40.6596,-92.4696 L 40.6596,-96.0696 L 44.9796,-96.0696 L 44.9796,-92.4696 L 46.3296,-92.4696 L 46.3296,-89.2496 L 44.9796,-89.2496 L 44.9796,-86.0696 L 52.0463,-86.0696 L 52.0463,-83.0696 M 70.8596,-83.0696 L 70.8596,-86.0696 L 74.9596,-86.0696 L 74.9596,-95.5544 L 77.3596,-95.5544 L 77.3596,-98.2344 L 74.9596,-98.2344 L 74.9596,-100.384 L 71.7796,-100.384 L 71.7796,-99.0344 L 68.5596,-99.0344 L 68.5596,-100.384 L 64.9596,-100.384 L 64.9596,-104.704 L 68.5596,-104.704 L 68.5596,-106.054 L 71.7796,-106.054 L 71.7796,-104.704 L 74.9596,-104.704 L 74.9596,-112.839 L 77.3596,-112.839 L 77.3596,-118.019 L 74.9596,-118.019 L 74.9596,-119.019 L 14.7796,-119.019 L 14.7796,-112.034 L 12.3796,-112.034 M 12.3796,-106.854 L 14.7796,-106.854 L 14.7796,-104.704 L 17.9596,-104.704 L 17.9596,-106.054 L 21.1796,-106.054 L 21.1796,-104.704 L 24.7796,-104.704 L 24.7796,-100.384 L 21.1796,-100.384 L 21.1796,-99.0344 L 17.9596,-99.0344 L 17.9596,-100.384 L 14.7796,-100.384 L 14.7796,-98.2344 L 12.3796,-98.2344 M 12.3796,-95.5544 L 14.7796,-95.5544 L 14.7796,-83.0696 L 33.5929,-83.0696 L 33.5929,-86.0696 M 44.6438,-110.882 L 44.2023,-110.975 L 43.7899,-111.159 L 43.4246,-111.424 L 43.1225,-111.76 L 42.8968,-112.151 L 42.7573,-112.58 L 42.7101,-113.029 L 42.7573,-113.478 L 42.8968,-113.908 L 43.1225,-114.299 L 43.4246,-114.634 L 43.7899,-114.899 L 44.2023,-115.083 L 44.6438,-115.177 L 45.0953,-115.177 L 45.5369,-115.083 L 45.9493,-114.899 L 46.3146,-114.634 L 46.6167,-114.299 L 46.8424,-113.908 L 46.9819,-113.478 L 47.0291,-113.029 L 46.9819,-112.58 L 46.8424,-112.151 L 46.6167,-111.76 L 46.3146,-111.424 L 45.9493,-111.159 L 45.5369,-110.975 L 45.0953,-110.882 L 44.6438,-110.882" stroke="#0000ff" fill="none" stroke-width="0.1"/><path d="M 48.5762,-66.9396 L 63.6596,-66.9396 L 63.6596,-69.3896 L 66.6596,-69.3896 L 66.6596,-77.5696 L 63.6596,-77.5696 L 63.6596,-83.0696 M 70.8596,-83.0696 L 48.4463,-83.0696 L 48.4463,-80.0196 L 33.5929,-80.0196 L 33.5929,-83.0696 M 18.3796,-83.0696 L 18.3796,-77.5696 L 15.3796,-77.5696 L 15.3796,-76.5696 L 12.3796,-76.5696 M 12.3796,-70.3896 L 15.3796,-70.3896 L 15.3796,-69.3896 L 18.3796,-69.3896 L 18.3796,-66.9396 L 33.4629,-66.9396 L 33.4629,-63.8896 M 48.5762,-63.8896 L 48.5762,-66.9396" stroke="#0000ff" fill="none" stroke-width="0.1"/><path d="M 114.349,-66.8896 L 115.349,-66.8896 L 115.349,-69.8896 L 117.799,-69.8896 L 117.799,-84.9729 L 120.849,-84.9729 M 120.849,-100.086 L 117.799,-100.086 L 117.799,-115.17 L 115.349,-115.17 L 115.349,-118.17 L 107.169,-118.17 L 107.169,-115.17 L 101.669,-115.17 M 101.669,-99.9563 L 104.719,-99.9563 L 104.719,-85.1029 L 101.669,-85.1029 M 101.669,-69.8896 L 107.169,-69.8896 L 107.169,-66.8896 L 108.169,-66.8896 L 108.169,-63.8896 M 114.349,-63.8896 L 114.349,-66.8896" stroke="#0000ff" fill="none" stroke-width="0.1"/><path d="M 96.1686,-66.8896 L 101.669,-66.8896 M 101.669,-85.1029 L 101.669,-66.8896 M 101.669,-82.1029 L 98.6186,-82.1029 L 98.6186,-96.9563 L 101.669,-96.9563 M 101.669,-115.17 L 101.669,-96.9563 M 101.669,-112.17 L 96.1686,-112.17 L 96.1686,-115.17 L 95.1686,-115.17 L 95.1686,-118.17 L 88.9886,-118.17 L 88.9886,-115.17 L 87.9886,-115.17 L 87.9886,-112.17 L 85.5386,-112.17 L 85.5386,-97.0863 L 82.4886,-97.0863 L 82.4886,-81.9729 L 85.5386,-81.9729 L 85.5386,-66.8896 L 87.9886,-66.8896 L 87.9886,-63.8896 M 96.1686,-63.8896 L 96.1686,-66.8896" stroke="#0000ff" fill="none" stroke-width="0.1"/><path d="M 189.244,-147.437 L 191.644,-147.437 L 191.644,-152.617 L 189.244,-152.617 L 189.244,-160.752 L 186.064,-160.752 L 186.064,-159.402 L 182.844,-159.402 L 182.844,-160.752 L 179.244,-160.752 L 179.244,-165.072 L 182.844,-165.072 L 182.844,-166.422 L 186.064,-166.422 L 186.064,-165.072 L 189.244,-165.072 L 189.244,-167.222 L 191.644,-167.222 L 191.644,-169.902 L 189.244,-169.902 L 189.244,-179.387 L 185.144,-179.387 L 185.144,-182.387 L 166.331,-182.387 L 166.331,-179.387 L 159.264,-179.387 L 159.264,-176.207 L 160.614,-176.207 L 160.614,-172.987 L 159.264,-172.987 L 159.264,-169.387 L 154.944,-169.387 L 154.944,-172.987 L 153.594,-172.987 L 153.594,-176.207 L 154.944,-176.207 L 154.944,-179.387 L 147.878,-179.387 L 147.878,-182.387 L 129.064,-182.387 L 129.064,-169.902 L 126.664,-169.902 L 126.664,-167.222 L 129.064,-167.222 L 129.064,-165.072 L 132.244,-165.072 L 132.244,-166.422 L 135.464,-166.422 L 135.464,-165.072 L 139.064,-165.072 L 139.064,-160.752 L 135.464,-160.752 L 135.464,-159.402 L 132.244,-159.402 L 132.244,-160.752 L 129.064,-160.752 L 129.064,-158.602 L 126.664,-158.602 L 126.664,-153.422 L 129.064,-153.422 L 129.064,-146.437 L 189.244,-146.437 L 189.244,-147.437 M 158.929,-150.279 L 158.487,-150.373 L 158.075,-150.557 L 157.709,-150.822 L 157.407,-151.158 L 157.182,-151.549 L 157.042,-151.978 L 156.995,-152.427 L 157.042,-152.876 L 157.182,-153.305 L 157.407,-153.696 L 157.709,-154.032 L 158.075,-154.297 L 158.487,-154.481 L 158.929,-154.575 L 159.38,-154.575 L 159.822,-154.481 L 160.234,-154.297 L 160.599,-154.032 L 160.901,-153.696 L 161.127,-153.305 L 161.267,-152.876 L 161.314,-152.427 L 161.267,-151.978 L 161.127,-151.549 L 160.901,-151.158 L 160.599,-150.822 L 160.234,-150.557 L 159.822,-150.373 L 159.38,-150.279 L 158.929,-150.279" stroke="#0000ff" fill="none" stroke-width="0.1"/><path d="M 147.562,-154.804 L 147.851,-154.804 L 147.851,-154.909 L 147.562,-154.909 L 147.562,-155.132 L 147.637,-155.344 L 147.859,-155.414 L 147.901,-155.412 L 147.902,-155.538 L 147.874,-155.543 L 147.8,-155.549 L 147.602,-155.519 L 147.467,-155.437 L 147.383,-155.308 L 147.352,-155.116 L 147.352,-154.909 L 147.136,-154.909 L 147.136,-154.804 L 147.352,-154.804 L 147.352,-153.617 L 147.562,-153.617 L 147.562,-154.804 M 149.257,-155.485 L 149.047,-155.485 L 149.047,-154.66 L 148.762,-154.875 L 148.606,-154.907 L 148.409,-154.866 L 148.261,-154.745 L 148.162,-154.545 L 148.127,-154.273 L 148.163,-153.986 L 148.264,-153.781 L 148.412,-153.66 L 148.605,-153.619 L 148.775,-153.651 L 149.048,-153.84 L 149.075,-153.617 L 149.257,-153.617 L 149.257,-155.485 M 148.541,-153.784 L 148.421,-153.892 L 148.354,-154.05 L 148.334,-154.251 L 148.416,-154.634 L 148.694,-154.778 L 148.906,-154.728 L 149.047,-154.572 L 149.047,-153.952 L 148.904,-153.796 L 148.704,-153.749 L 148.541,-153.784 M 150.668,-154.072 L 150.89,-154.072 L 150.89,-154.205 L 150.668,-154.205 L 150.668,-155.421 L 150.416,-155.421 L 149.642,-154.203 L 149.651,-154.072 L 150.46,-154.072 L 150.46,-153.617 L 150.668,-153.617 L 150.668,-154.072 M 149.772,-154.205 L 150.267,-154.977 L 150.46,-155.303 L 150.46,-154.205 L 149.772,-154.205 M 141.973,-154.072 L 142.195,-154.072 L 142.195,-154.205 L 141.973,-154.205 L 141.973,-155.421 L 141.72,-155.421 L 140.947,-154.203 L 140.956,-154.072 L 141.765,-154.072 L 141.765,-153.617 L 141.973,-153.617 L 141.973,-154.072 M 141.077,-154.205 L 141.572,-154.977 L 141.765,-155.303 L 141.765,-154.205 L 141.077,-154.205 M 146.456,-153.652 L 146.646,-153.751 L 146.764,-153.899 L 146.804,-154.091 L 146.788,-154.209 L 146.74,-154.308 L 146.659,-154.388 L 146.382,-154.526 L 146.631,-154.678 L 146.709,-154.76 L 146.758,-154.854 L 146.773,-154.953 L 146.736,-155.149 L 146.629,-155.292 L 146.451,-155.387 L 146.2,-155.421 L 146.049,-155.406 L 145.912,-155.361 L 145.799,-155.292 L 145.718,-155.204 L 145.668,-155.101 L 145.664,-155.074 L 145.877,-155.074 L 145.885,-155.111 L 145.967,-155.209 L 146.08,-155.27 L 146.212,-155.289 L 146.352,-155.268 L 146.468,-155.199 L 146.543,-155.088 L 146.567,-154.949 L 146.544,-154.807 L 146.47,-154.688 L 146.346,-154.611 L 146.192,-154.589 L 146.069,-154.589 L 146.069,-154.465 L 146.197,-154.465 L 146.494,-154.379 L 146.6,-154.103 L 146.572,-153.955 L 146.489,-153.841 L 146.364,-153.771 L 146.211,-153.749 L 146.071,-153.771 L 145.949,-153.838 L 145.862,-153.946 L 145.852,-153.993 L 145.647,-153.993 L 145.667,-153.896 L 145.782,-153.75 L 145.964,-153.652 L 146.202,-153.618 L 146.456,-153.652 M 143.373,-153.651 L 143.55,-153.744 L 143.659,-153.885 L 143.696,-154.075 L 143.679,-154.192 L 143.629,-154.294 L 143.548,-154.38 L 143.314,-154.525 L 143.529,-154.674 L 143.597,-154.755 L 143.64,-154.85 L 143.654,-154.958 L 143.619,-155.152 L 143.517,-155.295 L 143.352,-155.387 L 143.126,-155.42 L 142.9,-155.387 L 142.735,-155.293 L 142.633,-155.15 L 142.597,-154.958 L 142.611,-154.85 L 142.653,-154.754 L 142.722,-154.674 L 142.937,-154.525 L 142.703,-154.381 L 142.623,-154.295 L 142.573,-154.193 L 142.557,-154.075 L 142.594,-153.885 L 142.703,-153.745 L 142.882,-153.651 L 143.127,-153.618 L 143.373,-153.651 M 142.993,-154.612 L 142.887,-154.691 L 142.824,-154.806 L 142.805,-154.942 L 142.825,-155.078 L 142.888,-155.192 L 142.994,-155.266 L 143.127,-155.29 L 143.26,-155.266 L 143.365,-155.189 L 143.429,-155.076 L 143.448,-154.942 L 143.429,-154.806 L 143.367,-154.691 L 143.262,-154.612 L 143.127,-154.588 L 142.993,-154.612 M 142.98,-153.772 L 142.861,-153.846 L 142.786,-153.962 L 142.762,-154.102 L 142.786,-154.245 L 142.863,-154.36 L 142.981,-154.434 L 143.124,-154.457 L 143.269,-154.434 L 143.388,-154.36 L 143.464,-154.244 L 143.489,-154.102 L 143.465,-153.959 L 143.39,-153.843 L 143.271,-153.771 L 143.127,-153.749 L 142.98,-153.772 M 144.929,-153.651 L 145.107,-153.744 L 145.215,-153.885 L 145.253,-154.075 L 145.236,-154.192 L 145.185,-154.294 L 145.105,-154.38 L 144.871,-154.525 L 145.085,-154.674 L 145.154,-154.755 L 145.197,-154.85 L 145.211,-154.958 L 145.175,-155.152 L 145.073,-155.295 L 144.909,-155.387 L 144.683,-155.42 L 144.457,-155.387 L 144.292,-155.293 L 144.19,-155.15 L 144.154,-154.958 L 144.168,-154.85 L 144.21,-154.754 L 144.278,-154.674 L 144.493,-154.525 L 144.26,-154.381 L 144.18,-154.295 L 144.13,-154.193 L 144.113,-154.075 L 144.151,-153.885 L 144.259,-153.745 L 144.438,-153.651 L 144.684,-153.618 L 144.929,-153.651 M 144.55,-154.612 L 144.443,-154.691 L 144.381,-154.806 L 144.362,-154.942 L 144.381,-155.078 L 144.444,-155.192 L 144.551,-155.266 L 144.683,-155.29 L 144.817,-155.266 L 144.922,-155.189 L 144.985,-155.076 L 145.005,-154.942 L 144.986,-154.806 L 144.924,-154.691 L 144.818,-154.612 L 144.684,-154.588 L 144.55,-154.612 M 144.537,-153.772 L 144.417,-153.846 L 144.342,-153.962 L 144.319,-154.102 L 144.343,-154.245 L 144.42,-154.36 L 144.538,-154.434 L 144.681,-154.457 L 144.825,-154.434 L 144.944,-154.36 L 145.021,-154.244 L 145.045,-154.102 L 145.022,-153.959 L 144.946,-153.843 L 144.828,-153.771 L 144.684,-153.749 L 144.537,-153.772 M 139.412,-154.909 L 139.199,-154.909 L 138.86,-153.664 L 138.522,-154.909 L 138.309,-154.909 L 138.74,-153.617 L 138.982,-153.617 L 139.412,-154.909 M 136.202,-154.507 L 136.353,-154.665 L 136.573,-154.709 L 136.632,-154.707 L 136.635,-154.907 L 136.614,-154.908 L 136.469,-154.869 L 136.203,-154.585 L 136.185,-154.909 L 135.993,-154.909 L 135.993,-153.617 L 136.202,-153.617 L 136.202,-154.507 M 137.691,-153.633 L 137.829,-153.678 L 137.943,-153.75 L 137.982,-153.792 L 137.903,-153.881 L 137.802,-153.798 L 137.564,-153.749 L 137.398,-153.776 L 137.261,-153.859 L 137.164,-153.987 L 137.088,-154.248 L 138.044,-154.248 L 138.044,-154.304 L 138.005,-154.571 L 137.896,-154.756 L 137.726,-154.869 L 137.491,-154.908 L 137.328,-154.888 L 137.185,-154.83 L 137.068,-154.736 L 136.98,-154.607 L 136.925,-154.448 L 136.905,-154.261 L 136.905,-154.237 L 136.951,-153.976 L 137.08,-153.784 L 137.279,-153.661 L 137.539,-153.618 L 137.691,-153.633 M 137.093,-154.333 L 137.164,-154.574 L 137.241,-154.684 L 137.355,-154.754 L 137.491,-154.776 L 137.632,-154.756 L 137.746,-154.691 L 137.819,-154.585 L 137.843,-154.459 L 137.843,-154.333 L 137.093,-154.333 M 139.762,-153.627 L 139.801,-153.651 L 139.825,-153.686 L 139.834,-153.733 L 139.825,-153.781 L 139.8,-153.816 L 139.76,-153.841 L 139.705,-153.85 L 139.651,-153.841 L 139.611,-153.816 L 139.586,-153.781 L 139.577,-153.733 L 139.586,-153.686 L 139.611,-153.651 L 139.65,-153.627 L 139.705,-153.618 L 139.762,-153.627 M 149.946,-151.072 L 150.168,-151.072 L 150.168,-151.205 L 149.946,-151.205 L 149.946,-152.421 L 149.694,-152.421 L 148.92,-151.203 L 148.929,-151.072 L 149.738,-151.072 L 149.738,-150.617 L 149.946,-150.617 L 149.946,-151.072 M 149.051,-151.205 L 149.546,-151.977 L 149.738,-152.303 L 149.738,-151.205 L 149.051,-151.205 M 141.616,-151.072 L 141.838,-151.072 L 141.838,-151.205 L 141.616,-151.205 L 141.616,-152.421 L 141.364,-152.421 L 140.59,-151.203 L 140.599,-151.072 L 141.408,-151.072 L 141.408,-150.617 L 141.616,-150.617 L 141.616,-151.072 M 140.721,-151.205 L 141.216,-151.977 L 141.408,-152.303 L 141.408,-151.205 L 140.721,-151.205 M 137.138,-150.75 L 136.178,-150.75 L 136.765,-151.37 L 136.915,-151.55 L 137.008,-151.7 L 137.058,-151.832 L 137.074,-151.954 L 137.038,-152.155 L 136.936,-152.297 L 136.768,-152.388 L 136.527,-152.42 L 136.362,-152.402 L 136.217,-152.347 L 136.1,-152.262 L 136.012,-152.149 L 135.957,-152.016 L 135.95,-151.958 L 136.16,-151.958 L 136.171,-152.031 L 136.244,-152.167 L 136.366,-152.26 L 136.52,-152.29 L 136.665,-152.265 L 136.778,-152.185 L 136.846,-152.064 L 136.866,-151.917 L 136.847,-151.794 L 136.791,-151.673 L 136.705,-151.547 L 136.588,-151.408 L 135.977,-150.758 L 135.977,-150.617 L 137.138,-150.617 L 137.138,-150.75 M 140.252,-150.75 L 139.291,-150.75 L 139.878,-151.37 L 140.028,-151.55 L 140.122,-151.7 L 140.172,-151.832 L 140.188,-151.954 L 140.152,-152.155 L 140.05,-152.297 L 139.882,-152.388 L 139.641,-152.42 L 139.475,-152.402 L 139.331,-152.347 L 139.213,-152.262 L 139.125,-152.149 L 139.071,-152.016 L 139.063,-151.958 L 139.274,-151.958 L 139.284,-152.031 L 139.358,-152.167 L 139.48,-152.26 L 139.634,-152.29 L 139.779,-152.265 L 139.891,-152.185 L 139.959,-152.064 L 139.98,-151.917 L 139.96,-151.794 L 139.904,-151.673 L 139.818,-151.547 L 139.701,-151.408 L 139.091,-150.758 L 139.091,-150.617 L 140.252,-150.617 L 140.252,-150.75 M 145.973,-150.75 L 145.013,-150.75 L 145.6,-151.37 L 145.749,-151.55 L 145.843,-151.7 L 145.893,-151.832 L 145.909,-151.954 L 145.873,-152.155 L 145.771,-152.297 L 145.603,-152.388 L 145.362,-152.42 L 145.197,-152.402 L 145.052,-152.347 L 144.935,-152.262 L 144.847,-152.149 L 144.792,-152.016 L 144.785,-151.958 L 144.995,-151.958 L 145.005,-152.031 L 145.079,-152.167 L 145.201,-152.26 L 145.355,-152.29 L 145.5,-152.265 L 145.613,-152.185 L 145.681,-152.064 L 145.701,-151.917 L 145.681,-151.794 L 145.626,-151.673 L 145.54,-151.547 L 145.423,-151.408 L 144.812,-150.758 L 144.812,-150.617 L 145.973,-150.617 L 145.973,-150.75 M 148.582,-150.75 L 147.622,-150.75 L 148.208,-151.37 L 148.358,-151.55 L 148.452,-151.7 L 148.502,-151.832 L 148.518,-151.954 L 148.482,-152.155 L 148.38,-152.297 L 148.212,-152.388 L 147.971,-152.42 L 147.805,-152.402 L 147.661,-152.347 L 147.543,-152.262 L 147.455,-152.149 L 147.401,-152.016 L 147.394,-151.958 L 147.604,-151.958 L 147.614,-152.031 L 147.688,-152.167 L 147.81,-152.26 L 147.964,-152.29 L 148.109,-152.265 L 148.221,-152.185 L 148.289,-152.064 L 148.31,-151.917 L 148.29,-151.794 L 148.234,-151.673 L 148.148,-151.547 L 148.031,-151.408 L 147.421,-150.758 L 147.421,-150.617 L 148.582,-150.617 L 148.582,-150.75 M 138.348,-150.665 L 138.521,-150.798 L 138.631,-151.024 L 138.671,-151.357 L 138.671,-151.701 L 138.628,-152.024 L 138.516,-152.244 L 138.343,-152.374 L 138.098,-152.42 L 137.854,-152.374 L 137.68,-152.242 L 137.569,-152.017 L 137.529,-151.682 L 137.529,-151.338 L 137.572,-151.015 L 137.683,-150.794 L 137.856,-150.664 L 138.101,-150.619 L 138.348,-150.665 M 137.931,-150.787 L 137.813,-150.906 L 137.754,-151.08 L 137.737,-151.3 L 137.737,-151.775 L 137.758,-151.982 L 137.819,-152.144 L 137.936,-152.254 L 138.098,-152.289 L 138.265,-152.252 L 138.384,-152.138 L 138.445,-151.966 L 138.463,-151.745 L 138.463,-151.28 L 138.444,-151.069 L 138.385,-150.9 L 138.269,-150.785 L 138.101,-150.748 L 137.931,-150.787 M 144.019,-152.395 L 143.347,-152.13 L 143.347,-151.999 L 143.811,-152.15 L 143.811,-150.617 L 144.019,-150.617 L 144.019,-152.395 M 146.96,-151.461 L 146.384,-151.461 L 146.384,-151.328 L 146.96,-151.328 L 146.96,-151.461 M 142.795,-151.461 L 142.219,-151.461 L 142.219,-151.328 L 142.795,-151.328 L 142.795,-151.461 M 167.115,-149.549 L 166.905,-149.549 L 166.905,-147.617 L 167.115,-147.617 L 167.115,-149.549 M 170.425,-149.513 L 170.118,-149.539 L 169.862,-149.549 L 169.633,-149.518 L 169.478,-149.433 L 169.384,-149.3 L 169.347,-149.104 L 169.347,-148.909 L 169.131,-148.909 L 169.131,-148.804 L 169.347,-148.804 L 169.347,-147.617 L 169.557,-147.617 L 169.557,-148.804 L 169.846,-148.804 L 169.846,-148.909 L 169.557,-148.909 L 169.557,-149.115 L 169.646,-149.341 L 169.899,-149.414 L 170.02,-149.409 L 170.215,-149.391 L 170.215,-147.617 L 170.425,-147.617 L 170.425,-149.513 M 137.724,-149.291 L 137.762,-149.314 L 137.785,-149.347 L 137.794,-149.393 L 137.785,-149.437 L 137.763,-149.469 L 137.725,-149.493 L 137.667,-149.502 L 137.609,-149.493 L 137.571,-149.47 L 137.549,-149.437 L 137.541,-149.393 L 137.549,-149.347 L 137.572,-149.314 L 137.61,-149.291 L 137.667,-149.282 L 137.724,-149.291 M 167.787,-149.291 L 167.825,-149.314 L 167.848,-149.347 L 167.856,-149.393 L 167.848,-149.437 L 167.825,-149.469 L 167.787,-149.493 L 167.73,-149.502 L 167.671,-149.493 L 167.633,-149.47 L 167.611,-149.437 L 167.603,-149.393 L 167.612,-149.347 L 167.635,-149.314 L 167.673,-149.291 L 167.73,-149.282 L 167.787,-149.291 M 157.223,-147.842 L 157.496,-147.651 L 157.673,-147.619 L 157.872,-147.659 L 158.018,-147.776 L 158.114,-147.973 L 158.149,-148.256 L 158.149,-148.266 L 158.114,-148.552 L 158.016,-148.75 L 157.869,-148.867 L 157.671,-148.907 L 157.511,-148.876 L 157.228,-148.663 L 157.228,-149.485 L 157.019,-149.485 L 157.019,-147.617 L 157.198,-147.617 L 157.223,-147.842 M 157.37,-147.796 L 157.228,-147.952 L 157.228,-148.572 L 157.368,-148.728 L 157.571,-148.775 L 157.734,-148.742 L 157.855,-148.64 L 157.922,-148.482 L 157.941,-148.279 L 157.933,-148.115 L 157.908,-147.983 L 157.787,-147.807 L 157.578,-147.747 L 157.37,-147.796 M 142.418,-147.842 L 142.691,-147.651 L 142.868,-147.619 L 143.067,-147.659 L 143.213,-147.776 L 143.309,-147.973 L 143.344,-148.256 L 143.344,-148.266 L 143.309,-148.552 L 143.211,-148.75 L 143.064,-148.867 L 142.866,-148.907 L 142.706,-148.876 L 142.423,-148.663 L 142.423,-149.485 L 142.214,-149.485 L 142.214,-147.617 L 142.393,-147.617 L 142.418,-147.842 M 142.565,-147.796 L 142.423,-147.952 L 142.423,-148.572 L 142.563,-148.728 L 142.767,-148.775 L 142.93,-148.742 L 143.051,-148.64 L 143.117,-148.482 L 143.136,-148.279 L 143.129,-148.115 L 143.103,-147.983 L 142.983,-147.807 L 142.773,-147.747 L 142.565,-147.796 M 139.378,-148.59 L 139.523,-148.733 L 139.711,-148.774 L 139.854,-148.755 L 139.962,-148.687 L 140.022,-148.576 L 140.038,-148.446 L 140.038,-147.617 L 140.246,-147.617 L 140.246,-148.44 L 140.139,-148.794 L 139.849,-148.905 L 139.682,-148.87 L 139.378,-148.629 L 139.378,-149.485 L 139.17,-149.485 L 139.17,-147.617 L 139.378,-147.617 L 139.378,-148.59 M 163.578,-149.421 L 163.478,-149.421 L 162.818,-147.425 L 162.916,-147.425 L 163.578,-149.421 M 150.456,-149.421 L 150.356,-149.421 L 149.696,-147.425 L 149.794,-147.425 L 150.456,-149.421 M 162.14,-149.395 L 161.468,-149.13 L 161.468,-148.999 L 161.932,-149.15 L 161.932,-147.617 L 162.14,-147.617 L 162.14,-149.395 M 168.833,-147.625 L 168.872,-147.634 L 168.872,-147.758 L 168.845,-147.757 L 168.747,-147.768 L 168.662,-147.816 L 168.62,-147.901 L 168.609,-147.991 L 168.609,-148.804 L 168.858,-148.804 L 168.858,-148.909 L 168.609,-148.909 L 168.609,-149.293 L 168.401,-149.293 L 168.401,-148.909 L 168.188,-148.909 L 168.188,-148.804 L 168.401,-148.804 L 168.401,-147.951 L 168.49,-147.701 L 168.739,-147.618 L 168.833,-147.625 M 156.611,-147.625 L 156.65,-147.634 L 156.65,-147.758 L 156.622,-147.757 L 156.524,-147.768 L 156.44,-147.816 L 156.397,-147.901 L 156.387,-147.991 L 156.387,-148.804 L 156.636,-148.804 L 156.636,-148.909 L 156.387,-148.909 L 156.387,-149.293 L 156.179,-149.293 L 156.179,-148.909 L 155.966,-148.909 L 155.966,-148.804 L 156.179,-148.804 L 156.179,-147.951 L 156.267,-147.701 L 156.516,-147.618 L 156.611,-147.625 M 155.694,-147.625 L 155.733,-147.634 L 155.733,-147.758 L 155.705,-147.757 L 155.607,-147.768 L 155.523,-147.816 L 155.48,-147.901 L 155.47,-147.991 L 155.47,-148.804 L 155.719,-148.804 L 155.719,-148.909 L 155.47,-148.909 L 155.47,-149.293 L 155.262,-149.293 L 155.262,-148.909 L 155.049,-148.909 L 155.049,-148.804 L 155.262,-148.804 L 155.262,-147.951 L 155.35,-147.701 L 155.599,-147.618 L 155.694,-147.625 M 138.771,-147.625 L 138.81,-147.634 L 138.81,-147.758 L 138.782,-147.757 L 138.684,-147.768 L 138.6,-147.816 L 138.557,-147.901 L 138.547,-147.991 L 138.547,-148.804 L 138.796,-148.804 L 138.796,-148.909 L 138.547,-148.909 L 138.547,-149.293 L 138.339,-149.293 L 138.339,-148.909 L 138.126,-148.909 L 138.126,-148.804 L 138.339,-148.804 L 138.339,-147.951 L 138.427,-147.701 L 138.676,-147.618 L 138.771,-147.625 M 172.567,-147.856 L 172.85,-147.65 L 173.012,-147.619 L 173.205,-147.66 L 173.352,-147.781 L 173.451,-147.981 L 173.487,-148.256 L 173.487,-148.265 L 173.452,-148.549 L 173.355,-148.748 L 173.209,-148.867 L 173.008,-148.908 L 172.838,-148.878 L 172.567,-148.7 L 172.546,-148.909 L 172.358,-148.909 L 172.358,-147.041 L 172.567,-147.041 L 172.567,-147.856 M 172.709,-147.793 L 172.567,-147.942 L 172.567,-148.585 L 172.708,-148.732 L 172.908,-148.775 L 173.071,-148.739 L 173.192,-148.631 L 173.259,-148.472 L 173.28,-148.272 L 173.198,-147.889 L 172.922,-147.745 L 172.709,-147.793 M 167.835,-148.909 L 167.625,-148.909 L 167.625,-147.617 L 167.835,-147.617 L 167.835,-148.909 M 165.567,-147.856 L 165.85,-147.65 L 166.012,-147.619 L 166.205,-147.66 L 166.352,-147.781 L 166.451,-147.981 L 166.487,-148.256 L 166.487,-148.265 L 166.452,-148.549 L 166.355,-148.748 L 166.209,-148.867 L 166.008,-148.908 L 165.838,-148.878 L 165.567,-148.7 L 165.546,-148.909 L 165.358,-148.909 L 165.358,-147.041 L 165.567,-147.041 L 165.567,-147.856 M 165.709,-147.793 L 165.567,-147.942 L 165.567,-148.585 L 165.708,-148.732 L 165.908,-148.775 L 166.071,-148.739 L 166.192,-148.631 L 166.259,-148.472 L 166.28,-148.272 L 166.198,-147.889 L 165.922,-147.745 L 165.709,-147.793 M 160.99,-147.75 L 160.19,-147.75 L 160.969,-148.8 L 160.969,-148.909 L 159.984,-148.909 L 159.984,-148.775 L 160.736,-148.775 L 159.963,-147.733 L 159.963,-147.617 L 160.99,-147.617 L 160.99,-147.75 M 147.688,-148.583 L 147.827,-148.73 L 148.012,-148.775 L 148.15,-148.756 L 148.254,-148.69 L 148.311,-148.58 L 148.326,-148.451 L 148.326,-147.617 L 148.534,-147.617 L 148.533,-148.548 L 148.663,-148.72 L 148.859,-148.775 L 149,-148.755 L 149.104,-148.689 L 149.159,-148.58 L 149.174,-148.452 L 149.174,-147.617 L 149.383,-147.617 L 149.383,-148.445 L 149.356,-148.664 L 149.287,-148.802 L 149.176,-148.879 L 149.008,-148.907 L 148.797,-148.861 L 148.562,-148.653 L 148.372,-148.863 L 148.181,-148.907 L 147.985,-148.868 L 147.686,-148.636 L 147.668,-148.909 L 147.479,-148.909 L 147.479,-147.617 L 147.688,-147.617 L 147.688,-148.583 M 141.763,-148.909 L 141.553,-148.909 L 141.553,-147.939 L 141.403,-147.792 L 141.186,-147.748 L 140.964,-147.828 L 140.895,-148.053 L 140.895,-148.909 L 140.687,-148.909 L 140.687,-148.059 L 140.716,-147.854 L 140.79,-147.723 L 140.907,-147.646 L 141.078,-147.618 L 141.268,-147.655 L 141.557,-147.874 L 141.573,-147.617 L 141.763,-147.617 L 141.763,-148.909 M 137.772,-148.909 L 137.562,-148.909 L 137.562,-147.617 L 137.772,-147.617 L 137.772,-148.909 M 136.656,-147.059 L 136.806,-147.108 L 136.924,-147.185 L 137.012,-147.29 L 137.067,-147.422 L 137.086,-147.584 L 137.086,-148.909 L 136.904,-148.909 L 136.881,-148.71 L 136.615,-148.879 L 136.437,-148.908 L 136.233,-148.865 L 136.078,-148.741 L 135.974,-148.541 L 135.937,-148.267 L 135.937,-148.264 L 135.975,-147.988 L 136.08,-147.786 L 136.236,-147.661 L 136.434,-147.619 L 136.594,-147.649 L 136.876,-147.855 L 136.876,-147.587 L 136.851,-147.419 L 136.767,-147.278 L 136.63,-147.19 L 136.456,-147.161 L 136.225,-147.218 L 136.124,-147.308 L 136.052,-147.203 L 136.087,-147.168 L 136.202,-147.102 L 136.339,-147.057 L 136.478,-147.042 L 136.656,-147.059 M 136.368,-147.785 L 136.241,-147.892 L 136.167,-148.052 L 136.145,-148.246 L 136.167,-148.46 L 136.241,-148.628 L 136.369,-148.739 L 136.535,-148.775 L 136.728,-148.734 L 136.876,-148.594 L 136.876,-147.93 L 136.728,-147.79 L 136.532,-147.749 L 136.368,-147.785 M 171.917,-147.662 L 171.901,-147.857 L 171.901,-148.479 L 171.866,-148.667 L 171.772,-148.796 L 171.619,-148.879 L 171.404,-148.909 L 171.255,-148.895 L 171.122,-148.856 L 171.015,-148.796 L 170.939,-148.721 L 170.895,-148.638 L 171.103,-148.638 L 171.107,-148.656 L 171.175,-148.739 L 171.273,-148.788 L 171.387,-148.802 L 171.515,-148.783 L 171.616,-148.718 L 171.675,-148.618 L 171.692,-148.509 L 171.692,-148.333 L 171.427,-148.333 L 171.16,-148.304 L 170.981,-148.227 L 170.881,-148.112 L 170.847,-147.953 L 170.874,-147.823 L 170.956,-147.717 L 171.085,-147.644 L 171.249,-147.618 L 171.419,-147.65 L 171.68,-147.835 L 171.721,-147.619 L 171.721,-147.617 L 171.932,-147.617 L 171.917,-147.662 M 171.227,-147.748 L 171.135,-147.799 L 171.073,-147.882 L 171.054,-147.976 L 171.057,-148.031 L 171.176,-148.228 L 171.446,-148.286 L 171.692,-148.286 L 171.692,-147.926 L 171.619,-147.836 L 171.535,-147.779 L 171.438,-147.745 L 171.334,-147.733 L 171.227,-147.748 M 151.525,-147.645 L 151.691,-147.722 L 151.791,-147.832 L 151.822,-147.961 L 151.763,-148.14 L 151.569,-148.267 L 151.475,-148.296 L 151.344,-148.324 L 151.212,-148.356 L 151.108,-148.4 L 151.032,-148.471 L 151.004,-148.572 L 151.027,-148.674 L 151.094,-148.753 L 151.189,-148.799 L 151.302,-148.813 L 151.43,-148.796 L 151.532,-148.738 L 151.595,-148.648 L 151.599,-148.631 L 151.799,-148.631 L 151.788,-148.684 L 151.69,-148.799 L 151.526,-148.88 L 151.303,-148.908 L 151.096,-148.88 L 150.94,-148.8 L 150.846,-148.689 L 150.818,-148.568 L 150.919,-148.357 L 151.27,-148.212 L 151.404,-148.179 L 151.516,-148.134 L 151.6,-148.06 L 151.632,-147.951 L 151.606,-147.846 L 151.534,-147.767 L 151.433,-147.724 L 151.312,-147.712 L 151.18,-147.727 L 151.066,-147.781 L 150.985,-147.876 L 150.975,-147.915 L 150.783,-147.915 L 150.784,-147.91 L 150.832,-147.818 L 150.91,-147.737 L 151.017,-147.673 L 151.15,-147.632 L 151.304,-147.618 L 151.525,-147.645 M 164.647,-147.645 L 164.813,-147.722 L 164.913,-147.832 L 164.945,-147.961 L 164.886,-148.14 L 164.691,-148.267 L 164.597,-148.296 L 164.466,-148.324 L 164.334,-148.356 L 164.23,-148.4 L 164.154,-148.471 L 164.126,-148.572 L 164.149,-148.674 L 164.216,-148.753 L 164.311,-148.799 L 164.425,-148.813 L 164.552,-148.796 L 164.654,-148.738 L 164.717,-148.648 L 164.721,-148.631 L 164.922,-148.631 L 164.91,-148.684 L 164.812,-148.799 L 164.648,-148.88 L 164.425,-148.908 L 164.218,-148.88 L 164.062,-148.8 L 163.968,-148.689 L 163.94,-148.568 L 164.041,-148.357 L 164.392,-148.212 L 164.526,-148.179 L 164.638,-148.134 L 164.722,-148.06 L 164.754,-147.951 L 164.729,-147.846 L 164.656,-147.767 L 164.555,-147.724 L 164.434,-147.712 L 164.302,-147.727 L 164.188,-147.781 L 164.107,-147.876 L 164.097,-147.915 L 163.905,-147.915 L 163.906,-147.91 L 163.954,-147.818 L 164.033,-147.737 L 164.139,-147.673 L 164.272,-147.632 L 164.426,-147.618 L 164.647,-147.645 M 146.731,-147.662 L 146.918,-147.788 L 147.039,-147.986 L 147.081,-148.255 L 147.079,-148.334 L 147.023,-148.579 L 146.898,-148.756 L 146.716,-148.869 L 146.478,-148.908 L 146.308,-148.888 L 146.162,-148.829 L 146.045,-148.737 L 145.958,-148.611 L 145.904,-148.456 L 145.885,-148.271 L 145.885,-148.266 L 145.928,-147.988 L 146.048,-147.788 L 146.235,-147.662 L 146.484,-147.618 L 146.731,-147.662 M 146.315,-147.783 L 146.187,-147.889 L 146.114,-148.049 L 146.092,-148.249 L 146.114,-148.466 L 146.186,-148.633 L 146.313,-148.742 L 146.48,-148.777 L 146.649,-148.742 L 146.777,-148.634 L 146.851,-148.474 L 146.874,-148.277 L 146.852,-148.056 L 146.777,-147.888 L 146.649,-147.783 L 146.484,-147.748 L 146.315,-147.783 M 154.437,-147.662 L 154.624,-147.788 L 154.745,-147.986 L 154.787,-148.255 L 154.785,-148.334 L 154.729,-148.579 L 154.604,-148.756 L 154.422,-148.869 L 154.184,-148.908 L 154.015,-148.888 L 153.868,-148.829 L 153.751,-148.737 L 153.664,-148.611 L 153.61,-148.456 L 153.591,-148.271 L 153.591,-148.266 L 153.634,-147.988 L 153.754,-147.788 L 153.941,-147.662 L 154.19,-147.618 L 154.437,-147.662 M 154.021,-147.783 L 153.893,-147.889 L 153.82,-148.049 L 153.798,-148.249 L 153.82,-148.466 L 153.892,-148.633 L 154.02,-148.742 L 154.186,-148.777 L 154.355,-148.742 L 154.483,-148.634 L 154.557,-148.474 L 154.58,-148.277 L 154.558,-148.056 L 154.483,-147.888 L 154.355,-147.783 L 154.19,-147.748 L 154.021,-147.783 M 159.28,-147.633 L 159.418,-147.678 L 159.532,-147.75 L 159.571,-147.792 L 159.492,-147.881 L 159.391,-147.798 L 159.153,-147.749 L 158.987,-147.776 L 158.85,-147.859 L 158.753,-147.987 L 158.677,-148.248 L 159.633,-148.248 L 159.633,-148.304 L 159.594,-148.571 L 159.485,-148.756 L 159.315,-148.869 L 159.08,-148.908 L 158.917,-148.888 L 158.774,-148.83 L 158.657,-148.736 L 158.569,-148.607 L 158.514,-148.448 L 158.494,-148.261 L 158.494,-148.237 L 158.54,-147.976 L 158.669,-147.784 L 158.868,-147.661 L 159.128,-147.618 L 159.28,-147.633 M 158.682,-148.333 L 158.753,-148.574 L 158.83,-148.684 L 158.944,-148.754 L 159.08,-148.776 L 159.221,-148.756 L 159.335,-148.691 L 159.408,-148.585 L 159.432,-148.459 L 159.432,-148.333 L 158.682,-148.333 M 145.191,-147.632 L 145.316,-147.675 L 145.419,-147.742 L 145.497,-147.83 L 145.545,-147.933 L 145.549,-147.954 L 145.361,-147.954 L 145.353,-147.921 L 145.278,-147.826 L 145.17,-147.767 L 145.042,-147.749 L 144.883,-147.779 L 144.761,-147.879 L 144.696,-148.037 L 144.677,-148.24 L 144.677,-148.286 L 144.696,-148.488 L 144.762,-148.645 L 144.882,-148.745 L 145.04,-148.777 L 145.174,-148.754 L 145.283,-148.684 L 145.355,-148.576 L 145.363,-148.534 L 145.545,-148.534 L 145.525,-148.635 L 145.423,-148.78 L 145.263,-148.875 L 145.049,-148.908 L 144.805,-148.865 L 144.625,-148.74 L 144.51,-148.544 L 144.469,-148.273 L 144.469,-148.262 L 144.511,-147.981 L 144.627,-147.783 L 144.807,-147.661 L 145.055,-147.618 L 145.191,-147.632 M 152.897,-147.632 L 153.022,-147.675 L 153.125,-147.742 L 153.203,-147.83 L 153.251,-147.933 L 153.255,-147.954 L 153.067,-147.954 L 153.059,-147.921 L 152.984,-147.826 L 152.876,-147.767 L 152.748,-147.749 L 152.589,-147.779 L 152.467,-147.879 L 152.402,-148.037 L 152.384,-148.24 L 152.384,-148.286 L 152.402,-148.488 L 152.468,-148.645 L 152.588,-148.745 L 152.746,-148.777 L 152.88,-148.754 L 152.989,-148.684 L 153.061,-148.576 L 153.069,-148.534 L 153.251,-148.534 L 153.231,-148.635 L 153.129,-148.78 L 152.969,-148.875 L 152.755,-148.908 L 152.511,-148.865 L 152.331,-148.74 L 152.216,-148.544 L 152.176,-148.273 L 152.176,-148.262 L 152.217,-147.981 L 152.333,-147.783 L 152.513,-147.661 L 152.761,-147.618 L 152.897,-147.632 M 143.947,-147.627 L 143.987,-147.651 L 144.011,-147.686 L 144.02,-147.733 L 144.011,-147.781 L 143.986,-147.816 L 143.946,-147.841 L 143.891,-147.85 L 143.836,-147.841 L 143.796,-147.816 L 143.772,-147.781 L 143.763,-147.733 L 143.772,-147.686 L 143.796,-147.651 L 143.835,-147.627 L 143.891,-147.618 L 143.947,-147.627" stroke="none" fill="#000000" stroke-width="0.5"/><path d="M 189.247,-2.91 L 190.247,-2.91 L 190.247,-5.91 L 192.697,-5.91 L 192.697,-20.9933 L 195.747,-20.9933 L 195.747,-36.1067 L 192.697,-36.1067 L 192.697,-51.19 L 190.247,-51.19 L 190.247,-54.19 M 182.067,-54.19 L 182.067,-51.19 L 176.567,-51.19 M 176.567,-35.9767 L 179.617,-35.9767 L 179.617,-21.1233 L 176.567,-21.1233 M 176.567,-5.91 L 182.067,-5.91 L 182.067,-2.91 L 183.067,-2.91 L 183.067,0.0899963 L 189.247,0.0899963 L 189.247,-2.91" stroke="#0000ff" fill="none" stroke-width="0.1"/><path d="M 190.747,-56.97 L 180.547,-56.97 L 180.547,-60.19 L 188.232,-60.19 L 188.232,-76.57 L 180.547,-76.57 L 180.547,-79.79 L 190.747,-79.79 L 190.747,-82.57 L 176.567,-82.57 M 176.567,-54.19 L 190.747,-54.19 L 190.747,-56.97" stroke="#0000ff" fill="none" stroke-width="0.1"/><path d="M 190.747,-85.35 L 180.547,-85.35 L 180.547,-88.57 L 188.232,-88.57 L 188.232,-104.95 L 180.547,-104.95 L 180.547,-108.17 L 190.747,-108.17 L 190.747,-110.95 L 176.567,-110.95 M 190.747,-82.57 L 190.747,-85.35" stroke="#0000ff" fill="none" stroke-width="0.1"/><path d="M 36.1879,-136.305 L 39.3027,-136.798 L 42.3489,-137.614 L 45.293,-138.744 L 48.1029,-140.176 L 50.7478,-141.894 L 53.1986,-143.878 L 55.4286,-146.108 L 57.4132,-148.559 L 59.1308,-151.204 L 60.5625,-154.014 L 61.6927,-156.958 L 62.5089,-160.004 L 63.0023,-163.119 L 63.1673,-166.268 L 63.0023,-169.417 L 62.5089,-172.532 L 61.6927,-175.578 L 60.5625,-178.523 L 59.1308,-181.333 L 57.4132,-183.977 L 55.4286,-186.428 L 53.1986,-188.658 L 50.7478,-190.643 L 48.1029,-192.36 L 45.293,-193.792 L 42.3489,-194.922 L 39.3027,-195.738 L 36.1879,-196.232 L 33.0386,-196.397 L 29.8893,-196.232 L 26.7745,-195.738 L 23.7283,-194.922 L 20.7841,-193.792 L 17.9742,-192.36 L 15.3294,-190.643 L 12.8786,-188.658 L 10.6486,-186.428 L 8.66396,-183.977 L 6.94637,-181.333 L 5.51463,-178.523 L 4.38449,-175.578 L 3.56827,-172.532 L 3.07492,-169.417 L 2.90988,-166.268 L 3.07492,-163.119 L 3.56827,-160.004 L 4.38449,-156.958 L 5.51463,-154.014 L 6.94637,-151.204 L 8.66396,-148.559 L 10.6486,-146.108 L 12.8786,-143.878 L 15.3294,-141.894 L 17.9742,-140.176 L 20.7841,-138.744 L 23.7283,-137.614 L 26.7745,-136.798 L 29.8893,-136.305 L 33.0386,-136.139 L 36.1879,-136.305 M 32.5346,-193.534 L 32.2231,-193.814 L 32.0526,-194.197 L 32.0526,-194.616 L 32.2231,-194.999 L 32.5346,-195.28 L 32.9333,-195.409 L 33.3501,-195.365 L 33.7131,-195.156 L 33.9594,-194.817 L 34.0466,-194.407 L 33.9594,-193.997 L 33.7131,-193.658 L 33.3501,-193.448 L 32.9333,-193.404 L 32.5346,-193.534 M 29.1429,-193.329 L 28.8314,-193.609 L 28.6609,-193.992 L 28.6609,-194.411 L 28.8314,-194.794 L 29.1429,-195.075 L 29.5415,-195.204 L 29.9584,-195.16 L 30.3213,-194.951 L 30.5677,-194.612 L 30.6549,-194.202 L 30.5677,-193.792 L 30.3213,-193.453 L 29.9584,-193.243 L 29.5415,-193.199 L 29.1429,-193.329 M 35.9263,-193.329 L 35.6148,-193.609 L 35.4444,-193.992 L 35.4444,-194.411 L 35.6148,-194.794 L 35.9263,-195.075 L 36.325,-195.204 L 36.7418,-195.16 L 37.1048,-194.951 L 37.3512,-194.612 L 37.4383,-194.202 L 37.3512,-193.792 L 37.1048,-193.453 L 36.7418,-193.243 L 36.325,-193.199 L 35.9263,-193.329 M 25.8006,-192.716 L 25.4891,-192.997 L 25.3186,-193.38 L 25.3186,-193.799 L 25.4891,-194.182 L 25.8006,-194.462 L 26.1992,-194.592 L 26.6161,-194.548 L 26.979,-194.338 L 27.2254,-193.999 L 27.3126,-193.589 L 27.2254,-193.179 L 26.979,-192.84 L 26.6161,-192.63 L 26.1992,-192.587 L 25.8006,-192.716 M 39.2686,-192.716 L 38.9571,-192.997 L 38.7866,-193.38 L 38.7866,-193.799 L 38.9571,-194.182 L 39.2686,-194.462 L 39.6673,-194.592 L 40.0841,-194.548 L 40.4471,-194.338 L 40.6934,-193.999 L 40.7806,-193.589 L 40.6934,-193.179 L 40.4471,-192.84 L 40.0841,-192.63 L 39.6673,-192.587 L 39.2686,-192.716 M 22.5565,-191.705 L 22.245,-191.986 L 22.0746,-192.369 L 22.0746,-192.788 L 22.245,-193.171 L 22.5565,-193.451 L 22.9552,-193.581 L 23.372,-193.537 L 23.735,-193.327 L 23.9814,-192.988 L 24.0685,-192.578 L 23.9814,-192.168 L 23.735,-191.829 L 23.372,-191.62 L 22.9552,-191.576 L 22.5565,-191.705 M 42.5126,-191.705 L 42.2012,-191.986 L 42.0307,-192.369 L 42.0307,-192.788 L 42.2012,-193.171 L 42.5126,-193.451 L 42.9113,-193.581 L 43.3282,-193.537 L 43.6911,-193.327 L 43.9375,-192.988 L 44.0247,-192.578 L 43.9375,-192.168 L 43.6911,-191.829 L 43.3282,-191.62 L 42.9113,-191.576 L 42.5126,-191.705 M 19.4579,-190.311 L 19.1465,-190.591 L 18.976,-190.974 L 18.976,-191.393 L 19.1465,-191.776 L 19.4579,-192.057 L 19.8566,-192.186 L 20.2734,-192.142 L 20.6364,-191.933 L 20.8828,-191.594 L 20.9699,-191.184 L 20.8828,-190.774 L 20.6364,-190.435 L 20.2734,-190.225 L 19.8566,-190.181 L 19.4579,-190.311 M 45.6112,-190.311 L 45.2998,-190.591 L 45.1293,-190.974 L 45.1293,-191.393 L 45.2998,-191.776 L 45.6112,-192.057 L 46.0099,-192.186 L 46.4267,-192.142 L 46.7897,-191.933 L 47.0361,-191.594 L 47.1232,-191.184 L 47.0361,-190.774 L 46.7897,-190.435 L 46.4267,-190.225 L 46.0099,-190.181 L 45.6112,-190.311 M 16.55,-188.553 L 16.2386,-188.833 L 16.0681,-189.216 L 16.0681,-189.635 L 16.2386,-190.018 L 16.55,-190.299 L 16.9487,-190.428 L 17.3655,-190.384 L 17.7285,-190.175 L 17.9749,-189.836 L 18.062,-189.426 L 17.9749,-189.016 L 17.7285,-188.677 L 17.3655,-188.467 L 16.9487,-188.423 L 16.55,-188.553 M 48.5191,-188.553 L 48.2076,-188.833 L 48.0372,-189.216 L 48.0372,-189.635 L 48.2076,-190.018 L 48.5191,-190.299 L 48.9178,-190.428 L 49.3346,-190.384 L 49.6976,-190.175 L 49.944,-189.836 L 50.0311,-189.426 L 49.944,-189.016 L 49.6976,-188.677 L 49.3346,-188.467 L 48.9178,-188.423 L 48.5191,-188.553 M 13.8752,-186.457 L 13.5638,-186.738 L 13.3933,-187.121 L 13.3933,-187.54 L 13.5638,-187.923 L 13.8752,-188.203 L 14.2739,-188.333 L 14.6908,-188.289 L 15.0537,-188.079 L 15.3001,-187.74 L 15.3873,-187.33 L 15.3001,-186.92 L 15.0537,-186.581 L 14.6908,-186.372 L 14.2739,-186.328 L 13.8752,-186.457 M 51.1939,-186.457 L 50.8824,-186.738 L 50.712,-187.121 L 50.712,-187.54 L 50.8824,-187.923 L 51.1939,-188.203 L 51.5926,-188.333 L 52.0094,-188.289 L 52.3724,-188.079 L 52.6188,-187.74 L 52.7059,-187.33 L 52.6188,-186.92 L 52.3724,-186.581 L 52.0094,-186.372 L 51.5926,-186.328 L 51.1939,-186.457 M 11.4725,-184.055 L 11.1611,-184.335 L 10.9906,-184.718 L 10.9906,-185.137 L 11.1611,-185.52 L 11.4725,-185.8 L 11.8712,-185.93 L 12.2881,-185.886 L 12.651,-185.677 L 12.8974,-185.337 L 12.9845,-184.928 L 12.8974,-184.518 L 12.651,-184.178 L 12.2881,-183.969 L 11.8712,-183.925 L 11.4725,-184.055 M 53.5966,-184.055 L 53.2851,-184.335 L 53.1147,-184.718 L 53.1147,-185.137 L 53.2851,-185.52 L 53.5966,-185.8 L 53.9953,-185.93 L 54.4121,-185.886 L 54.7751,-185.677 L 55.0215,-185.337 L 55.1086,-184.928 L 55.0215,-184.518 L 54.7751,-184.178 L 54.4121,-183.969 L 53.9953,-183.925 L 53.5966,-184.055 M 32.0971,-182.137 L 31.5152,-182.661 L 31.1967,-183.377 L 31.1967,-184.16 L 31.5152,-184.875 L 32.0971,-185.399 L 32.8418,-185.641 L 33.6205,-185.559 L 34.2985,-185.167 L 34.7588,-184.534 L 34.9216,-183.768 L 34.7588,-183.002 L 34.2985,-182.369 L 33.6205,-181.977 L 32.8418,-181.895 L 32.0971,-182.137 M 9.37698,-181.38 L 9.06551,-181.66 L 8.89502,-182.043 L 8.89502,-182.462 L 9.06551,-182.845 L 9.37698,-183.126 L 9.77565,-183.255 L 10.1925,-183.211 L 10.5555,-183.002 L 10.8018,-182.663 L 10.889,-182.253 L 10.8018,-181.843 L 10.5555,-181.504 L 10.1925,-181.294 L 9.77565,-181.25 L 9.37698,-181.38 M 55.6922,-181.38 L 55.3807,-181.66 L 55.2102,-182.043 L 55.2102,-182.462 L 55.3807,-182.845 L 55.6922,-183.126 L 56.0909,-183.255 L 56.5077,-183.211 L 56.8707,-183.002 L 57.1171,-182.663 L 57.2042,-182.253 L 57.1171,-181.843 L 56.8707,-181.504 L 56.5077,-181.294 L 56.0909,-181.25 L 55.6922,-181.38 M 7.61909,-178.472 L 7.30762,-178.752 L 7.13715,-179.135 L 7.13715,-179.554 L 7.30762,-179.937 L 7.61909,-180.218 L 8.01778,-180.347 L 8.4346,-180.303 L 8.79756,-180.094 L 9.04396,-179.755 L 9.1311,-179.345 L 9.04396,-178.935 L 8.79756,-178.596 L 8.4346,-178.386 L 8.01778,-178.342 L 7.61909,-178.472 M 57.4501,-178.472 L 57.1386,-178.752 L 56.9681,-179.135 L 56.9681,-179.554 L 57.1386,-179.937 L 57.4501,-180.218 L 57.8487,-180.347 L 58.2656,-180.303 L 58.6285,-180.094 L 58.8749,-179.755 L 58.9621,-179.345 L 58.8749,-178.935 L 58.6285,-178.596 L 58.2656,-178.386 L 57.8487,-178.342 L 57.4501,-178.472 M 6.22455,-175.373 L 5.91307,-175.654 L 5.74258,-176.037 L 5.74258,-176.456 L 5.91307,-176.839 L 6.22455,-177.119 L 6.6232,-177.249 L 7.04004,-177.205 L 7.40303,-176.995 L 7.64941,-176.656 L 7.73654,-176.246 L 7.64941,-175.836 L 7.40303,-175.497 L 7.04004,-175.288 L 6.6232,-175.244 L 6.22455,-175.373 M 58.8446,-175.373 L 58.5331,-175.654 L 58.3627,-176.037 L 58.3627,-176.456 L 58.5331,-176.839 L 58.8446,-177.119 L 59.2433,-177.249 L 59.6601,-177.205 L 60.0231,-176.995 L 60.2695,-176.656 L 60.3566,-176.246 L 60.2695,-175.836 L 60.0231,-175.497 L 59.6601,-175.288 L 59.2433,-175.244 L 58.8446,-175.373 M 29.1286,-172.858 L 29.1286,-175.678 L 36.9486,-175.678 L 36.9486,-172.858 L 29.1286,-172.858 M 5.21365,-172.129 L 4.90218,-172.41 L 4.73169,-172.793 L 4.73169,-173.212 L 4.90218,-173.595 L 5.21365,-173.875 L 5.61232,-174.005 L 6.02914,-173.961 L 6.39214,-173.751 L 6.63852,-173.412 L 6.72565,-173.002 L 6.63852,-172.592 L 6.39214,-172.253 L 6.02914,-172.044 L 5.61232,-172 L 5.21365,-172.129 M 59.8555,-172.129 L 59.544,-172.41 L 59.3736,-172.793 L 59.3736,-173.212 L 59.544,-173.595 L 59.8555,-173.875 L 60.2542,-174.005 L 60.671,-173.961 L 61.034,-173.751 L 61.2804,-173.412 L 61.3675,-173.002 L 61.2804,-172.592 L 61.034,-172.253 L 60.671,-172.044 L 60.2542,-172 L 59.8555,-172.129 M 4.60115,-168.787 L 4.28967,-169.067 L 4.1192,-169.45 L 4.1192,-169.869 L 4.28967,-170.252 L 4.60115,-170.533 L 4.99982,-170.662 L 5.41666,-170.619 L 5.77963,-170.409 L 6.02602,-170.07 L 6.11316,-169.66 L 6.02602,-169.25 L 5.77962,-168.911 L 5.41666,-168.701 L 4.99982,-168.657 L 4.60115,-168.787 M 60.468,-168.787 L 60.1565,-169.067 L 59.9861,-169.45 L 59.9861,-169.869 L 60.1565,-170.252 L 60.468,-170.533 L 60.8667,-170.662 L 61.2835,-170.619 L 61.6465,-170.409 L 61.8929,-170.07 L 61.98,-169.66 L 61.8929,-169.25 L 61.6465,-168.911 L 61.2835,-168.701 L 60.8667,-168.657 L 60.468,-168.787 M 39.6286,-162.358 L 39.6286,-170.178 L 42.4486,-170.178 L 42.4486,-162.358 L 39.6286,-162.358 M 23.6286,-162.358 L 23.6286,-170.178 L 26.4486,-170.178 L 26.4486,-162.358 L 23.6286,-162.358 M 32.7466,-163.957 L 32.4592,-164.012 L 32.1809,-164.102 L 31.9162,-164.227 L 31.6692,-164.383 L 31.6286,-164.417 L 31.6286,-165.942 L 28.1286,-165.942 L 28.1286,-166.595 L 31.6286,-166.595 L 31.6286,-168.119 L 31.6692,-168.153 L 31.9162,-168.31 L 32.1809,-168.434 L 32.4592,-168.525 L 32.7466,-168.58 L 33.0386,-168.598 L 33.3306,-168.58 L 33.618,-168.525 L 33.8963,-168.434 L 34.161,-168.31 L 34.408,-168.153 L 34.4486,-168.119 L 34.4486,-166.595 L 37.9486,-166.595 L 37.9486,-165.942 L 34.4486,-165.942 L 34.4486,-164.417 L 34.408,-164.383 L 34.161,-164.227 L 33.8963,-164.102 L 33.618,-164.012 L 33.3306,-163.957 L 33.0386,-163.938 L 32.7466,-163.957 M 4.396,-165.395 L 4.08452,-165.676 L 3.91403,-166.059 L 3.91403,-166.478 L 4.08452,-166.861 L 4.396,-167.141 L 4.79466,-167.271 L 5.2115,-167.227 L 5.57446,-167.017 L 5.82086,-166.678 L 5.90799,-166.268 L 5.82086,-165.858 L 5.57446,-165.519 L 5.2115,-165.31 L 4.79466,-165.266 L 4.396,-165.395 M 60.6732,-165.395 L 60.3617,-165.676 L 60.1912,-166.059 L 60.1912,-166.478 L 60.3617,-166.861 L 60.6732,-167.141 L 61.0718,-167.271 L 61.4887,-167.227 L 61.8517,-167.017 L 62.098,-166.678 L 62.1852,-166.268 L 62.098,-165.858 L 61.8517,-165.519 L 61.4887,-165.31 L 61.0718,-165.266 L 60.6732,-165.395 M 4.60115,-162.004 L 4.28967,-162.284 L 4.1192,-162.667 L 4.1192,-163.086 L 4.28967,-163.469 L 4.60115,-163.749 L 4.99982,-163.879 L 5.41666,-163.835 L 5.77962,-163.626 L 6.02602,-163.286 L 6.11316,-162.876 L 6.02602,-162.466 L 5.77963,-162.127 L 5.41666,-161.918 L 4.99982,-161.874 L 4.60115,-162.004 M 60.468,-162.004 L 60.1565,-162.284 L 59.9861,-162.667 L 59.9861,-163.086 L 60.1565,-163.469 L 60.468,-163.749 L 60.8667,-163.879 L 61.2835,-163.835 L 61.6465,-163.626 L 61.8929,-163.286 L 61.98,-162.876 L 61.8929,-162.466 L 61.6465,-162.127 L 61.2835,-161.918 L 60.8667,-161.874 L 60.468,-162.004 M 5.21365,-158.661 L 4.90218,-158.942 L 4.73169,-159.325 L 4.73169,-159.744 L 4.90218,-160.127 L 5.21365,-160.407 L 5.61232,-160.537 L 6.02914,-160.493 L 6.39214,-160.283 L 6.63852,-159.944 L 6.72565,-159.534 L 6.63852,-159.124 L 6.39214,-158.785 L 6.02914,-158.576 L 5.61232,-158.532 L 5.21365,-158.661 M 59.8555,-158.661 L 59.544,-158.942 L 59.3736,-159.325 L 59.3736,-159.744 L 59.544,-160.127 L 59.8555,-160.407 L 60.2542,-160.537 L 60.671,-160.493 L 61.034,-160.283 L 61.2804,-159.944 L 61.3675,-159.534 L 61.2804,-159.124 L 61.034,-158.785 L 60.671,-158.576 L 60.2542,-158.532 L 59.8555,-158.661 M 29.1286,-156.858 L 29.1286,-159.678 L 36.9486,-159.678 L 36.9486,-156.858 L 29.1286,-156.858 M 6.22455,-155.417 L 5.91307,-155.698 L 5.74258,-156.081 L 5.74258,-156.5 L 5.91307,-156.883 L 6.22455,-157.163 L 6.6232,-157.293 L 7.04004,-157.249 L 7.40303,-157.039 L 7.64941,-156.7 L 7.73654,-156.29 L 7.64941,-155.88 L 7.40303,-155.541 L 7.04004,-155.331 L 6.6232,-155.288 L 6.22455,-155.417 M 58.8446,-155.417 L 58.5331,-155.698 L 58.3627,-156.081 L 58.3627,-156.5 L 58.5331,-156.883 L 58.8446,-157.163 L 59.2433,-157.293 L 59.6601,-157.249 L 60.0231,-157.039 L 60.2695,-156.7 L 60.3566,-156.29 L 60.2695,-155.88 L 60.0231,-155.541 L 59.6601,-155.331 L 59.2433,-155.288 L 58.8446,-155.417 M 7.61909,-152.319 L 7.30762,-152.599 L 7.13715,-152.982 L 7.13715,-153.401 L 7.30762,-153.784 L 7.61909,-154.064 L 8.01778,-154.194 L 8.4346,-154.15 L 8.79756,-153.941 L 9.04396,-153.601 L 9.1311,-153.192 L 9.04396,-152.782 L 8.79756,-152.442 L 8.4346,-152.233 L 8.01778,-152.189 L 7.61909,-152.319 M 57.4501,-152.319 L 57.1386,-152.599 L 56.9681,-152.982 L 56.9681,-153.401 L 57.1386,-153.784 L 57.4501,-154.064 L 57.8487,-154.194 L 58.2656,-154.15 L 58.6285,-153.941 L 58.8749,-153.601 L 58.9621,-153.192 L 58.8749,-152.782 L 58.6285,-152.442 L 58.2656,-152.233 L 57.8487,-152.189 L 57.4501,-152.319 M 9.37698,-149.411 L 9.06551,-149.691 L 8.89502,-150.074 L 8.89502,-150.493 L 9.06551,-150.876 L 9.37698,-151.157 L 9.77565,-151.286 L 10.1925,-151.242 L 10.5555,-151.033 L 10.8018,-150.694 L 10.889,-150.284 L 10.8018,-149.874 L 10.5555,-149.535 L 10.1925,-149.325 L 9.77565,-149.281 L 9.37698,-149.411 M 55.6922,-149.411 L 55.3807,-149.691 L 55.2102,-150.074 L 55.2102,-150.493 L 55.3807,-150.876 L 55.6922,-151.157 L 56.0909,-151.286 L 56.5077,-151.242 L 56.8707,-151.033 L 57.1171,-150.694 L 57.2042,-150.284 L 57.1171,-149.874 L 56.8707,-149.535 L 56.5077,-149.325 L 56.0909,-149.281 L 55.6922,-149.411 M 11.4725,-146.736 L 11.1611,-147.016 L 10.9906,-147.399 L 10.9906,-147.818 L 11.1611,-148.201 L 11.4725,-148.482 L 11.8712,-148.611 L 12.2881,-148.567 L 12.651,-148.358 L 12.8974,-148.019 L 12.9845,-147.609 L 12.8974,-147.199 L 12.651,-146.86 L 12.2881,-146.65 L 11.8712,-146.606 L 11.4725,-146.736 M 53.5966,-146.736 L 53.2851,-147.016 L 53.1147,-147.399 L 53.1147,-147.818 L 53.2851,-148.201 L 53.5966,-148.482 L 53.9953,-148.611 L 54.4121,-148.567 L 54.7751,-148.358 L 55.0215,-148.019 L 55.1086,-147.609 L 55.0215,-147.199 L 54.7751,-146.86 L 54.4121,-146.65 L 53.9953,-146.606 L 53.5966,-146.736 M 13.8752,-144.333 L 13.5638,-144.614 L 13.3933,-144.997 L 13.3933,-145.416 L 13.5638,-145.799 L 13.8752,-146.079 L 14.2739,-146.209 L 14.6908,-146.165 L 15.0537,-145.955 L 15.3001,-145.616 L 15.3873,-145.206 L 15.3001,-144.796 L 15.0537,-144.457 L 14.6908,-144.247 L 14.2739,-144.204 L 13.8752,-144.333 M 51.1939,-144.333 L 50.8824,-144.614 L 50.712,-144.997 L 50.712,-145.416 L 50.8824,-145.799 L 51.1939,-146.079 L 51.5926,-146.209 L 52.0094,-146.165 L 52.3724,-145.955 L 52.6188,-145.616 L 52.7059,-145.206 L 52.6188,-144.796 L 52.3724,-144.457 L 52.0094,-144.247 L 51.5926,-144.204 L 51.1939,-144.333 M 16.55,-142.238 L 16.2386,-142.518 L 16.0681,-142.901 L 16.0681,-143.32 L 16.2386,-143.703 L 16.55,-143.984 L 16.9487,-144.113 L 17.3655,-144.069 L 17.7285,-143.86 L 17.9749,-143.521 L 18.062,-143.111 L 17.9749,-142.701 L 17.7285,-142.361 L 17.3655,-142.152 L 16.9487,-142.108 L 16.55,-142.238 M 48.5191,-142.238 L 48.2076,-142.518 L 48.0372,-142.901 L 48.0372,-143.32 L 48.2076,-143.703 L 48.5191,-143.984 L 48.9178,-144.113 L 49.3346,-144.069 L 49.6976,-143.86 L 49.944,-143.521 L 50.0311,-143.111 L 49.944,-142.701 L 49.6976,-142.361 L 49.3346,-142.152 L 48.9178,-142.108 L 48.5191,-142.238 M 19.4579,-140.48 L 19.1465,-140.76 L 18.976,-141.143 L 18.976,-141.562 L 19.1465,-141.945 L 19.4579,-142.226 L 19.8566,-142.355 L 20.2734,-142.311 L 20.6364,-142.102 L 20.8828,-141.763 L 20.9699,-141.353 L 20.8828,-140.943 L 20.6364,-140.604 L 20.2734,-140.394 L 19.8566,-140.35 L 19.4579,-140.48 M 45.6112,-140.48 L 45.2998,-140.76 L 45.1293,-141.143 L 45.1293,-141.562 L 45.2998,-141.945 L 45.6112,-142.226 L 46.0099,-142.355 L 46.4267,-142.311 L 46.7897,-142.102 L 47.0361,-141.763 L 47.1232,-141.353 L 47.0361,-140.943 L 46.7897,-140.604 L 46.4267,-140.394 L 46.0099,-140.35 L 45.6112,-140.48 M 22.5565,-139.085 L 22.245,-139.366 L 22.0746,-139.749 L 22.0746,-140.168 L 22.245,-140.551 L 22.5565,-140.831 L 22.9552,-140.961 L 23.372,-140.917 L 23.735,-140.707 L 23.9814,-140.368 L 24.0685,-139.958 L 23.9814,-139.548 L 23.735,-139.209 L 23.372,-138.999 L 22.9552,-138.956 L 22.5565,-139.085 M 42.5126,-139.085 L 42.2012,-139.366 L 42.0307,-139.749 L 42.0307,-140.168 L 42.2012,-140.551 L 42.5126,-140.831 L 42.9113,-140.961 L 43.3282,-140.917 L 43.6911,-140.707 L 43.9375,-140.368 L 44.0247,-139.958 L 43.9375,-139.548 L 43.6911,-139.209 L 43.3282,-138.999 L 42.9113,-138.956 L 42.5126,-139.085 M 25.8006,-138.074 L 25.4891,-138.355 L 25.3186,-138.738 L 25.3186,-139.157 L 25.4891,-139.54 L 25.8006,-139.82 L 26.1992,-139.95 L 26.6161,-139.906 L 26.979,-139.696 L 27.2254,-139.357 L 27.3126,-138.947 L 27.2254,-138.537 L 26.979,-138.198 L 26.6161,-137.989 L 26.1992,-137.945 L 25.8006,-138.074 M 39.2686,-138.074 L 38.9571,-138.355 L 38.7866,-138.738 L 38.7866,-139.157 L 38.9571,-139.54 L 39.2686,-139.82 L 39.6673,-139.95 L 40.0841,-139.906 L 40.4471,-139.696 L 40.6934,-139.357 L 40.7806,-138.947 L 40.6934,-138.537 L 40.4471,-138.198 L 40.0841,-137.989 L 39.6673,-137.945 L 39.2686,-138.074 M 29.1429,-137.462 L 28.8314,-137.742 L 28.6609,-138.125 L 28.6609,-138.544 L 28.8314,-138.927 L 29.1429,-139.208 L 29.5415,-139.337 L 29.9584,-139.293 L 30.3213,-139.084 L 30.5677,-138.745 L 30.6549,-138.335 L 30.5677,-137.925 L 30.3213,-137.586 L 29.9584,-137.376 L 29.5415,-137.332 L 29.1429,-137.462 M 35.9263,-137.462 L 35.6148,-137.742 L 35.4444,-138.125 L 35.4444,-138.544 L 35.6148,-138.927 L 35.9263,-139.208 L 36.325,-139.337 L 36.7418,-139.293 L 37.1048,-139.084 L 37.3512,-138.745 L 37.4383,-138.335 L 37.3512,-137.925 L 37.1048,-137.586 L 36.7418,-137.376 L 36.325,-137.332 L 35.9263,-137.462 M 32.5346,-137.257 L 32.2231,-137.537 L 32.0526,-137.92 L 32.0526,-138.339 L 32.2231,-138.722 L 32.5346,-139.003 L 32.9333,-139.132 L 33.3501,-139.088 L 33.7131,-138.879 L 33.9594,-138.54 L 34.0466,-138.13 L 33.9594,-137.72 L 33.7131,-137.381 L 33.3501,-137.171 L 32.9333,-137.127 L 32.5346,-137.257" stroke="#0000ff" fill="none" stroke-width="0.1"/><path d="M 96.4451,-136.305 L 99.5599,-136.798 L 102.606,-137.614 L 105.55,-138.744 L 108.36,-140.176 L 111.005,-141.894 L 113.456,-143.878 L 115.686,-146.108 L 117.67,-148.559 L 119.388,-151.204 L 120.82,-154.014 L 121.95,-156.958 L 122.766,-160.004 L 123.259,-163.119 L 123.424,-166.268 L 123.259,-169.417 L 122.766,-172.532 L 121.95,-175.578 L 120.82,-178.523 L 119.388,-181.333 L 117.67,-183.977 L 115.686,-186.428 L 113.456,-188.658 L 111.005,-190.643 L 108.36,-192.36 L 105.55,-193.792 L 102.606,-194.922 L 99.5599,-195.738 L 96.4451,-196.232 L 93.2958,-196.397 L 90.1465,-196.232 L 87.0317,-195.738 L 83.9855,-194.922 L 81.0413,-193.792 L 78.2314,-192.36 L 75.5866,-190.643 L 73.1357,-188.658 L 70.9058,-186.428 L 68.9211,-183.977 L 67.2036,-181.333 L 65.7718,-178.523 L 64.6417,-175.578 L 63.8255,-172.532 L 63.3321,-169.417 L 63.1671,-166.268 L 63.3321,-163.119 L 63.8255,-160.004 L 64.6417,-156.958 L 65.7718,-154.014 L 67.2036,-151.204 L 68.9211,-148.559 L 70.9058,-146.108 L 73.1357,-143.878 L 75.5866,-141.894 L 78.2314,-140.176 L 81.0413,-138.744 L 83.9855,-137.614 L 87.0317,-136.798 L 90.1465,-136.305 L 93.2958,-136.139 L 96.4451,-136.305 M 92.7918,-193.534 L 92.4803,-193.814 L 92.3098,-194.197 L 92.3098,-194.616 L 92.4803,-194.999 L 92.7918,-195.28 L 93.1904,-195.409 L 93.6073,-195.365 L 93.9702,-195.156 L 94.2166,-194.817 L 94.3038,-194.407 L 94.2166,-193.997 L 93.9702,-193.658 L 93.6073,-193.448 L 93.1904,-193.404 L 92.7918,-193.534 M 89.4,-193.329 L 89.0886,-193.609 L 88.9181,-193.992 L 88.9181,-194.411 L 89.0886,-194.794 L 89.4,-195.075 L 89.7987,-195.204 L 90.2155,-195.16 L 90.5785,-194.951 L 90.8249,-194.612 L 90.912,-194.202 L 90.8249,-193.792 L 90.5785,-193.453 L 90.2155,-193.243 L 89.7987,-193.199 L 89.4,-193.329 M 96.1835,-193.329 L 95.872,-193.609 L 95.7015,-193.992 L 95.7015,-194.411 L 95.872,-194.794 L 96.1835,-195.075 L 96.5822,-195.204 L 96.999,-195.16 L 97.362,-194.951 L 97.6084,-194.612 L 97.6955,-194.202 L 97.6084,-193.792 L 97.362,-193.453 L 96.999,-193.243 L 96.5822,-193.199 L 96.1835,-193.329 M 86.0578,-192.716 L 85.7463,-192.997 L 85.5758,-193.38 L 85.5758,-193.799 L 85.7463,-194.182 L 86.0578,-194.462 L 86.4564,-194.592 L 86.8733,-194.548 L 87.2362,-194.338 L 87.4826,-193.999 L 87.5698,-193.589 L 87.4826,-193.179 L 87.2362,-192.84 L 86.8733,-192.63 L 86.4564,-192.587 L 86.0578,-192.716 M 99.5258,-192.716 L 99.2143,-192.997 L 99.0438,-193.38 L 99.0438,-193.799 L 99.2143,-194.182 L 99.5258,-194.462 L 99.9244,-194.592 L 100.341,-194.548 L 100.704,-194.338 L 100.951,-193.999 L 101.038,-193.589 L 100.951,-193.179 L 100.704,-192.84 L 100.341,-192.63 L 99.9244,-192.587 L 99.5258,-192.716 M 82.8137,-191.705 L 82.5022,-191.986 L 82.3317,-192.369 L 82.3317,-192.788 L 82.5022,-193.171 L 82.8137,-193.451 L 83.2124,-193.581 L 83.6292,-193.537 L 83.9922,-193.327 L 84.2386,-192.988 L 84.3257,-192.578 L 84.2386,-192.168 L 83.9922,-191.829 L 83.6292,-191.62 L 83.2124,-191.576 L 82.8137,-191.705 M 102.77,-191.705 L 102.458,-191.986 L 102.288,-192.369 L 102.288,-192.788 L 102.458,-193.171 L 102.77,-193.451 L 103.169,-193.581 L 103.585,-193.537 L 103.948,-193.327 L 104.195,-192.988 L 104.282,-192.578 L 104.195,-192.168 L 103.948,-191.829 L 103.585,-191.62 L 103.169,-191.576 L 102.77,-191.705 M 79.7151,-190.311 L 79.4036,-190.591 L 79.2332,-190.974 L 79.2332,-191.393 L 79.4036,-191.776 L 79.7151,-192.057 L 80.1138,-192.186 L 80.5306,-192.142 L 80.8936,-191.933 L 81.14,-191.594 L 81.2271,-191.184 L 81.14,-190.774 L 80.8936,-190.435 L 80.5306,-190.225 L 80.1138,-190.181 L 79.7151,-190.311 M 105.868,-190.311 L 105.557,-190.591 L 105.386,-190.974 L 105.386,-191.393 L 105.557,-191.776 L 105.868,-192.057 L 106.267,-192.186 L 106.684,-192.142 L 107.047,-191.933 L 107.293,-191.594 L 107.38,-191.184 L 107.293,-190.774 L 107.047,-190.435 L 106.684,-190.225 L 106.267,-190.181 L 105.868,-190.311 M 76.8072,-188.553 L 76.4958,-188.833 L 76.3253,-189.216 L 76.3253,-189.635 L 76.4958,-190.018 L 76.8072,-190.299 L 77.2059,-190.428 L 77.6227,-190.384 L 77.9857,-190.175 L 78.2321,-189.836 L 78.3192,-189.426 L 78.2321,-189.016 L 77.9857,-188.677 L 77.6227,-188.467 L 77.2059,-188.423 L 76.8072,-188.553 M 108.776,-188.553 L 108.465,-188.833 L 108.294,-189.216 L 108.294,-189.635 L 108.465,-190.018 L 108.776,-190.299 L 109.175,-190.428 L 109.592,-190.384 L 109.955,-190.175 L 110.201,-189.836 L 110.288,-189.426 L 110.201,-189.016 L 109.955,-188.677 L 109.592,-188.467 L 109.175,-188.423 L 108.776,-188.553 M 74.1324,-186.457 L 73.821,-186.738 L 73.6505,-187.121 L 73.6505,-187.54 L 73.821,-187.923 L 74.1324,-188.203 L 74.5311,-188.333 L 74.9479,-188.289 L 75.3109,-188.079 L 75.5573,-187.74 L 75.6444,-187.33 L 75.5573,-186.92 L 75.3109,-186.581 L 74.9479,-186.372 L 74.5311,-186.328 L 74.1324,-186.457 M 111.451,-186.457 L 111.14,-186.738 L 110.969,-187.121 L 110.969,-187.54 L 111.14,-187.923 L 111.451,-188.203 L 111.85,-188.333 L 112.267,-188.289 L 112.63,-188.079 L 112.876,-187.74 L 112.963,-187.33 L 112.876,-186.92 L 112.63,-186.581 L 112.267,-186.372 L 111.85,-186.328 L 111.451,-186.457 M 71.7297,-184.055 L 71.4183,-184.335 L 71.2478,-184.718 L 71.2478,-185.137 L 71.4183,-185.52 L 71.7297,-185.8 L 72.1284,-185.93 L 72.5452,-185.886 L 72.9082,-185.677 L 73.1546,-185.337 L 73.2417,-184.928 L 73.1546,-184.518 L 72.9082,-184.178 L 72.5452,-183.969 L 72.1284,-183.925 L 71.7297,-184.055 M 113.854,-184.055 L 113.542,-184.335 L 113.372,-184.718 L 113.372,-185.137 L 113.542,-185.52 L 113.854,-185.8 L 114.252,-185.93 L 114.669,-185.886 L 115.032,-185.677 L 115.279,-185.337 L 115.366,-184.928 L 115.279,-184.518 L 115.032,-184.178 L 114.669,-183.969 L 114.252,-183.925 L 113.854,-184.055 M 69.6342,-181.38 L 69.3227,-181.66 L 69.1522,-182.043 L 69.1522,-182.462 L 69.3227,-182.845 L 69.6342,-183.126 L 70.0328,-183.255 L 70.4497,-183.211 L 70.8127,-183.002 L 71.059,-182.663 L 71.1462,-182.253 L 71.059,-181.843 L 70.8127,-181.504 L 70.4497,-181.294 L 70.0328,-181.25 L 69.6342,-181.38 M 115.949,-181.38 L 115.638,-181.66 L 115.467,-182.043 L 115.467,-182.462 L 115.638,-182.845 L 115.949,-183.126 L 116.348,-183.255 L 116.765,-183.211 L 117.128,-183.002 L 117.374,-182.663 L 117.461,-182.253 L 117.374,-181.843 L 117.128,-181.504 L 116.765,-181.294 L 116.348,-181.25 L 115.949,-181.38 M 67.8763,-178.472 L 67.5648,-178.752 L 67.3943,-179.135 L 67.3943,-179.554 L 67.5648,-179.937 L 67.8763,-180.218 L 68.275,-180.347 L 68.6918,-180.303 L 69.0547,-180.094 L 69.3011,-179.755 L 69.3883,-179.345 L 69.3011,-178.935 L 69.0547,-178.596 L 68.6918,-178.386 L 68.275,-178.342 L 67.8763,-178.472 M 117.707,-178.472 L 117.396,-178.752 L 117.225,-179.135 L 117.225,-179.554 L 117.396,-179.937 L 117.707,-180.218 L 118.106,-180.347 L 118.523,-180.303 L 118.886,-180.094 L 119.132,-179.755 L 119.219,-179.345 L 119.132,-178.935 L 118.886,-178.596 L 118.523,-178.386 L 118.106,-178.342 L 117.707,-178.472 M 66.4817,-175.373 L 66.1703,-175.654 L 65.9998,-176.037 L 65.9998,-176.456 L 66.1703,-176.839 L 66.4817,-177.119 L 66.8804,-177.249 L 67.2972,-177.205 L 67.6602,-176.995 L 67.9066,-176.656 L 67.9937,-176.246 L 67.9066,-175.836 L 67.6602,-175.497 L 67.2972,-175.288 L 66.8804,-175.244 L 66.4817,-175.373 M 119.102,-175.373 L 118.79,-175.654 L 118.62,-176.037 L 118.62,-176.456 L 118.79,-176.839 L 119.102,-177.119 L 119.5,-177.249 L 119.917,-177.205 L 120.28,-176.995 L 120.527,-176.656 L 120.614,-176.246 L 120.527,-175.836 L 120.28,-175.497 L 119.917,-175.288 L 119.5,-175.244 L 119.102,-175.373 M 90.3858,-172.858 L 90.3858,-175.678 L 96.2058,-175.678 L 96.2058,-172.858 L 90.3858,-172.858 M 65.4708,-172.129 L 65.1594,-172.41 L 64.9889,-172.793 L 64.9889,-173.212 L 65.1594,-173.595 L 65.4708,-173.875 L 65.8695,-174.005 L 66.2863,-173.961 L 66.6493,-173.751 L 66.8957,-173.412 L 66.9828,-173.002 L 66.8957,-172.592 L 66.6493,-172.253 L 66.2863,-172.044 L 65.8695,-172 L 65.4708,-172.129 M 120.113,-172.129 L 119.801,-172.41 L 119.631,-172.793 L 119.631,-173.212 L 119.801,-173.595 L 120.113,-173.875 L 120.511,-174.005 L 120.928,-173.961 L 121.291,-173.751 L 121.538,-173.412 L 121.625,-173.002 L 121.538,-172.592 L 121.291,-172.253 L 120.928,-172.044 L 120.511,-172 L 120.113,-172.129 M 64.8583,-168.787 L 64.5469,-169.067 L 64.3764,-169.45 L 64.3764,-169.869 L 64.5469,-170.252 L 64.8583,-170.533 L 65.257,-170.662 L 65.6738,-170.619 L 66.0368,-170.409 L 66.2832,-170.07 L 66.3703,-169.66 L 66.2832,-169.25 L 66.0368,-168.911 L 65.6738,-168.701 L 65.257,-168.657 L 64.8583,-168.787 M 120.725,-168.787 L 120.414,-169.067 L 120.243,-169.45 L 120.243,-169.869 L 120.414,-170.252 L 120.725,-170.533 L 121.124,-170.662 L 121.541,-170.619 L 121.904,-170.409 L 122.15,-170.07 L 122.237,-169.66 L 122.15,-169.25 L 121.904,-168.911 L 121.541,-168.701 L 121.124,-168.657 L 120.725,-168.787 M 91.277,-162.772 L 89.2583,-166.268 L 91.277,-169.765 L 95.3145,-169.765 L 97.3333,-166.268 L 95.3145,-162.772 L 91.277,-162.772 M 99.8858,-163.358 L 99.8858,-169.178 L 102.706,-169.178 L 102.706,-163.358 L 99.8858,-163.358 M 83.8858,-163.358 L 83.8858,-169.178 L 86.7058,-169.178 L 86.7058,-163.358 L 83.8858,-163.358 M 64.6532,-165.395 L 64.3417,-165.676 L 64.1712,-166.059 L 64.1712,-166.478 L 64.3417,-166.861 L 64.6532,-167.141 L 65.0518,-167.271 L 65.4687,-167.227 L 65.8316,-167.017 L 66.078,-166.678 L 66.1652,-166.268 L 66.078,-165.858 L 65.8316,-165.519 L 65.4687,-165.31 L 65.0518,-165.266 L 64.6532,-165.395 M 120.93,-165.395 L 120.619,-165.676 L 120.448,-166.059 L 120.448,-166.478 L 120.619,-166.861 L 120.93,-167.141 L 121.329,-167.271 L 121.746,-167.227 L 122.109,-167.017 L 122.355,-166.678 L 122.442,-166.268 L 122.355,-165.858 L 122.109,-165.519 L 121.746,-165.31 L 121.329,-165.266 L 120.93,-165.395 M 64.8583,-162.004 L 64.5469,-162.284 L 64.3764,-162.667 L 64.3764,-163.086 L 64.5469,-163.469 L 64.8583,-163.749 L 65.257,-163.879 L 65.6738,-163.835 L 66.0368,-163.626 L 66.2832,-163.286 L 66.3703,-162.876 L 66.2832,-162.466 L 66.0368,-162.127 L 65.6738,-161.918 L 65.257,-161.874 L 64.8583,-162.004 M 120.725,-162.004 L 120.414,-162.284 L 120.243,-162.667 L 120.243,-163.086 L 120.414,-163.469 L 120.725,-163.749 L 121.124,-163.879 L 121.541,-163.835 L 121.904,-163.626 L 122.15,-163.286 L 122.237,-162.876 L 122.15,-162.466 L 121.904,-162.127 L 121.541,-161.918 L 121.124,-161.874 L 120.725,-162.004 M 65.4708,-158.661 L 65.1594,-158.942 L 64.9889,-159.325 L 64.9889,-159.744 L 65.1594,-160.127 L 65.4708,-160.407 L 65.8695,-160.537 L 66.2863,-160.493 L 66.6493,-160.283 L 66.8957,-159.944 L 66.9828,-159.534 L 66.8957,-159.124 L 66.6493,-158.785 L 66.2863,-158.576 L 65.8695,-158.532 L 65.4708,-158.661 M 120.113,-158.661 L 119.801,-158.942 L 119.631,-159.325 L 119.631,-159.744 L 119.801,-160.127 L 120.113,-160.407 L 120.511,-160.537 L 120.928,-160.493 L 121.291,-160.283 L 121.538,-159.944 L 121.625,-159.534 L 121.538,-159.124 L 121.291,-158.785 L 120.928,-158.576 L 120.511,-158.532 L 120.113,-158.661 M 90.3858,-156.858 L 90.3858,-159.678 L 96.2058,-159.678 L 96.2058,-156.858 L 90.3858,-156.858 M 66.4817,-155.417 L 66.1703,-155.698 L 65.9998,-156.081 L 65.9998,-156.5 L 66.1703,-156.883 L 66.4817,-157.163 L 66.8804,-157.293 L 67.2972,-157.249 L 67.6602,-157.039 L 67.9066,-156.7 L 67.9937,-156.29 L 67.9066,-155.88 L 67.6602,-155.541 L 67.2972,-155.331 L 66.8804,-155.288 L 66.4817,-155.417 M 119.102,-155.417 L 118.79,-155.698 L 118.62,-156.081 L 118.62,-156.5 L 118.79,-156.883 L 119.102,-157.163 L 119.5,-157.293 L 119.917,-157.249 L 120.28,-157.039 L 120.527,-156.7 L 120.614,-156.29 L 120.527,-155.88 L 120.28,-155.541 L 119.917,-155.331 L 119.5,-155.288 L 119.102,-155.417 M 67.8763,-152.319 L 67.5648,-152.599 L 67.3943,-152.982 L 67.3943,-153.401 L 67.5648,-153.784 L 67.8763,-154.064 L 68.275,-154.194 L 68.6918,-154.15 L 69.0547,-153.941 L 69.3011,-153.601 L 69.3883,-153.192 L 69.3011,-152.782 L 69.0547,-152.442 L 68.6918,-152.233 L 68.275,-152.189 L 67.8763,-152.319 M 117.707,-152.319 L 117.396,-152.599 L 117.225,-152.982 L 117.225,-153.401 L 117.396,-153.784 L 117.707,-154.064 L 118.106,-154.194 L 118.523,-154.15 L 118.886,-153.941 L 119.132,-153.601 L 119.219,-153.192 L 119.132,-152.782 L 118.886,-152.442 L 118.523,-152.233 L 118.106,-152.189 L 117.707,-152.319 M 69.6342,-149.411 L 69.3227,-149.691 L 69.1522,-150.074 L 69.1522,-150.493 L 69.3227,-150.876 L 69.6342,-151.157 L 70.0328,-151.286 L 70.4497,-151.242 L 70.8127,-151.033 L 71.059,-150.694 L 71.1462,-150.284 L 71.059,-149.874 L 70.8127,-149.535 L 70.4497,-149.325 L 70.0328,-149.281 L 69.6342,-149.411 M 115.949,-149.411 L 115.638,-149.691 L 115.467,-150.074 L 115.467,-150.493 L 115.638,-150.876 L 115.949,-151.157 L 116.348,-151.286 L 116.765,-151.242 L 117.128,-151.033 L 117.374,-150.694 L 117.461,-150.284 L 117.374,-149.874 L 117.128,-149.535 L 116.765,-149.325 L 116.348,-149.281 L 115.949,-149.411 M 71.7297,-146.736 L 71.4183,-147.016 L 71.2478,-147.399 L 71.2478,-147.818 L 71.4183,-148.201 L 71.7297,-148.482 L 72.1284,-148.611 L 72.5452,-148.567 L 72.9082,-148.358 L 73.1546,-148.019 L 73.2417,-147.609 L 73.1546,-147.199 L 72.9082,-146.86 L 72.5452,-146.65 L 72.1284,-146.606 L 71.7297,-146.736 M 113.854,-146.736 L 113.542,-147.016 L 113.372,-147.399 L 113.372,-147.818 L 113.542,-148.201 L 113.854,-148.482 L 114.252,-148.611 L 114.669,-148.567 L 115.032,-148.358 L 115.279,-148.019 L 115.366,-147.609 L 115.279,-147.199 L 115.032,-146.86 L 114.669,-146.65 L 114.252,-146.606 L 113.854,-146.736 M 74.1324,-144.333 L 73.821,-144.614 L 73.6505,-144.997 L 73.6505,-145.416 L 73.821,-145.799 L 74.1324,-146.079 L 74.5311,-146.209 L 74.9479,-146.165 L 75.3109,-145.955 L 75.5573,-145.616 L 75.6444,-145.206 L 75.5573,-144.796 L 75.3109,-144.457 L 74.9479,-144.247 L 74.5311,-144.204 L 74.1324,-144.333 M 111.451,-144.333 L 111.14,-144.614 L 110.969,-144.997 L 110.969,-145.416 L 111.14,-145.799 L 111.451,-146.079 L 111.85,-146.209 L 112.267,-146.165 L 112.63,-145.955 L 112.876,-145.616 L 112.963,-145.206 L 112.876,-144.796 L 112.63,-144.457 L 112.267,-144.247 L 111.85,-144.204 L 111.451,-144.333 M 76.8072,-142.238 L 76.4958,-142.518 L 76.3253,-142.901 L 76.3253,-143.32 L 76.4958,-143.703 L 76.8072,-143.984 L 77.2059,-144.113 L 77.6227,-144.069 L 77.9857,-143.86 L 78.2321,-143.521 L 78.3192,-143.111 L 78.2321,-142.701 L 77.9857,-142.361 L 77.6227,-142.152 L 77.2059,-142.108 L 76.8072,-142.238 M 108.776,-142.238 L 108.465,-142.518 L 108.294,-142.901 L 108.294,-143.32 L 108.465,-143.703 L 108.776,-143.984 L 109.175,-144.113 L 109.592,-144.069 L 109.955,-143.86 L 110.201,-143.521 L 110.288,-143.111 L 110.201,-142.701 L 109.955,-142.361 L 109.592,-142.152 L 109.175,-142.108 L 108.776,-142.238 M 79.7151,-140.48 L 79.4036,-140.76 L 79.2332,-141.143 L 79.2332,-141.562 L 79.4036,-141.945 L 79.7151,-142.226 L 80.1138,-142.355 L 80.5306,-142.311 L 80.8936,-142.102 L 81.14,-141.763 L 81.2271,-141.353 L 81.14,-140.943 L 80.8936,-140.604 L 80.5306,-140.394 L 80.1138,-140.35 L 79.7151,-140.48 M 105.868,-140.48 L 105.557,-140.76 L 105.386,-141.143 L 105.386,-141.562 L 105.557,-141.945 L 105.868,-142.226 L 106.267,-142.355 L 106.684,-142.311 L 107.047,-142.102 L 107.293,-141.763 L 107.38,-141.353 L 107.293,-140.943 L 107.047,-140.604 L 106.684,-140.394 L 106.267,-140.35 L 105.868,-140.48 M 82.8137,-139.085 L 82.5022,-139.366 L 82.3317,-139.749 L 82.3317,-140.168 L 82.5022,-140.551 L 82.8137,-140.831 L 83.2124,-140.961 L 83.6292,-140.917 L 83.9922,-140.707 L 84.2386,-140.368 L 84.3257,-139.958 L 84.2386,-139.548 L 83.9922,-139.209 L 83.6292,-138.999 L 83.2124,-138.956 L 82.8137,-139.085 M 102.77,-139.085 L 102.458,-139.366 L 102.288,-139.749 L 102.288,-140.168 L 102.458,-140.551 L 102.77,-140.831 L 103.169,-140.961 L 103.585,-140.917 L 103.948,-140.707 L 104.195,-140.368 L 104.282,-139.958 L 104.195,-139.548 L 103.948,-139.209 L 103.585,-138.999 L 103.169,-138.956 L 102.77,-139.085 M 86.0578,-138.074 L 85.7463,-138.355 L 85.5758,-138.738 L 85.5758,-139.157 L 85.7463,-139.54 L 86.0578,-139.82 L 86.4564,-139.95 L 86.8733,-139.906 L 87.2362,-139.696 L 87.4826,-139.357 L 87.5698,-138.947 L 87.4826,-138.537 L 87.2362,-138.198 L 86.8733,-137.989 L 86.4564,-137.945 L 86.0578,-138.074 M 99.5258,-138.074 L 99.2143,-138.355 L 99.0438,-138.738 L 99.0438,-139.157 L 99.2143,-139.54 L 99.5258,-139.82 L 99.9244,-139.95 L 100.341,-139.906 L 100.704,-139.696 L 100.951,-139.357 L 101.038,-138.947 L 100.951,-138.537 L 100.704,-138.198 L 100.341,-137.989 L 99.9244,-137.945 L 99.5258,-138.074 M 89.4,-137.462 L 89.0886,-137.742 L 88.9181,-138.125 L 88.9181,-138.544 L 89.0886,-138.927 L 89.4,-139.208 L 89.7987,-139.337 L 90.2155,-139.293 L 90.5785,-139.084 L 90.8249,-138.745 L 90.912,-138.335 L 90.8249,-137.925 L 90.5785,-137.586 L 90.2155,-137.376 L 89.7987,-137.332 L 89.4,-137.462 M 96.1835,-137.462 L 95.872,-137.742 L 95.7015,-138.125 L 95.7015,-138.544 L 95.872,-138.927 L 96.1835,-139.208 L 96.5822,-139.337 L 96.999,-139.293 L 97.362,-139.084 L 97.6084,-138.745 L 97.6955,-138.335 L 97.6084,-137.925 L 97.362,-137.586 L 96.999,-137.376 L 96.5822,-137.332 L 96.1835,-137.462 M 92.7918,-137.257 L 92.4803,-137.537 L 92.3098,-137.92 L 92.3098,-138.339 L 92.4803,-138.722 L 92.7918,-139.003 L 93.1904,-139.132 L 93.6073,-139.088 L 93.9702,-138.879 L 94.2166,-138.54 L 94.3038,-138.13 L 94.2166,-137.72 L 93.9702,-137.381 L 93.6073,-137.171 L 93.1904,-137.127 L 92.7918,-137.257" stroke="#0000ff" fill="none" stroke-width="0.1"/><path d="M 118.276,-165.831 L 118.364,-165.87 L 118.442,-165.927 L 118.506,-165.998 L 118.554,-166.081 L 118.584,-166.173 L 118.594,-166.268 L 118.584,-166.364 L 118.554,-166.455 L 118.506,-166.538 L 118.442,-166.61 L 118.364,-166.666 L 118.276,-166.705 L 118.182,-166.725 L 116.711,-166.725 L 116.617,-166.705 L 116.53,-166.666 L 116.452,-166.61 L 116.388,-166.538 L 116.34,-166.455 L 116.31,-166.364 L 116.3,-166.268 L 116.31,-166.173 L 116.34,-166.081 L 116.388,-165.998 L 116.452,-165.927 L 116.53,-165.87 L 116.617,-165.831 L 116.711,-165.811 L 118.182,-165.811 L 118.276,-165.831 M 58.0192,-165.831 L 58.1069,-165.87 L 58.1847,-165.927 L 58.2489,-165.998 L 58.297,-166.081 L 58.3266,-166.173 L 58.3367,-166.268 L 58.3266,-166.364 L 58.297,-166.455 L 58.2489,-166.538 L 58.1847,-166.61 L 58.1069,-166.666 L 58.0192,-166.705 L 57.9252,-166.725 L 56.4541,-166.725 L 56.3602,-166.705 L 56.2725,-166.666 L 56.1947,-166.61 L 56.1304,-166.538 L 56.0824,-166.455 L 56.0527,-166.364 L 56.0427,-166.268 L 56.0527,-166.173 L 56.0824,-166.081 L 56.1304,-165.998 L 56.1947,-165.927 L 56.2725,-165.87 L 56.3602,-165.831 L 56.4541,-165.811 L 57.9252,-165.811 L 58.0192,-165.831" stroke="none" fill="#000000" stroke-width="0.5"/><path d="M 64.6786,-10.39 L 72.5986,-10.39 L 72.5986,-7.34 M 78.2286,-7.34 L 78.2286,-12.97 L 75.1786,-12.97 L 75.1786,-20.89 L 78.2286,-20.89 L 78.2286,-26.52 L 72.5986,-26.52 L 72.5986,-23.47 L 64.6786,-23.47 L 64.6786,-26.52 L 59.0486,-26.52 L 59.0486,-20.89 L 62.0986,-20.89 L 62.0986,-12.97 L 59.0486,-12.97 L 59.0486,-7.34 M 64.6786,-7.34 L 64.6786,-10.39 M 68.4128,-14.7823 L 67.9713,-14.8762 L 67.5589,-15.0598 L 67.1936,-15.3252 L 66.8915,-15.6607 L 66.6658,-16.0516 L 66.5263,-16.481 L 66.4791,-16.93 L 66.5263,-17.3789 L 66.6658,-17.8084 L 66.8915,-18.1993 L 67.1936,-18.5348 L 67.5589,-18.8002 L 67.9713,-18.9838 L 68.4128,-19.0777 L 68.8643,-19.0777 L 69.3059,-18.9838 L 69.7183,-18.8002 L 70.0836,-18.5348 L 70.3857,-18.1993 L 70.6114,-17.8084 L 70.7509,-17.3789 L 70.7981,-16.93 L 70.7509,-16.481 L 70.6114,-16.0516 L 70.3857,-15.6607 L 70.0836,-15.3252 L 69.7183,-15.0598 L 69.3059,-14.8762 L 68.8643,-14.7823 L 68.4128,-14.7823" stroke="#0000ff" fill="none" stroke-width="0.1"/></svg>