<?xml version="1.0" encoding="UTF-8" standalone="no"?>
<svg
   width="197mm"
   height="198mm"
   viewBox="-1 -197 197 198"
   version="1.1"
   id="svg19"
   sodipodi:docname="52flap_holder.svg"
   inkscape:version="1.4 (86a8ad7, 2024-10-11)"
   xmlns:inkscape="http://www.inkscape.org/namespaces/inkscape"
   xmlns:sodipodi="http://sodipodi.sourceforge.net/DTD/sodipodi-0.dtd"
   xmlns="http://www.w3.org/2000/svg"
   xmlns:svg="http://www.w3.org/2000/svg"
   xmlns:rdf="http://www.w3.org/1999/02/22-rdf-syntax-ns#"
   xmlns:cc="http://creativecommons.org/ns#"
   xmlns:dc="http://purl.org/dc/elements/1.1/">
  <defs
     id="defs19" />
  <sodipodi:namedview
     id="namedview19"
     pagecolor="#ffffff"
     bordercolor="#000000"
     borderopacity="0.25"
     inkscape:showpageshadow="2"
     inkscape:pageopacity="0.0"
     inkscape:pagecheckerboard="0"
     inkscape:deskcolor="#d1d1d1"
     inkscape:document-units="mm"
     inkscape:zoom="1.0115636"
     inkscape:cx="120.60537"
     inkscape:cy="129.00821"
     inkscape:window-width="1920"
     inkscape:window-height="974"
     inkscape:window-x="-11"
     inkscape:window-y="-11"
     inkscape:window-maximized="1"
     inkscape:current-layer="svg19" />
  <title
     id="title1">OpenSCAD Model</title>
  <path
     d="M 36.1879,-136.305 L 39.3027,-136.798 L 42.3489,-137.614 L 45.293,-138.744 L 48.1029,-140.176 L 50.7478,-141.894 L 53.1986,-143.878 L 55.4286,-146.108 L 57.4132,-148.559 L 59.1308,-151.204 L 60.5625,-154.014 L 61.6927,-156.958 L 62.5089,-160.004 L 63.0023,-163.119 L 63.1673,-166.268 L 63.0023,-169.417 L 62.5089,-172.532 L 61.6927,-175.578 L 60.5625,-178.523 L 59.1308,-181.333 L 57.4132,-183.977 L 55.4286,-186.428 L 53.1986,-188.658 L 50.7478,-190.643 L 48.1029,-192.36 L 45.293,-193.792 L 42.3489,-194.922 L 39.3027,-195.738 L 36.1879,-196.232 L 33.0386,-196.397 L 29.8893,-196.232 L 26.7745,-195.738 L 23.7283,-194.922 L 20.7841,-193.792 L 17.9742,-192.36 L 15.3294,-190.643 L 12.8786,-188.658 L 10.6486,-186.428 L 8.66396,-183.977 L 6.94637,-181.333 L 5.51463,-178.523 L 4.38449,-175.578 L 3.56827,-172.532 L 3.07492,-169.417 L 2.90988,-166.268 L 3.07492,-163.119 L 3.56827,-160.004 L 4.38449,-156.958 L 5.51463,-154.014 L 6.94637,-151.204 L 8.66396,-148.559 L 10.6486,-146.108 L 12.8786,-143.878 L 15.3294,-141.894 L 17.9742,-140.176 L 20.7841,-138.744 L 23.7283,-137.614 L 26.7745,-136.798 L 29.8893,-136.305 L 33.0386,-136.139 L 36.1879,-136.305 M 32.5346,-193.534 L 32.2231,-193.814 L 32.0526,-194.197 L 32.0526,-194.616 L 32.2231,-194.999 L 32.5346,-195.28 L 32.9333,-195.409 L 33.3501,-195.365 L 33.7131,-195.156 L 33.9594,-194.817 L 34.0466,-194.407 L 33.9594,-193.997 L 33.7131,-193.658 L 33.3501,-193.448 L 32.9333,-193.404 L 32.5346,-193.534 M 29.1429,-193.329 L 28.8314,-193.609 L 28.6609,-193.992 L 28.6609,-194.411 L 28.8314,-194.794 L 29.1429,-195.075 L 29.5415,-195.204 L 29.9584,-195.16 L 30.3213,-194.951 L 30.5677,-194.612 L 30.6549,-194.202 L 30.5677,-193.792 L 30.3213,-193.453 L 29.9584,-193.243 L 29.5415,-193.199 L 29.1429,-193.329 M 35.9263,-193.329 L 35.6148,-193.609 L 35.4444,-193.992 L 35.4444,-194.411 L 35.6148,-194.794 L 35.9263,-195.075 L 36.325,-195.204 L 36.7418,-195.16 L 37.1048,-194.951 L 37.3512,-194.612 L 37.4383,-194.202 L 37.3512,-193.792 L 37.1048,-193.453 L 36.7418,-193.243 L 36.325,-193.199 L 35.9263,-193.329 M 25.8006,-192.716 L 25.4891,-192.997 L 25.3186,-193.38 L 25.3186,-193.799 L 25.4891,-194.182 L 25.8006,-194.462 L 26.1992,-194.592 L 26.6161,-194.548 L 26.979,-194.338 L 27.2254,-193.999 L 27.3126,-193.589 L 27.2254,-193.179 L 26.979,-192.84 L 26.6161,-192.63 L 26.1992,-192.587 L 25.8006,-192.716 M 39.2686,-192.716 L 38.9571,-192.997 L 38.7866,-193.38 L 38.7866,-193.799 L 38.9571,-194.182 L 39.2686,-194.462 L 39.6673,-194.592 L 40.0841,-194.548 L 40.4471,-194.338 L 40.6934,-193.999 L 40.7806,-193.589 L 40.6934,-193.179 L 40.4471,-192.84 L 40.0841,-192.63 L 39.6673,-192.587 L 39.2686,-192.716 M 22.5565,-191.705 L 22.245,-191.986 L 22.0746,-192.369 L 22.0746,-192.788 L 22.245,-193.171 L 22.5565,-193.451 L 22.9552,-193.581 L 23.372,-193.537 L 23.735,-193.327 L 23.9814,-192.988 L 24.0685,-192.578 L 23.9814,-192.168 L 23.735,-191.829 L 23.372,-191.62 L 22.9552,-191.576 L 22.5565,-191.705 M 42.5126,-191.705 L 42.2012,-191.986 L 42.0307,-192.369 L 42.0307,-192.788 L 42.2012,-193.171 L 42.5126,-193.451 L 42.9113,-193.581 L 43.3282,-193.537 L 43.6911,-193.327 L 43.9375,-192.988 L 44.0247,-192.578 L 43.9375,-192.168 L 43.6911,-191.829 L 43.3282,-191.62 L 42.9113,-191.576 L 42.5126,-191.705 M 19.4579,-190.311 L 19.1465,-190.591 L 18.976,-190.974 L 18.976,-191.393 L 19.1465,-191.776 L 19.4579,-192.057 L 19.8566,-192.186 L 20.2734,-192.142 L 20.6364,-191.933 L 20.8828,-191.594 L 20.9699,-191.184 L 20.8828,-190.774 L 20.6364,-190.435 L 20.2734,-190.225 L 19.8566,-190.181 L 19.4579,-190.311 M 45.6112,-190.311 L 45.2998,-190.591 L 45.1293,-190.974 L 45.1293,-191.393 L 45.2998,-191.776 L 45.6112,-192.057 L 46.0099,-192.186 L 46.4267,-192.142 L 46.7897,-191.933 L 47.0361,-191.594 L 47.1232,-191.184 L 47.0361,-190.774 L 46.7897,-190.435 L 46.4267,-190.225 L 46.0099,-190.181 L 45.6112,-190.311 M 16.55,-188.553 L 16.2386,-188.833 L 16.0681,-189.216 L 16.0681,-189.635 L 16.2386,-190.018 L 16.55,-190.299 L 16.9487,-190.428 L 17.3655,-190.384 L 17.7285,-190.175 L 17.9749,-189.836 L 18.062,-189.426 L 17.9749,-189.016 L 17.7285,-188.677 L 17.3655,-188.467 L 16.9487,-188.423 L 16.55,-188.553 M 48.5191,-188.553 L 48.2076,-188.833 L 48.0372,-189.216 L 48.0372,-189.635 L 48.2076,-190.018 L 48.5191,-190.299 L 48.9178,-190.428 L 49.3346,-190.384 L 49.6976,-190.175 L 49.944,-189.836 L 50.0311,-189.426 L 49.944,-189.016 L 49.6976,-188.677 L 49.3346,-188.467 L 48.9178,-188.423 L 48.5191,-188.553 M 13.8752,-186.457 L 13.5638,-186.738 L 13.3933,-187.121 L 13.3933,-187.54 L 13.5638,-187.923 L 13.8752,-188.203 L 14.2739,-188.333 L 14.6908,-188.289 L 15.0537,-188.079 L 15.3001,-187.74 L 15.3873,-187.33 L 15.3001,-186.92 L 15.0537,-186.581 L 14.6908,-186.372 L 14.2739,-186.328 L 13.8752,-186.457 M 51.1939,-186.457 L 50.8824,-186.738 L 50.712,-187.121 L 50.712,-187.54 L 50.8824,-187.923 L 51.1939,-188.203 L 51.5926,-188.333 L 52.0094,-188.289 L 52.3724,-188.079 L 52.6188,-187.74 L 52.7059,-187.33 L 52.6188,-186.92 L 52.3724,-186.581 L 52.0094,-186.372 L 51.5926,-186.328 L 51.1939,-186.457 M 11.4725,-184.055 L 11.1611,-184.335 L 10.9906,-184.718 L 10.9906,-185.137 L 11.1611,-185.52 L 11.4725,-185.8 L 11.8712,-185.93 L 12.2881,-185.886 L 12.651,-185.677 L 12.8974,-185.337 L 12.9845,-184.928 L 12.8974,-184.518 L 12.651,-184.178 L 12.2881,-183.969 L 11.8712,-183.925 L 11.4725,-184.055 M 53.5966,-184.055 L 53.2851,-184.335 L 53.1147,-184.718 L 53.1147,-185.137 L 53.2851,-185.52 L 53.5966,-185.8 L 53.9953,-185.93 L 54.4121,-185.886 L 54.7751,-185.677 L 55.0215,-185.337 L 55.1086,-184.928 L 55.0215,-184.518 L 54.7751,-184.178 L 54.4121,-183.969 L 53.9953,-183.925 L 53.5966,-184.055 M 32.0971,-182.137 L 31.5152,-182.661 L 31.1967,-183.377 L 31.1967,-184.16 L 31.5152,-184.875 L 32.0971,-185.399 L 32.8418,-185.641 L 33.6205,-185.559 L 34.2985,-185.167 L 34.7588,-184.534 L 34.9216,-183.768 L 34.7588,-183.002 L 34.2985,-182.369 L 33.6205,-181.977 L 32.8418,-181.895 L 32.0971,-182.137 M 9.37698,-181.38 L 9.06551,-181.66 L 8.89502,-182.043 L 8.89502,-182.462 L 9.06551,-182.845 L 9.37698,-183.126 L 9.77565,-183.255 L 10.1925,-183.211 L 10.5555,-183.002 L 10.8018,-182.663 L 10.889,-182.253 L 10.8018,-181.843 L 10.5555,-181.504 L 10.1925,-181.294 L 9.77565,-181.25 L 9.37698,-181.38 M 55.6922,-181.38 L 55.3807,-181.66 L 55.2102,-182.043 L 55.2102,-182.462 L 55.3807,-182.845 L 55.6922,-183.126 L 56.0909,-183.255 L 56.5077,-183.211 L 56.8707,-183.002 L 57.1171,-182.663 L 57.2042,-182.253 L 57.1171,-181.843 L 56.8707,-181.504 L 56.5077,-181.294 L 56.0909,-181.25 L 55.6922,-181.38 M 7.61909,-178.472 L 7.30762,-178.752 L 7.13715,-179.135 L 7.13715,-179.554 L 7.30762,-179.937 L 7.61909,-180.218 L 8.01778,-180.347 L 8.4346,-180.303 L 8.79756,-180.094 L 9.04396,-179.755 L 9.1311,-179.345 L 9.04396,-178.935 L 8.79756,-178.596 L 8.4346,-178.386 L 8.01778,-178.342 L 7.61909,-178.472 M 57.4501,-178.472 L 57.1386,-178.752 L 56.9681,-179.135 L 56.9681,-179.554 L 57.1386,-179.937 L 57.4501,-180.218 L 57.8487,-180.347 L 58.2656,-180.303 L 58.6285,-180.094 L 58.8749,-179.755 L 58.9621,-179.345 L 58.8749,-178.935 L 58.6285,-178.596 L 58.2656,-178.386 L 57.8487,-178.342 L 57.4501,-178.472 M 6.22455,-175.373 L 5.91307,-175.654 L 5.74258,-176.037 L 5.74258,-176.456 L 5.91307,-176.839 L 6.22455,-177.119 L 6.6232,-177.249 L 7.04004,-177.205 L 7.40303,-176.995 L 7.64941,-176.656 L 7.73654,-176.246 L 7.64941,-175.836 L 7.40303,-175.497 L 7.04004,-175.288 L 6.6232,-175.244 L 6.22455,-175.373 M 58.8446,-175.373 L 58.5331,-175.654 L 58.3627,-176.037 L 58.3627,-176.456 L 58.5331,-176.839 L 58.8446,-177.119 L 59.2433,-177.249 L 59.6601,-177.205 L 60.0231,-176.995 L 60.2695,-176.656 L 60.3566,-176.246 L 60.2695,-175.836 L 60.0231,-175.497 L 59.6601,-175.288 L 59.2433,-175.244 L 58.8446,-175.373 M 29.1286,-172.858 L 29.1286,-175.678 L 36.9486,-175.678 L 36.9486,-172.858 L 29.1286,-172.858 M 5.21365,-172.129 L 4.90218,-172.41 L 4.73169,-172.793 L 4.73169,-173.212 L 4.90218,-173.595 L 5.21365,-173.875 L 5.61232,-174.005 L 6.02914,-173.961 L 6.39214,-173.751 L 6.63852,-173.412 L 6.72565,-173.002 L 6.63852,-172.592 L 6.39214,-172.253 L 6.02914,-172.044 L 5.61232,-172 L 5.21365,-172.129 M 59.8555,-172.129 L 59.544,-172.41 L 59.3736,-172.793 L 59.3736,-173.212 L 59.544,-173.595 L 59.8555,-173.875 L 60.2542,-174.005 L 60.671,-173.961 L 61.034,-173.751 L 61.2804,-173.412 L 61.3675,-173.002 L 61.2804,-172.592 L 61.034,-172.253 L 60.671,-172.044 L 60.2542,-172 L 59.8555,-172.129 M 4.60115,-168.787 L 4.28967,-169.067 L 4.1192,-169.45 L 4.1192,-169.869 L 4.28967,-170.252 L 4.60115,-170.533 L 4.99982,-170.662 L 5.41666,-170.619 L 5.77963,-170.409 L 6.02602,-170.07 L 6.11316,-169.66 L 6.02602,-169.25 L 5.77962,-168.911 L 5.41666,-168.701 L 4.99982,-168.657 L 4.60115,-168.787 M 60.468,-168.787 L 60.1565,-169.067 L 59.9861,-169.45 L 59.9861,-169.869 L 60.1565,-170.252 L 60.468,-170.533 L 60.8667,-170.662 L 61.2835,-170.619 L 61.6465,-170.409 L 61.8929,-170.07 L 61.98,-169.66 L 61.8929,-169.25 L 61.6465,-168.911 L 61.2835,-168.701 L 60.8667,-168.657 L 60.468,-168.787 M 39.6286,-162.358 L 39.6286,-170.178 L 42.4486,-170.178 L 42.4486,-162.358 L 39.6286,-162.358 M 23.6286,-162.358 L 23.6286,-170.178 L 26.4486,-170.178 L 26.4486,-162.358 L 23.6286,-162.358 M 32.7466,-163.957 L 32.4592,-164.012 L 32.1809,-164.102 L 31.9162,-164.227 L 31.6692,-164.383 L 31.6286,-164.417 L 31.6286,-165.942 L 28.1286,-165.942 L 28.1286,-166.595 L 31.6286,-166.595 L 31.6286,-168.119 L 31.6692,-168.153 L 31.9162,-168.31 L 32.1809,-168.434 L 32.4592,-168.525 L 32.7466,-168.58 L 33.0386,-168.598 L 33.3306,-168.58 L 33.618,-168.525 L 33.8963,-168.434 L 34.161,-168.31 L 34.408,-168.153 L 34.4486,-168.119 L 34.4486,-166.595 L 37.9486,-166.595 L 37.9486,-165.942 L 34.4486,-165.942 L 34.4486,-164.417 L 34.408,-164.383 L 34.161,-164.227 L 33.8963,-164.102 L 33.618,-164.012 L 33.3306,-163.957 L 33.0386,-163.938 L 32.7466,-163.957 M 4.396,-165.395 L 4.08452,-165.676 L 3.91403,-166.059 L 3.91403,-166.478 L 4.08452,-166.861 L 4.396,-167.141 L 4.79466,-167.271 L 5.2115,-167.227 L 5.57446,-167.017 L 5.82086,-166.678 L 5.90799,-166.268 L 5.82086,-165.858 L 5.57446,-165.519 L 5.2115,-165.31 L 4.79466,-165.266 L 4.396,-165.395 M 60.6732,-165.395 L 60.3617,-165.676 L 60.1912,-166.059 L 60.1912,-166.478 L 60.3617,-166.861 L 60.6732,-167.141 L 61.0718,-167.271 L 61.4887,-167.227 L 61.8517,-167.017 L 62.098,-166.678 L 62.1852,-166.268 L 62.098,-165.858 L 61.8517,-165.519 L 61.4887,-165.31 L 61.0718,-165.266 L 60.6732,-165.395 M 4.60115,-162.004 L 4.28967,-162.284 L 4.1192,-162.667 L 4.1192,-163.086 L 4.28967,-163.469 L 4.60115,-163.749 L 4.99982,-163.879 L 5.41666,-163.835 L 5.77962,-163.626 L 6.02602,-163.286 L 6.11316,-162.876 L 6.02602,-162.466 L 5.77963,-162.127 L 5.41666,-161.918 L 4.99982,-161.874 L 4.60115,-162.004 M 60.468,-162.004 L 60.1565,-162.284 L 59.9861,-162.667 L 59.9861,-163.086 L 60.1565,-163.469 L 60.468,-163.749 L 60.8667,-163.879 L 61.2835,-163.835 L 61.6465,-163.626 L 61.8929,-163.286 L 61.98,-162.876 L 61.8929,-162.466 L 61.6465,-162.127 L 61.2835,-161.918 L 60.8667,-161.874 L 60.468,-162.004 M 5.21365,-158.661 L 4.90218,-158.942 L 4.73169,-159.325 L 4.73169,-159.744 L 4.90218,-160.127 L 5.21365,-160.407 L 5.61232,-160.537 L 6.02914,-160.493 L 6.39214,-160.283 L 6.63852,-159.944 L 6.72565,-159.534 L 6.63852,-159.124 L 6.39214,-158.785 L 6.02914,-158.576 L 5.61232,-158.532 L 5.21365,-158.661 M 59.8555,-158.661 L 59.544,-158.942 L 59.3736,-159.325 L 59.3736,-159.744 L 59.544,-160.127 L 59.8555,-160.407 L 60.2542,-160.537 L 60.671,-160.493 L 61.034,-160.283 L 61.2804,-159.944 L 61.3675,-159.534 L 61.2804,-159.124 L 61.034,-158.785 L 60.671,-158.576 L 60.2542,-158.532 L 59.8555,-158.661 M 29.1286,-156.858 L 29.1286,-159.678 L 36.9486,-159.678 L 36.9486,-156.858 L 29.1286,-156.858 M 6.22455,-155.417 L 5.91307,-155.698 L 5.74258,-156.081 L 5.74258,-156.5 L 5.91307,-156.883 L 6.22455,-157.163 L 6.6232,-157.293 L 7.04004,-157.249 L 7.40303,-157.039 L 7.64941,-156.7 L 7.73654,-156.29 L 7.64941,-155.88 L 7.40303,-155.541 L 7.04004,-155.331 L 6.6232,-155.288 L 6.22455,-155.417 M 58.8446,-155.417 L 58.5331,-155.698 L 58.3627,-156.081 L 58.3627,-156.5 L 58.5331,-156.883 L 58.8446,-157.163 L 59.2433,-157.293 L 59.6601,-157.249 L 60.0231,-157.039 L 60.2695,-156.7 L 60.3566,-156.29 L 60.2695,-155.88 L 60.0231,-155.541 L 59.6601,-155.331 L 59.2433,-155.288 L 58.8446,-155.417 M 7.61909,-152.319 L 7.30762,-152.599 L 7.13715,-152.982 L 7.13715,-153.401 L 7.30762,-153.784 L 7.61909,-154.064 L 8.01778,-154.194 L 8.4346,-154.15 L 8.79756,-153.941 L 9.04396,-153.601 L 9.1311,-153.192 L 9.04396,-152.782 L 8.79756,-152.442 L 8.4346,-152.233 L 8.01778,-152.189 L 7.61909,-152.319 M 57.4501,-152.319 L 57.1386,-152.599 L 56.9681,-152.982 L 56.9681,-153.401 L 57.1386,-153.784 L 57.4501,-154.064 L 57.8487,-154.194 L 58.2656,-154.15 L 58.6285,-153.941 L 58.8749,-153.601 L 58.9621,-153.192 L 58.8749,-152.782 L 58.6285,-152.442 L 58.2656,-152.233 L 57.8487,-152.189 L 57.4501,-152.319 M 9.37698,-149.411 L 9.06551,-149.691 L 8.89502,-150.074 L 8.89502,-150.493 L 9.06551,-150.876 L 9.37698,-151.157 L 9.77565,-151.286 L 10.1925,-151.242 L 10.5555,-151.033 L 10.8018,-150.694 L 10.889,-150.284 L 10.8018,-149.874 L 10.5555,-149.535 L 10.1925,-149.325 L 9.77565,-149.281 L 9.37698,-149.411 M 55.6922,-149.411 L 55.3807,-149.691 L 55.2102,-150.074 L 55.2102,-150.493 L 55.3807,-150.876 L 55.6922,-151.157 L 56.0909,-151.286 L 56.5077,-151.242 L 56.8707,-151.033 L 57.1171,-150.694 L 57.2042,-150.284 L 57.1171,-149.874 L 56.8707,-149.535 L 56.5077,-149.325 L 56.0909,-149.281 L 55.6922,-149.411 M 11.4725,-146.736 L 11.1611,-147.016 L 10.9906,-147.399 L 10.9906,-147.818 L 11.1611,-148.201 L 11.4725,-148.482 L 11.8712,-148.611 L 12.2881,-148.567 L 12.651,-148.358 L 12.8974,-148.019 L 12.9845,-147.609 L 12.8974,-147.199 L 12.651,-146.86 L 12.2881,-146.65 L 11.8712,-146.606 L 11.4725,-146.736 M 53.5966,-146.736 L 53.2851,-147.016 L 53.1147,-147.399 L 53.1147,-147.818 L 53.2851,-148.201 L 53.5966,-148.482 L 53.9953,-148.611 L 54.4121,-148.567 L 54.7751,-148.358 L 55.0215,-148.019 L 55.1086,-147.609 L 55.0215,-147.199 L 54.7751,-146.86 L 54.4121,-146.65 L 53.9953,-146.606 L 53.5966,-146.736 M 13.8752,-144.333 L 13.5638,-144.614 L 13.3933,-144.997 L 13.3933,-145.416 L 13.5638,-145.799 L 13.8752,-146.079 L 14.2739,-146.209 L 14.6908,-146.165 L 15.0537,-145.955 L 15.3001,-145.616 L 15.3873,-145.206 L 15.3001,-144.796 L 15.0537,-144.457 L 14.6908,-144.247 L 14.2739,-144.204 L 13.8752,-144.333 M 51.1939,-144.333 L 50.8824,-144.614 L 50.712,-144.997 L 50.712,-145.416 L 50.8824,-145.799 L 51.1939,-146.079 L 51.5926,-146.209 L 52.0094,-146.165 L 52.3724,-145.955 L 52.6188,-145.616 L 52.7059,-145.206 L 52.6188,-144.796 L 52.3724,-144.457 L 52.0094,-144.247 L 51.5926,-144.204 L 51.1939,-144.333 M 16.55,-142.238 L 16.2386,-142.518 L 16.0681,-142.901 L 16.0681,-143.32 L 16.2386,-143.703 L 16.55,-143.984 L 16.9487,-144.113 L 17.3655,-144.069 L 17.7285,-143.86 L 17.9749,-143.521 L 18.062,-143.111 L 17.9749,-142.701 L 17.7285,-142.361 L 17.3655,-142.152 L 16.9487,-142.108 L 16.55,-142.238 M 48.5191,-142.238 L 48.2076,-142.518 L 48.0372,-142.901 L 48.0372,-143.32 L 48.2076,-143.703 L 48.5191,-143.984 L 48.9178,-144.113 L 49.3346,-144.069 L 49.6976,-143.86 L 49.944,-143.521 L 50.0311,-143.111 L 49.944,-142.701 L 49.6976,-142.361 L 49.3346,-142.152 L 48.9178,-142.108 L 48.5191,-142.238 M 19.4579,-140.48 L 19.1465,-140.76 L 18.976,-141.143 L 18.976,-141.562 L 19.1465,-141.945 L 19.4579,-142.226 L 19.8566,-142.355 L 20.2734,-142.311 L 20.6364,-142.102 L 20.8828,-141.763 L 20.9699,-141.353 L 20.8828,-140.943 L 20.6364,-140.604 L 20.2734,-140.394 L 19.8566,-140.35 L 19.4579,-140.48 M 45.6112,-140.48 L 45.2998,-140.76 L 45.1293,-141.143 L 45.1293,-141.562 L 45.2998,-141.945 L 45.6112,-142.226 L 46.0099,-142.355 L 46.4267,-142.311 L 46.7897,-142.102 L 47.0361,-141.763 L 47.1232,-141.353 L 47.0361,-140.943 L 46.7897,-140.604 L 46.4267,-140.394 L 46.0099,-140.35 L 45.6112,-140.48 M 22.5565,-139.085 L 22.245,-139.366 L 22.0746,-139.749 L 22.0746,-140.168 L 22.245,-140.551 L 22.5565,-140.831 L 22.9552,-140.961 L 23.372,-140.917 L 23.735,-140.707 L 23.9814,-140.368 L 24.0685,-139.958 L 23.9814,-139.548 L 23.735,-139.209 L 23.372,-138.999 L 22.9552,-138.956 L 22.5565,-139.085 M 42.5126,-139.085 L 42.2012,-139.366 L 42.0307,-139.749 L 42.0307,-140.168 L 42.2012,-140.551 L 42.5126,-140.831 L 42.9113,-140.961 L 43.3282,-140.917 L 43.6911,-140.707 L 43.9375,-140.368 L 44.0247,-139.958 L 43.9375,-139.548 L 43.6911,-139.209 L 43.3282,-138.999 L 42.9113,-138.956 L 42.5126,-139.085 M 25.8006,-138.074 L 25.4891,-138.355 L 25.3186,-138.738 L 25.3186,-139.157 L 25.4891,-139.54 L 25.8006,-139.82 L 26.1992,-139.95 L 26.6161,-139.906 L 26.979,-139.696 L 27.2254,-139.357 L 27.3126,-138.947 L 27.2254,-138.537 L 26.979,-138.198 L 26.6161,-137.989 L 26.1992,-137.945 L 25.8006,-138.074 M 39.2686,-138.074 L 38.9571,-138.355 L 38.7866,-138.738 L 38.7866,-139.157 L 38.9571,-139.54 L 39.2686,-139.82 L 39.6673,-139.95 L 40.0841,-139.906 L 40.4471,-139.696 L 40.6934,-139.357 L 40.7806,-138.947 L 40.6934,-138.537 L 40.4471,-138.198 L 40.0841,-137.989 L 39.6673,-137.945 L 39.2686,-138.074 M 29.1429,-137.462 L 28.8314,-137.742 L 28.6609,-138.125 L 28.6609,-138.544 L 28.8314,-138.927 L 29.1429,-139.208 L 29.5415,-139.337 L 29.9584,-139.293 L 30.3213,-139.084 L 30.5677,-138.745 L 30.6549,-138.335 L 30.5677,-137.925 L 30.3213,-137.586 L 29.9584,-137.376 L 29.5415,-137.332 L 29.1429,-137.462 M 35.9263,-137.462 L 35.6148,-137.742 L 35.4444,-138.125 L 35.4444,-138.544 L 35.6148,-138.927 L 35.9263,-139.208 L 36.325,-139.337 L 36.7418,-139.293 L 37.1048,-139.084 L 37.3512,-138.745 L 37.4383,-138.335 L 37.3512,-137.925 L 37.1048,-137.586 L 36.7418,-137.376 L 36.325,-137.332 L 35.9263,-137.462 M 32.5346,-137.257 L 32.2231,-137.537 L 32.0526,-137.92 L 32.0526,-138.339 L 32.2231,-138.722 L 32.5346,-139.003 L 32.9333,-139.132 L 33.3501,-139.088 L 33.7131,-138.879 L 33.9594,-138.54 L 34.0466,-138.13 L 33.9594,-137.72 L 33.7131,-137.381 L 33.3501,-137.171 L 32.9333,-137.127 L 32.5346,-137.257"
     stroke="#0000ff"
     fill="none"
     stroke-width="0.1"
     id="path16"
     style="stroke:#000000;stroke-width:0.01;stroke-dasharray:none" />
  <path
     d="M 96.4451,-136.305 L 99.5599,-136.798 L 102.606,-137.614 L 105.55,-138.744 L 108.36,-140.176 L 111.005,-141.894 L 113.456,-143.878 L 115.686,-146.108 L 117.67,-148.559 L 119.388,-151.204 L 120.82,-154.014 L 121.95,-156.958 L 122.766,-160.004 L 123.259,-163.119 L 123.424,-166.268 L 123.259,-169.417 L 122.766,-172.532 L 121.95,-175.578 L 120.82,-178.523 L 119.388,-181.333 L 117.67,-183.977 L 115.686,-186.428 L 113.456,-188.658 L 111.005,-190.643 L 108.36,-192.36 L 105.55,-193.792 L 102.606,-194.922 L 99.5599,-195.738 L 96.4451,-196.232 L 93.2958,-196.397 L 90.1465,-196.232 L 87.0317,-195.738 L 83.9855,-194.922 L 81.0413,-193.792 L 78.2314,-192.36 L 75.5866,-190.643 L 73.1357,-188.658 L 70.9058,-186.428 L 68.9211,-183.977 L 67.2036,-181.333 L 65.7718,-178.523 L 64.6417,-175.578 L 63.8255,-172.532 L 63.3321,-169.417 L 63.1671,-166.268 L 63.3321,-163.119 L 63.8255,-160.004 L 64.6417,-156.958 L 65.7718,-154.014 L 67.2036,-151.204 L 68.9211,-148.559 L 70.9058,-146.108 L 73.1357,-143.878 L 75.5866,-141.894 L 78.2314,-140.176 L 81.0413,-138.744 L 83.9855,-137.614 L 87.0317,-136.798 L 90.1465,-136.305 L 93.2958,-136.139 L 96.4451,-136.305 M 92.7918,-193.534 L 92.4803,-193.814 L 92.3098,-194.197 L 92.3098,-194.616 L 92.4803,-194.999 L 92.7918,-195.28 L 93.1904,-195.409 L 93.6073,-195.365 L 93.9702,-195.156 L 94.2166,-194.817 L 94.3038,-194.407 L 94.2166,-193.997 L 93.9702,-193.658 L 93.6073,-193.448 L 93.1904,-193.404 L 92.7918,-193.534 M 89.4,-193.329 L 89.0886,-193.609 L 88.9181,-193.992 L 88.9181,-194.411 L 89.0886,-194.794 L 89.4,-195.075 L 89.7987,-195.204 L 90.2155,-195.16 L 90.5785,-194.951 L 90.8249,-194.612 L 90.912,-194.202 L 90.8249,-193.792 L 90.5785,-193.453 L 90.2155,-193.243 L 89.7987,-193.199 L 89.4,-193.329 M 96.1835,-193.329 L 95.872,-193.609 L 95.7015,-193.992 L 95.7015,-194.411 L 95.872,-194.794 L 96.1835,-195.075 L 96.5822,-195.204 L 96.999,-195.16 L 97.362,-194.951 L 97.6084,-194.612 L 97.6955,-194.202 L 97.6084,-193.792 L 97.362,-193.453 L 96.999,-193.243 L 96.5822,-193.199 L 96.1835,-193.329 M 86.0578,-192.716 L 85.7463,-192.997 L 85.5758,-193.38 L 85.5758,-193.799 L 85.7463,-194.182 L 86.0578,-194.462 L 86.4564,-194.592 L 86.8733,-194.548 L 87.2362,-194.338 L 87.4826,-193.999 L 87.5698,-193.589 L 87.4826,-193.179 L 87.2362,-192.84 L 86.8733,-192.63 L 86.4564,-192.587 L 86.0578,-192.716 M 99.5258,-192.716 L 99.2143,-192.997 L 99.0438,-193.38 L 99.0438,-193.799 L 99.2143,-194.182 L 99.5258,-194.462 L 99.9244,-194.592 L 100.341,-194.548 L 100.704,-194.338 L 100.951,-193.999 L 101.038,-193.589 L 100.951,-193.179 L 100.704,-192.84 L 100.341,-192.63 L 99.9244,-192.587 L 99.5258,-192.716 M 82.8137,-191.705 L 82.5022,-191.986 L 82.3317,-192.369 L 82.3317,-192.788 L 82.5022,-193.171 L 82.8137,-193.451 L 83.2124,-193.581 L 83.6292,-193.537 L 83.9922,-193.327 L 84.2386,-192.988 L 84.3257,-192.578 L 84.2386,-192.168 L 83.9922,-191.829 L 83.6292,-191.62 L 83.2124,-191.576 L 82.8137,-191.705 M 102.77,-191.705 L 102.458,-191.986 L 102.288,-192.369 L 102.288,-192.788 L 102.458,-193.171 L 102.77,-193.451 L 103.169,-193.581 L 103.585,-193.537 L 103.948,-193.327 L 104.195,-192.988 L 104.282,-192.578 L 104.195,-192.168 L 103.948,-191.829 L 103.585,-191.62 L 103.169,-191.576 L 102.77,-191.705 M 79.7151,-190.311 L 79.4036,-190.591 L 79.2332,-190.974 L 79.2332,-191.393 L 79.4036,-191.776 L 79.7151,-192.057 L 80.1138,-192.186 L 80.5306,-192.142 L 80.8936,-191.933 L 81.14,-191.594 L 81.2271,-191.184 L 81.14,-190.774 L 80.8936,-190.435 L 80.5306,-190.225 L 80.1138,-190.181 L 79.7151,-190.311 M 105.868,-190.311 L 105.557,-190.591 L 105.386,-190.974 L 105.386,-191.393 L 105.557,-191.776 L 105.868,-192.057 L 106.267,-192.186 L 106.684,-192.142 L 107.047,-191.933 L 107.293,-191.594 L 107.38,-191.184 L 107.293,-190.774 L 107.047,-190.435 L 106.684,-190.225 L 106.267,-190.181 L 105.868,-190.311 M 76.8072,-188.553 L 76.4958,-188.833 L 76.3253,-189.216 L 76.3253,-189.635 L 76.4958,-190.018 L 76.8072,-190.299 L 77.2059,-190.428 L 77.6227,-190.384 L 77.9857,-190.175 L 78.2321,-189.836 L 78.3192,-189.426 L 78.2321,-189.016 L 77.9857,-188.677 L 77.6227,-188.467 L 77.2059,-188.423 L 76.8072,-188.553 M 108.776,-188.553 L 108.465,-188.833 L 108.294,-189.216 L 108.294,-189.635 L 108.465,-190.018 L 108.776,-190.299 L 109.175,-190.428 L 109.592,-190.384 L 109.955,-190.175 L 110.201,-189.836 L 110.288,-189.426 L 110.201,-189.016 L 109.955,-188.677 L 109.592,-188.467 L 109.175,-188.423 L 108.776,-188.553 M 74.1324,-186.457 L 73.821,-186.738 L 73.6505,-187.121 L 73.6505,-187.54 L 73.821,-187.923 L 74.1324,-188.203 L 74.5311,-188.333 L 74.9479,-188.289 L 75.3109,-188.079 L 75.5573,-187.74 L 75.6444,-187.33 L 75.5573,-186.92 L 75.3109,-186.581 L 74.9479,-186.372 L 74.5311,-186.328 L 74.1324,-186.457 M 111.451,-186.457 L 111.14,-186.738 L 110.969,-187.121 L 110.969,-187.54 L 111.14,-187.923 L 111.451,-188.203 L 111.85,-188.333 L 112.267,-188.289 L 112.63,-188.079 L 112.876,-187.74 L 112.963,-187.33 L 112.876,-186.92 L 112.63,-186.581 L 112.267,-186.372 L 111.85,-186.328 L 111.451,-186.457 M 71.7297,-184.055 L 71.4183,-184.335 L 71.2478,-184.718 L 71.2478,-185.137 L 71.4183,-185.52 L 71.7297,-185.8 L 72.1284,-185.93 L 72.5452,-185.886 L 72.9082,-185.677 L 73.1546,-185.337 L 73.2417,-184.928 L 73.1546,-184.518 L 72.9082,-184.178 L 72.5452,-183.969 L 72.1284,-183.925 L 71.7297,-184.055 M 113.854,-184.055 L 113.542,-184.335 L 113.372,-184.718 L 113.372,-185.137 L 113.542,-185.52 L 113.854,-185.8 L 114.252,-185.93 L 114.669,-185.886 L 115.032,-185.677 L 115.279,-185.337 L 115.366,-184.928 L 115.279,-184.518 L 115.032,-184.178 L 114.669,-183.969 L 114.252,-183.925 L 113.854,-184.055 M 69.6342,-181.38 L 69.3227,-181.66 L 69.1522,-182.043 L 69.1522,-182.462 L 69.3227,-182.845 L 69.6342,-183.126 L 70.0328,-183.255 L 70.4497,-183.211 L 70.8127,-183.002 L 71.059,-182.663 L 71.1462,-182.253 L 71.059,-181.843 L 70.8127,-181.504 L 70.4497,-181.294 L 70.0328,-181.25 L 69.6342,-181.38 M 115.949,-181.38 L 115.638,-181.66 L 115.467,-182.043 L 115.467,-182.462 L 115.638,-182.845 L 115.949,-183.126 L 116.348,-183.255 L 116.765,-183.211 L 117.128,-183.002 L 117.374,-182.663 L 117.461,-182.253 L 117.374,-181.843 L 117.128,-181.504 L 116.765,-181.294 L 116.348,-181.25 L 115.949,-181.38 M 67.8763,-178.472 L 67.5648,-178.752 L 67.3943,-179.135 L 67.3943,-179.554 L 67.5648,-179.937 L 67.8763,-180.218 L 68.275,-180.347 L 68.6918,-180.303 L 69.0547,-180.094 L 69.3011,-179.755 L 69.3883,-179.345 L 69.3011,-178.935 L 69.0547,-178.596 L 68.6918,-178.386 L 68.275,-178.342 L 67.8763,-178.472 M 117.707,-178.472 L 117.396,-178.752 L 117.225,-179.135 L 117.225,-179.554 L 117.396,-179.937 L 117.707,-180.218 L 118.106,-180.347 L 118.523,-180.303 L 118.886,-180.094 L 119.132,-179.755 L 119.219,-179.345 L 119.132,-178.935 L 118.886,-178.596 L 118.523,-178.386 L 118.106,-178.342 L 117.707,-178.472 M 66.4817,-175.373 L 66.1703,-175.654 L 65.9998,-176.037 L 65.9998,-176.456 L 66.1703,-176.839 L 66.4817,-177.119 L 66.8804,-177.249 L 67.2972,-177.205 L 67.6602,-176.995 L 67.9066,-176.656 L 67.9937,-176.246 L 67.9066,-175.836 L 67.6602,-175.497 L 67.2972,-175.288 L 66.8804,-175.244 L 66.4817,-175.373 M 119.102,-175.373 L 118.79,-175.654 L 118.62,-176.037 L 118.62,-176.456 L 118.79,-176.839 L 119.102,-177.119 L 119.5,-177.249 L 119.917,-177.205 L 120.28,-176.995 L 120.527,-176.656 L 120.614,-176.246 L 120.527,-175.836 L 120.28,-175.497 L 119.917,-175.288 L 119.5,-175.244 L 119.102,-175.373 M 90.3858,-172.858 L 90.3858,-175.678 L 96.2058,-175.678 L 96.2058,-172.858 L 90.3858,-172.858 M 65.4708,-172.129 L 65.1594,-172.41 L 64.9889,-172.793 L 64.9889,-173.212 L 65.1594,-173.595 L 65.4708,-173.875 L 65.8695,-174.005 L 66.2863,-173.961 L 66.6493,-173.751 L 66.8957,-173.412 L 66.9828,-173.002 L 66.8957,-172.592 L 66.6493,-172.253 L 66.2863,-172.044 L 65.8695,-172 L 65.4708,-172.129 M 120.113,-172.129 L 119.801,-172.41 L 119.631,-172.793 L 119.631,-173.212 L 119.801,-173.595 L 120.113,-173.875 L 120.511,-174.005 L 120.928,-173.961 L 121.291,-173.751 L 121.538,-173.412 L 121.625,-173.002 L 121.538,-172.592 L 121.291,-172.253 L 120.928,-172.044 L 120.511,-172 L 120.113,-172.129 M 64.8583,-168.787 L 64.5469,-169.067 L 64.3764,-169.45 L 64.3764,-169.869 L 64.5469,-170.252 L 64.8583,-170.533 L 65.257,-170.662 L 65.6738,-170.619 L 66.0368,-170.409 L 66.2832,-170.07 L 66.3703,-169.66 L 66.2832,-169.25 L 66.0368,-168.911 L 65.6738,-168.701 L 65.257,-168.657 L 64.8583,-168.787 M 120.725,-168.787 L 120.414,-169.067 L 120.243,-169.45 L 120.243,-169.869 L 120.414,-170.252 L 120.725,-170.533 L 121.124,-170.662 L 121.541,-170.619 L 121.904,-170.409 L 122.15,-170.07 L 122.237,-169.66 L 122.15,-169.25 L 121.904,-168.911 L 121.541,-168.701 L 121.124,-168.657 L 120.725,-168.787 M 91.277,-162.772 L 89.2583,-166.268 L 91.277,-169.765 L 95.3145,-169.765 L 97.3333,-166.268 L 95.3145,-162.772 L 91.277,-162.772 M 99.8858,-163.358 L 99.8858,-169.178 L 102.706,-169.178 L 102.706,-163.358 L 99.8858,-163.358 M 83.8858,-163.358 L 83.8858,-169.178 L 86.7058,-169.178 L 86.7058,-163.358 L 83.8858,-163.358 M 64.6532,-165.395 L 64.3417,-165.676 L 64.1712,-166.059 L 64.1712,-166.478 L 64.3417,-166.861 L 64.6532,-167.141 L 65.0518,-167.271 L 65.4687,-167.227 L 65.8316,-167.017 L 66.078,-166.678 L 66.1652,-166.268 L 66.078,-165.858 L 65.8316,-165.519 L 65.4687,-165.31 L 65.0518,-165.266 L 64.6532,-165.395 M 120.93,-165.395 L 120.619,-165.676 L 120.448,-166.059 L 120.448,-166.478 L 120.619,-166.861 L 120.93,-167.141 L 121.329,-167.271 L 121.746,-167.227 L 122.109,-167.017 L 122.355,-166.678 L 122.442,-166.268 L 122.355,-165.858 L 122.109,-165.519 L 121.746,-165.31 L 121.329,-165.266 L 120.93,-165.395 M 64.8583,-162.004 L 64.5469,-162.284 L 64.3764,-162.667 L 64.3764,-163.086 L 64.5469,-163.469 L 64.8583,-163.749 L 65.257,-163.879 L 65.6738,-163.835 L 66.0368,-163.626 L 66.2832,-163.286 L 66.3703,-162.876 L 66.2832,-162.466 L 66.0368,-162.127 L 65.6738,-161.918 L 65.257,-161.874 L 64.8583,-162.004 M 120.725,-162.004 L 120.414,-162.284 L 120.243,-162.667 L 120.243,-163.086 L 120.414,-163.469 L 120.725,-163.749 L 121.124,-163.879 L 121.541,-163.835 L 121.904,-163.626 L 122.15,-163.286 L 122.237,-162.876 L 122.15,-162.466 L 121.904,-162.127 L 121.541,-161.918 L 121.124,-161.874 L 120.725,-162.004 M 65.4708,-158.661 L 65.1594,-158.942 L 64.9889,-159.325 L 64.9889,-159.744 L 65.1594,-160.127 L 65.4708,-160.407 L 65.8695,-160.537 L 66.2863,-160.493 L 66.6493,-160.283 L 66.8957,-159.944 L 66.9828,-159.534 L 66.8957,-159.124 L 66.6493,-158.785 L 66.2863,-158.576 L 65.8695,-158.532 L 65.4708,-158.661 M 120.113,-158.661 L 119.801,-158.942 L 119.631,-159.325 L 119.631,-159.744 L 119.801,-160.127 L 120.113,-160.407 L 120.511,-160.537 L 120.928,-160.493 L 121.291,-160.283 L 121.538,-159.944 L 121.625,-159.534 L 121.538,-159.124 L 121.291,-158.785 L 120.928,-158.576 L 120.511,-158.532 L 120.113,-158.661 M 90.3858,-156.858 L 90.3858,-159.678 L 96.2058,-159.678 L 96.2058,-156.858 L 90.3858,-156.858 M 66.4817,-155.417 L 66.1703,-155.698 L 65.9998,-156.081 L 65.9998,-156.5 L 66.1703,-156.883 L 66.4817,-157.163 L 66.8804,-157.293 L 67.2972,-157.249 L 67.6602,-157.039 L 67.9066,-156.7 L 67.9937,-156.29 L 67.9066,-155.88 L 67.6602,-155.541 L 67.2972,-155.331 L 66.8804,-155.288 L 66.4817,-155.417 M 119.102,-155.417 L 118.79,-155.698 L 118.62,-156.081 L 118.62,-156.5 L 118.79,-156.883 L 119.102,-157.163 L 119.5,-157.293 L 119.917,-157.249 L 120.28,-157.039 L 120.527,-156.7 L 120.614,-156.29 L 120.527,-155.88 L 120.28,-155.541 L 119.917,-155.331 L 119.5,-155.288 L 119.102,-155.417 M 67.8763,-152.319 L 67.5648,-152.599 L 67.3943,-152.982 L 67.3943,-153.401 L 67.5648,-153.784 L 67.8763,-154.064 L 68.275,-154.194 L 68.6918,-154.15 L 69.0547,-153.941 L 69.3011,-153.601 L 69.3883,-153.192 L 69.3011,-152.782 L 69.0547,-152.442 L 68.6918,-152.233 L 68.275,-152.189 L 67.8763,-152.319 M 117.707,-152.319 L 117.396,-152.599 L 117.225,-152.982 L 117.225,-153.401 L 117.396,-153.784 L 117.707,-154.064 L 118.106,-154.194 L 118.523,-154.15 L 118.886,-153.941 L 119.132,-153.601 L 119.219,-153.192 L 119.132,-152.782 L 118.886,-152.442 L 118.523,-152.233 L 118.106,-152.189 L 117.707,-152.319 M 69.6342,-149.411 L 69.3227,-149.691 L 69.1522,-150.074 L 69.1522,-150.493 L 69.3227,-150.876 L 69.6342,-151.157 L 70.0328,-151.286 L 70.4497,-151.242 L 70.8127,-151.033 L 71.059,-150.694 L 71.1462,-150.284 L 71.059,-149.874 L 70.8127,-149.535 L 70.4497,-149.325 L 70.0328,-149.281 L 69.6342,-149.411 M 115.949,-149.411 L 115.638,-149.691 L 115.467,-150.074 L 115.467,-150.493 L 115.638,-150.876 L 115.949,-151.157 L 116.348,-151.286 L 116.765,-151.242 L 117.128,-151.033 L 117.374,-150.694 L 117.461,-150.284 L 117.374,-149.874 L 117.128,-149.535 L 116.765,-149.325 L 116.348,-149.281 L 115.949,-149.411 M 71.7297,-146.736 L 71.4183,-147.016 L 71.2478,-147.399 L 71.2478,-147.818 L 71.4183,-148.201 L 71.7297,-148.482 L 72.1284,-148.611 L 72.5452,-148.567 L 72.9082,-148.358 L 73.1546,-148.019 L 73.2417,-147.609 L 73.1546,-147.199 L 72.9082,-146.86 L 72.5452,-146.65 L 72.1284,-146.606 L 71.7297,-146.736 M 113.854,-146.736 L 113.542,-147.016 L 113.372,-147.399 L 113.372,-147.818 L 113.542,-148.201 L 113.854,-148.482 L 114.252,-148.611 L 114.669,-148.567 L 115.032,-148.358 L 115.279,-148.019 L 115.366,-147.609 L 115.279,-147.199 L 115.032,-146.86 L 114.669,-146.65 L 114.252,-146.606 L 113.854,-146.736 M 74.1324,-144.333 L 73.821,-144.614 L 73.6505,-144.997 L 73.6505,-145.416 L 73.821,-145.799 L 74.1324,-146.079 L 74.5311,-146.209 L 74.9479,-146.165 L 75.3109,-145.955 L 75.5573,-145.616 L 75.6444,-145.206 L 75.5573,-144.796 L 75.3109,-144.457 L 74.9479,-144.247 L 74.5311,-144.204 L 74.1324,-144.333 M 111.451,-144.333 L 111.14,-144.614 L 110.969,-144.997 L 110.969,-145.416 L 111.14,-145.799 L 111.451,-146.079 L 111.85,-146.209 L 112.267,-146.165 L 112.63,-145.955 L 112.876,-145.616 L 112.963,-145.206 L 112.876,-144.796 L 112.63,-144.457 L 112.267,-144.247 L 111.85,-144.204 L 111.451,-144.333 M 76.8072,-142.238 L 76.4958,-142.518 L 76.3253,-142.901 L 76.3253,-143.32 L 76.4958,-143.703 L 76.8072,-143.984 L 77.2059,-144.113 L 77.6227,-144.069 L 77.9857,-143.86 L 78.2321,-143.521 L 78.3192,-143.111 L 78.2321,-142.701 L 77.9857,-142.361 L 77.6227,-142.152 L 77.2059,-142.108 L 76.8072,-142.238 M 108.776,-142.238 L 108.465,-142.518 L 108.294,-142.901 L 108.294,-143.32 L 108.465,-143.703 L 108.776,-143.984 L 109.175,-144.113 L 109.592,-144.069 L 109.955,-143.86 L 110.201,-143.521 L 110.288,-143.111 L 110.201,-142.701 L 109.955,-142.361 L 109.592,-142.152 L 109.175,-142.108 L 108.776,-142.238 M 79.7151,-140.48 L 79.4036,-140.76 L 79.2332,-141.143 L 79.2332,-141.562 L 79.4036,-141.945 L 79.7151,-142.226 L 80.1138,-142.355 L 80.5306,-142.311 L 80.8936,-142.102 L 81.14,-141.763 L 81.2271,-141.353 L 81.14,-140.943 L 80.8936,-140.604 L 80.5306,-140.394 L 80.1138,-140.35 L 79.7151,-140.48 M 105.868,-140.48 L 105.557,-140.76 L 105.386,-141.143 L 105.386,-141.562 L 105.557,-141.945 L 105.868,-142.226 L 106.267,-142.355 L 106.684,-142.311 L 107.047,-142.102 L 107.293,-141.763 L 107.38,-141.353 L 107.293,-140.943 L 107.047,-140.604 L 106.684,-140.394 L 106.267,-140.35 L 105.868,-140.48 M 82.8137,-139.085 L 82.5022,-139.366 L 82.3317,-139.749 L 82.3317,-140.168 L 82.5022,-140.551 L 82.8137,-140.831 L 83.2124,-140.961 L 83.6292,-140.917 L 83.9922,-140.707 L 84.2386,-140.368 L 84.3257,-139.958 L 84.2386,-139.548 L 83.9922,-139.209 L 83.6292,-138.999 L 83.2124,-138.956 L 82.8137,-139.085 M 102.77,-139.085 L 102.458,-139.366 L 102.288,-139.749 L 102.288,-140.168 L 102.458,-140.551 L 102.77,-140.831 L 103.169,-140.961 L 103.585,-140.917 L 103.948,-140.707 L 104.195,-140.368 L 104.282,-139.958 L 104.195,-139.548 L 103.948,-139.209 L 103.585,-138.999 L 103.169,-138.956 L 102.77,-139.085 M 86.0578,-138.074 L 85.7463,-138.355 L 85.5758,-138.738 L 85.5758,-139.157 L 85.7463,-139.54 L 86.0578,-139.82 L 86.4564,-139.95 L 86.8733,-139.906 L 87.2362,-139.696 L 87.4826,-139.357 L 87.5698,-138.947 L 87.4826,-138.537 L 87.2362,-138.198 L 86.8733,-137.989 L 86.4564,-137.945 L 86.0578,-138.074 M 99.5258,-138.074 L 99.2143,-138.355 L 99.0438,-138.738 L 99.0438,-139.157 L 99.2143,-139.54 L 99.5258,-139.82 L 99.9244,-139.95 L 100.341,-139.906 L 100.704,-139.696 L 100.951,-139.357 L 101.038,-138.947 L 100.951,-138.537 L 100.704,-138.198 L 100.341,-137.989 L 99.9244,-137.945 L 99.5258,-138.074 M 89.4,-137.462 L 89.0886,-137.742 L 88.9181,-138.125 L 88.9181,-138.544 L 89.0886,-138.927 L 89.4,-139.208 L 89.7987,-139.337 L 90.2155,-139.293 L 90.5785,-139.084 L 90.8249,-138.745 L 90.912,-138.335 L 90.8249,-137.925 L 90.5785,-137.586 L 90.2155,-137.376 L 89.7987,-137.332 L 89.4,-137.462 M 96.1835,-137.462 L 95.872,-137.742 L 95.7015,-138.125 L 95.7015,-138.544 L 95.872,-138.927 L 96.1835,-139.208 L 96.5822,-139.337 L 96.999,-139.293 L 97.362,-139.084 L 97.6084,-138.745 L 97.6955,-138.335 L 97.6084,-137.925 L 97.362,-137.586 L 96.999,-137.376 L 96.5822,-137.332 L 96.1835,-137.462 M 92.7918,-137.257 L 92.4803,-137.537 L 92.3098,-137.92 L 92.3098,-138.339 L 92.4803,-138.722 L 92.7918,-139.003 L 93.1904,-139.132 L 93.6073,-139.088 L 93.9702,-138.879 L 94.2166,-138.54 L 94.3038,-138.13 L 94.2166,-137.72 L 93.9702,-137.381 L 93.6073,-137.171 L 93.1904,-137.127 L 92.7918,-137.257"
     stroke="#0000ff"
     fill="none"
     stroke-width="0.1"
     id="path17"
     style="fill:none;stroke:#000000;stroke-width:0.01;stroke-dasharray:none" />
  <path
     d="M 118.276,-165.831 L 118.364,-165.87 L 118.442,-165.927 L 118.506,-165.998 L 118.554,-166.081 L 118.584,-166.173 L 118.594,-166.268 L 118.584,-166.364 L 118.554,-166.455 L 118.506,-166.538 L 118.442,-166.61 L 118.364,-166.666 L 118.276,-166.705 L 118.182,-166.725 L 116.711,-166.725 L 116.617,-166.705 L 116.53,-166.666 L 116.452,-166.61 L 116.388,-166.538 L 116.34,-166.455 L 116.31,-166.364 L 116.3,-166.268 L 116.31,-166.173 L 116.34,-166.081 L 116.388,-165.998 L 116.452,-165.927 L 116.53,-165.87 L 116.617,-165.831 L 116.711,-165.811 L 118.182,-165.811 L 118.276,-165.831 M 58.0192,-165.831 L 58.1069,-165.87 L 58.1847,-165.927 L 58.2489,-165.998 L 58.297,-166.081 L 58.3266,-166.173 L 58.3367,-166.268 L 58.3266,-166.364 L 58.297,-166.455 L 58.2489,-166.538 L 58.1847,-166.61 L 58.1069,-166.666 L 58.0192,-166.705 L 57.9252,-166.725 L 56.4541,-166.725 L 56.3602,-166.705 L 56.2725,-166.666 L 56.1947,-166.61 L 56.1304,-166.538 L 56.0824,-166.455 L 56.0527,-166.364 L 56.0427,-166.268 L 56.0527,-166.173 L 56.0824,-166.081 L 56.1304,-165.998 L 56.1947,-165.927 L 56.2725,-165.87 L 56.3602,-165.831 L 56.4541,-165.811 L 57.9252,-165.811 L 58.0192,-165.831"
     stroke="none"
     fill="#000000"
     stroke-width="0.5"
     id="path18"
     inkscape:label="path18"
     style="fill:#ff0000" />
  <metadata
     id="metadata19">
    <rdf:RDF>
      <cc:Work
         rdf:about="">
        <dc:title>OpenSCAD Model</dc:title>
      </cc:Work>
    </rdf:RDF>
  </metadata>
</svg>
