<?xml version="1.0" encoding="UTF-8" standalone="no"?>
<!-- Created with Inkscape (http://www.inkscape.org/) -->

<svg
   width="700mm"
   height="500mm"
   viewBox="0 0 700 500"
   version="1.1"
   id="svg1"
   sodipodi:docname="support.svg"
   inkscape:version="1.4 (86a8ad7, 2024-10-11)"
   xmlns:inkscape="http://www.inkscape.org/namespaces/inkscape"
   xmlns:sodipodi="http://sodipodi.sourceforge.net/DTD/sodipodi-0.dtd"
   xmlns="http://www.w3.org/2000/svg"
   xmlns:svg="http://www.w3.org/2000/svg">
  <sodipodi:namedview
     id="namedview1"
     pagecolor="#ffffff"
     bordercolor="#000000"
     borderopacity="0.25"
     inkscape:showpageshadow="2"
     inkscape:pageopacity="0.0"
     inkscape:pagecheckerboard="0"
     inkscape:deskcolor="#d1d1d1"
     inkscape:document-units="mm"
     showguides="false"
     inkscape:zoom="0.125"
     inkscape:cx="2864"
     inkscape:cy="428"
     inkscape:window-width="1920"
     inkscape:window-height="974"
     inkscape:window-x="-11"
     inkscape:window-y="-11"
     inkscape:window-maximized="1"
     inkscape:current-layer="g15" />
  <defs
     id="defs1" />
  <g
     inkscape:label="src"
     inkscape:groupmode="layer"
     id="layer1"
     style="display:none">
    <rect
       style="fill:none;stroke:#000000;stroke-width:0.00999992;stroke-linejoin:bevel;stroke-miterlimit:18.1;stroke-dasharray:none"
       id="rect1"
       width="151.99001"
       height="115.19"
       x="26.004992"
       y="57.004993" />
    <rect
       style="fill:none;stroke:#000000;stroke-width:0.01;stroke-linejoin:bevel;stroke-miterlimit:18.1;stroke-dasharray:none"
       id="rect1-8"
       width="159.99001"
       height="1.1900001"
       x="22.004992"
       y="172.205"
       ry="0.085611515" />
  </g>
  <g
     inkscape:label="joint"
     inkscape:groupmode="layer"
     id="layer1-6"
     style="display:none"
     transform="translate(6.9588636,25.326646)">
    <path
       id="rect1-8-4"
       style="display:inline;fill:none;stroke:#000000;stroke-width:0.01;stroke-linejoin:bevel;stroke-miterlimit:18.1"
       d="M 26.004992,57.004993 H 177.995 m 0,0 0.001,115.195007 3.91257,0.005 c 0.0474,0 0.0856,0.0382 0.0856,0.0856 v 1.01878 c 0,0.0474 -0.0382,0.0856 -0.0856,0.0856 H 22.090603 c -0.04743,0 -0.08561,-0.0382 -0.08561,-0.0856 v -1.01878 c 0,-0.0474 0.03818,-0.0856 0.08561,-0.0856 l 3.915163,-0.005 -8e-4,-115.195007"
       sodipodi:nodetypes="ccccsssssssscc" />
  </g>
  <g
     inkscape:label="1"
     inkscape:groupmode="layer"
     id="layer1-6-2"
     style="display:inline"
     transform="translate(-12.474993,-15.460405)">
    <path
       id="rect1-8-4-1-5"
       style="display:inline;fill:none;stroke:#000000;stroke-width:0.01;stroke-linejoin:bevel;stroke-miterlimit:18.1"
       d="M 700.47376,30.474131 V 182.46414 m 0,0 -115.19501,0.001 -0.005,3.91257 c 0,0.0474 -0.0382,0.0856 -0.0856,0.0856 h -1.01878 c -0.0474,0 -0.0856,-0.0382 -0.0856,-0.0856 V 26.559741 c 0,-0.0474 0.0382,-0.0856 0.0856,-0.0856 h 1.01878 c 0.0474,0 0.0856,0.0382 0.0856,0.0856 l 0.005,3.91516 115.19501,-8e-4"
       sodipodi:nodetypes="ccccsssssssscc" />
    <path
       id="rect1-8-4-1-5-2"
       style="display:inline;fill:none;stroke:#000000;stroke-width:0.01;stroke-linejoin:bevel;stroke-miterlimit:18.1"
       d="m 584.47707,190.93097 v 151.99001 m 0,0 115.19501,0.001 0.005,3.91257 c 0,0.0474 0.0382,0.0856 0.0856,0.0856 h 1.01878 c 0.0474,0 0.0856,-0.0382 0.0856,-0.0856 V 187.01658 c 0,-0.0474 -0.0382,-0.0856 -0.0856,-0.0856 h -1.01878 c -0.0474,0 -0.0856,0.0382 -0.0856,0.0856 l -0.005,3.91516 -115.19501,-8e-4"
       sodipodi:nodetypes="ccccsssssssscc" />
    <path
       id="rect1-8-4-1-5-1"
       style="display:inline;fill:none;stroke:#000000;stroke-width:0.01;stroke-linejoin:bevel;stroke-miterlimit:18.1"
       d="m 701.42833,351.97922 v 151.99001 m 0,0 -115.19501,0.001 -0.005,3.91257 c 0,0.0474 -0.0382,0.0856 -0.0856,0.0856 h -1.01878 c -0.0474,0 -0.0856,-0.0382 -0.0856,-0.0856 V 348.06483 c 0,-0.0474 0.0382,-0.0856 0.0856,-0.0856 h 1.01878 c 0.0474,0 0.0856,0.0382 0.0856,0.0856 l 0.005,3.91516 115.19501,-8e-4"
       sodipodi:nodetypes="ccccsssssssscc" />
  </g>
  <g
     inkscape:label="1"
     inkscape:groupmode="layer"
     id="g6"
     style="display:inline"
     transform="translate(-154.29166,-15.460405)">
    <path
       id="path4"
       style="display:inline;fill:none;stroke:#000000;stroke-width:0.01;stroke-linejoin:bevel;stroke-miterlimit:18.1"
       d="M 700.47376,30.474131 V 182.46414 m 0,0 -115.19501,0.001 -0.005,3.91257 c 0,0.0474 -0.0382,0.0856 -0.0856,0.0856 h -1.01878 c -0.0474,0 -0.0856,-0.0382 -0.0856,-0.0856 V 26.559741 c 0,-0.0474 0.0382,-0.0856 0.0856,-0.0856 h 1.01878 c 0.0474,0 0.0856,0.0382 0.0856,0.0856 l 0.005,3.91516 115.19501,-8e-4"
       sodipodi:nodetypes="ccccsssssssscc" />
    <path
       id="path5"
       style="display:inline;fill:none;stroke:#000000;stroke-width:0.01;stroke-linejoin:bevel;stroke-miterlimit:18.1"
       d="m 584.47707,190.93097 v 151.99001 m 0,0 115.19501,0.001 0.005,3.91257 c 0,0.0474 0.0382,0.0856 0.0856,0.0856 h 1.01878 c 0.0474,0 0.0856,-0.0382 0.0856,-0.0856 V 187.01658 c 0,-0.0474 -0.0382,-0.0856 -0.0856,-0.0856 h -1.01878 c -0.0474,0 -0.0856,0.0382 -0.0856,0.0856 l -0.005,3.91516 -115.19501,-8e-4"
       sodipodi:nodetypes="ccccsssssssscc" />
    <path
       id="path6"
       style="display:inline;fill:none;stroke:#000000;stroke-width:0.01;stroke-linejoin:bevel;stroke-miterlimit:18.1"
       d="m 701.42833,351.97922 v 151.99001 m 0,0 -115.19501,0.001 -0.005,3.91257 c 0,0.0474 -0.0382,0.0856 -0.0856,0.0856 h -1.01878 c -0.0474,0 -0.0856,-0.0382 -0.0856,-0.0856 V 348.06483 c 0,-0.0474 0.0382,-0.0856 0.0856,-0.0856 h 1.01878 c 0.0474,0 0.0856,0.0382 0.0856,0.0856 l 0.005,3.91516 115.19501,-8e-4"
       sodipodi:nodetypes="ccccsssssssscc" />
  </g>
  <g
     inkscape:label="1"
     inkscape:groupmode="layer"
     id="g9"
     style="display:inline"
     transform="translate(-289.75833,-15.460405)">
    <path
       id="path7"
       style="display:inline;fill:none;stroke:#000000;stroke-width:0.01;stroke-linejoin:bevel;stroke-miterlimit:18.1"
       d="M 700.47376,30.474131 V 182.46414 m 0,0 -115.19501,0.001 -0.005,3.91257 c 0,0.0474 -0.0382,0.0856 -0.0856,0.0856 h -1.01878 c -0.0474,0 -0.0856,-0.0382 -0.0856,-0.0856 V 26.559741 c 0,-0.0474 0.0382,-0.0856 0.0856,-0.0856 h 1.01878 c 0.0474,0 0.0856,0.0382 0.0856,0.0856 l 0.005,3.91516 115.19501,-8e-4"
       sodipodi:nodetypes="ccccsssssssscc" />
    <path
       id="path8"
       style="display:inline;fill:none;stroke:#000000;stroke-width:0.01;stroke-linejoin:bevel;stroke-miterlimit:18.1"
       d="m 584.47707,190.93097 v 151.99001 m 0,0 115.19501,0.001 0.005,3.91257 c 0,0.0474 0.0382,0.0856 0.0856,0.0856 h 1.01878 c 0.0474,0 0.0856,-0.0382 0.0856,-0.0856 V 187.01658 c 0,-0.0474 -0.0382,-0.0856 -0.0856,-0.0856 h -1.01878 c -0.0474,0 -0.0856,0.0382 -0.0856,0.0856 l -0.005,3.91516 -115.19501,-8e-4"
       sodipodi:nodetypes="ccccsssssssscc" />
    <path
       id="path9"
       style="display:inline;fill:none;stroke:#000000;stroke-width:0.01;stroke-linejoin:bevel;stroke-miterlimit:18.1"
       d="m 701.42833,351.97922 v 151.99001 m 0,0 -115.19501,0.001 -0.005,3.91257 c 0,0.0474 -0.0382,0.0856 -0.0856,0.0856 h -1.01878 c -0.0474,0 -0.0856,-0.0382 -0.0856,-0.0856 V 348.06483 c 0,-0.0474 0.0382,-0.0856 0.0856,-0.0856 h 1.01878 c 0.0474,0 0.0856,0.0382 0.0856,0.0856 l 0.005,3.91516 115.19501,-8e-4"
       sodipodi:nodetypes="ccccsssssssscc" />
  </g>
  <text
     xml:space="preserve"
     style="font-style:normal;font-variant:normal;font-weight:900;font-stretch:normal;font-size:3.52777px;line-height:1;font-family:Arial;-inkscape-font-specification:'Arial Heavy';text-align:start;writing-mode:lr-tb;direction:ltr;text-anchor:start;display:none;fill:#000000;stroke:#000000;stroke-width:0.01;stroke-linejoin:bevel;stroke-miterlimit:18.1"
     x="33.845848"
     y="203.90736"
     id="text16"><tspan
       sodipodi:role="line"
       id="tspan16"
       style="stroke-width:0.01"
       x="33.845848"
       y="203.90736">dimension cadre : 114 (1,2 languette) + x152</tspan><tspan
       sodipodi:role="line"
       style="stroke-width:0.01"
       x="33.845848"
       y="207.43513"
       id="tspan3">dimension languette : 1,2 x 160</tspan><tspan
       sodipodi:role="line"
       style="stroke-width:0.01"
       x="33.845848"
       y="210.96291"
       id="tspan4" /><tspan
       sodipodi:role="line"
       style="stroke-width:0.01"
       x="33.845848"
       y="214.49068"
       id="tspan18">epaisseur 1,4mm</tspan></text>
  <g
     inkscape:label="1"
     inkscape:groupmode="layer"
     id="g12"
     style="display:inline"
     transform="translate(-431.575,-15.460405)">
    <path
       id="path10"
       style="display:inline;fill:none;stroke:#000000;stroke-width:0.01;stroke-linejoin:bevel;stroke-miterlimit:18.1"
       d="M 700.47376,30.474131 V 182.46414 m 0,0 -115.19501,0.001 -0.005,3.91257 c 0,0.0474 -0.0382,0.0856 -0.0856,0.0856 h -1.01878 c -0.0474,0 -0.0856,-0.0382 -0.0856,-0.0856 V 26.559741 c 0,-0.0474 0.0382,-0.0856 0.0856,-0.0856 h 1.01878 c 0.0474,0 0.0856,0.0382 0.0856,0.0856 l 0.005,3.91516 115.19501,-8e-4"
       sodipodi:nodetypes="ccccsssssssscc" />
    <path
       id="path11"
       style="display:inline;fill:none;stroke:#000000;stroke-width:0.01;stroke-linejoin:bevel;stroke-miterlimit:18.1"
       d="m 584.47707,190.93097 v 151.99001 m 0,0 115.19501,0.001 0.005,3.91257 c 0,0.0474 0.0382,0.0856 0.0856,0.0856 h 1.01878 c 0.0474,0 0.0856,-0.0382 0.0856,-0.0856 V 187.01658 c 0,-0.0474 -0.0382,-0.0856 -0.0856,-0.0856 h -1.01878 c -0.0474,0 -0.0856,0.0382 -0.0856,0.0856 l -0.005,3.91516 -115.19501,-8e-4"
       sodipodi:nodetypes="ccccsssssssscc" />
    <path
       id="path12"
       style="display:inline;fill:none;stroke:#000000;stroke-width:0.01;stroke-linejoin:bevel;stroke-miterlimit:18.1"
       d="m 701.42833,351.97922 v 151.99001 m 0,0 -115.19501,0.001 -0.005,3.91257 c 0,0.0474 -0.0382,0.0856 -0.0856,0.0856 h -1.01878 c -0.0474,0 -0.0856,-0.0382 -0.0856,-0.0856 V 348.06483 c 0,-0.0474 0.0382,-0.0856 0.0856,-0.0856 h 1.01878 c 0.0474,0 0.0856,0.0382 0.0856,0.0856 l 0.005,3.91516 115.19501,-8e-4"
       sodipodi:nodetypes="ccccsssssssscc" />
  </g>
  <g
     inkscape:label="1"
     inkscape:groupmode="layer"
     id="g15"
     style="display:inline"
     transform="translate(-569.15833,-19.693738)">
    <path
       id="path13"
       style="display:inline;fill:none;stroke:#000000;stroke-width:0.01;stroke-linejoin:bevel;stroke-miterlimit:18.1"
       d="M 700.47376,30.474131 V 182.46414 m 0,0 -115.19501,0.001 -0.005,3.91257 c 0,0.0474 -0.0382,0.0856 -0.0856,0.0856 h -1.01878 c -0.0474,0 -0.0856,-0.0382 -0.0856,-0.0856 V 26.559741 c 0,-0.0474 0.0382,-0.0856 0.0856,-0.0856 h 1.01878 c 0.0474,0 0.0856,0.0382 0.0856,0.0856 l 0.005,3.91516 115.19501,-8e-4"
       sodipodi:nodetypes="ccccsssssssscc" />
    <path
       id="path14"
       style="display:inline;fill:none;stroke:#000000;stroke-width:0.01;stroke-linejoin:bevel;stroke-miterlimit:18.1"
       d="m 584.47707,190.93097 v 151.99001 m 0,0 115.19501,0.001 0.005,3.91257 c 0,0.0474 0.0382,0.0856 0.0856,0.0856 h 1.01878 c 0.0474,0 0.0856,-0.0382 0.0856,-0.0856 V 187.01658 c 0,-0.0474 -0.0382,-0.0856 -0.0856,-0.0856 h -1.01878 c -0.0474,0 -0.0856,0.0382 -0.0856,0.0856 l -0.005,3.91516 -115.19501,-8e-4"
       sodipodi:nodetypes="ccccsssssssscc" />
    <path
       id="path15"
       style="display:inline;fill:none;stroke:#000000;stroke-width:0.01;stroke-linejoin:bevel;stroke-miterlimit:18.1"
       d="m 701.42833,351.97922 v 151.99001 m 0,0 -115.19501,0.001 -0.005,3.91257 c 0,0.0474 -0.0382,0.0856 -0.0856,0.0856 h -1.01878 c -0.0474,0 -0.0856,-0.0382 -0.0856,-0.0856 V 348.06483 c 0,-0.0474 0.0382,-0.0856 0.0856,-0.0856 h 1.01878 c 0.0474,0 0.0856,0.0382 0.0856,0.0856 l 0.005,3.91516 115.19501,-8e-4"
       sodipodi:nodetypes="ccccsssssssscc" />
  </g>
</svg>
